stemi.ufo
<glyph name="ampersand" format="2">
  <advance width="844" height="844"/>
  <unicode hex="0026"/>
  <outline>
    <contour>
      <point x="130.02" y="332.239" type="qcurve" smooth="yes"/>
      <point x="130.02" y="220.691"/>
      <point x="279.241" y="73.6875"/>
      <point x="392.265" y="73.6875" type="qcurve" smooth="yes"/>
      <point x="492.731" y="73.6875"/>
      <point x="581.378" y="146.081" type="qcurve"/>
      <point x="265.205" y="574.54" type="line"/>
      <point x="202.414" y="524.307"/>
      <point x="130.02" y="409.805"/>
    </contour>
    <contour>
      <point x="321.349" y="708.987" type="qcurve"/>
      <point x="353.853" y="720.067"/>
      <point x="409.995" y="784.336"/>
      <point x="438.805" y="853.775"/>
      <point x="439.543" y="880.369" type="qcurve" smooth="yes"/>
      <point x="439.543" y="883.325" type="line" smooth="yes"/>
      <point x="439.543" y="906.225"/>
      <point x="409.257" y="948.331"/>
      <point x="386.355" y="960.151" type="qcurve" smooth="yes"/>
      <point x="360.5" y="974.187"/>
      <point x="343.51" y="974.187" type="qcurve" smooth="yes"/>
      <point x="325.042" y="974.187"/>
      <point x="303.618" y="956.457" type="qcurve" smooth="yes"/>
      <point x="262.251" y="923.216"/>
      <point x="262.251" y="866.334" type="qcurve" smooth="yes"/>
      <point x="262.251" y="824.228"/>
      <point x="293.277" y="751.833"/>
    </contour>
    <contour>
      <point x="204.631" y="657.276" type="qcurve"/>
      <point x="169.684" y="708"/>
      <point x="151.072" y="756.634" type="qcurve" smooth="yes"/>
      <point x="132.684" y="805"/>
      <point x="132.236" y="864.856" type="qcurve" smooth="yes"/>
      <point x="132.684" y="976"/>
      <point x="206.108" y="1039.93" type="qcurve" smooth="yes"/>
      <point x="239.684" y="1069"/>
      <point x="267.422" y="1082.78" type="qcurve" smooth="yes"/>
      <point x="295.684" y="1096"/>
      <point x="335.385" y="1096.08" type="qcurve" smooth="yes"/>
      <point x="355.684" y="1096"/>
      <point x="376.753" y="1093.12" type="qcurve" smooth="yes"/>
      <point x="429.684" y="1086"/>
      <point x="486.821" y="1043.26" type="qcurve" smooth="yes"/>
      <point x="543.684" y="1001"/>
      <point x="554.784" y="960.151" type="qcurve" smooth="yes"/>
      <point x="563.684" y="927"/>
      <point x="563.648" y="895.144" type="qcurve" smooth="yes"/>
      <point x="563.684" y="818"/>
      <point x="515.632" y="745.553" type="qcurve" smooth="yes"/>
      <point x="467.684" y="674"/>
      <point x="386.355" y="618.124" type="qcurve"/>
      <point x="669.285" y="238.422" type="line"/>
      <point x="728.927" y="315.312"/>
      <point x="723.684" y="524" type="qcurve" smooth="yes"/>
      <point x="723.684" y="524"/>
      <point x="723.212" y="542.775" type="qcurve"/>
      <point x="844.361" y="542.775" type="line"/>
      <point x="844.361" y="513.964" type="line" smooth="yes"/>
      <point x="844.684" y="279"/>
      <point x="734.293" y="150.514" type="qcurve"/>
      <point x="805.684" y="48" type="line"/>
      <point x="702.684" y="-22" type="line"/>
      <point x="644.907" y="61.8672" type="line"/>
      <point x="524.684" y="-40"/>
      <point x="211.684" y="-40"/>
      <point x="105.642" y="58.543" type="qcurve" smooth="yes"/>
      <point x="0.683594" y="156"/>
      <point x="0.00585938" y="309.339" type="qcurve" smooth="yes"/>
      <point x="-0.316406" y="369"/>
      <point x="15.8877" y="421.625" type="qcurve" smooth="yes"/>
      <point x="31.6836" y="474"/>
      <point x="91.6836" y="559"/>
      <point x="125.588" y="591.898" type="qcurve" smooth="yes"/>
      <point x="159.684" y="625"/>
    </contour>
    <component base="konCONS" xOffset="694.684" yOffset="-47"/>
    <component base="konCONS" xOffset="723.684" yOffset="483"/>
  </outline>
</glyph>
<glyph name="parenleft" format="2">
  <advance width="1334" height="1334"/>
  <unicode hex="0028"/>
  <outline>
    <contour>
      <point x="561" y="780" type="qcurve"/>
      <point x="609" y="177"/>
      <point x="717.5" y="-193" type="qcurve" smooth="yes"/>
      <point x="807" y="-499"/>
      <point x="978" y="-813" type="qcurve"/>
      <point x="870" y="-874" type="line"/>
      <point x="668" y="-506"/>
      <point x="586" y="-213" type="qcurve" smooth="yes"/>
      <point x="444" y="298"/>
      <point x="434" y="713" type="qcurve"/>
      <point x="434" y="833" type="line"/>
      <point x="426" y="1309"/>
      <point x="528" y="1737" type="qcurve" smooth="yes"/>
      <point x="641" y="2212"/>
      <point x="897" y="2775" type="qcurve"/>
      <point x="1005" y="2714" type="line"/>
      <point x="781" y="2226"/>
      <point x="656" y="1692" type="qcurve" smooth="yes"/>
      <point x="558" y="1276"/>
    </contour>
    <component base="konCONS" xOffset="891" yOffset="2685"/>
    <component base="konCONS" xOffset="864" yOffset="-903"/>
    <component base="stemI" xScale="0" yScale="0" xyScale="1" yxScale="-1" xOffset="754.5" yOffset="712.5"/>
  </outline>
</glyph>
<glyph name="comma" format="2">
  <advance width="805" height="805"/>
  <unicode hex="002C"/>
  <outline>
    <contour>
      <point x="41.5527" y="-399.571" type="qcurve"/>
      <point x="165.551" y="-364.669"/>
      <point x="233.436" y="-296.67" type="qcurve"/>
      <point x="322.528" y="-207.691"/>
      <point x="354.094" y="-91.2734" type="qcurve"/>
      <point x="413.038" y="-107.282"/>
      <point x="472.888" y="-123.8" type="qcurve"/>
      <point x="434.958" y="-266.382"/>
      <point x="318.995" y="-382.229" type="qcurve"/>
      <point x="223.533" y="-477.807"/>
      <point x="73.3721" y="-517.658" type="qcurve"/>
      <point x="56.6562" y="-452.351"/>
    </contour>
    <contour>
      <point x="44.3809" y="-473.11" type="move"/>
      <point x="72.665" y="-444.826" type="line"/>
      <point x="72.665" y="-473.11" type="line"/>
      <point x="44.3809" y="-444.826" type="line"/>
    </contour>
    <contour>
      <point x="-2.99512" y="-482.303"/>
      <point x="-2.99512" y="-459.676" type="qcurve" smooth="yes"/>
      <point x="-2.99512" y="-435.634"/>
      <point x="16.0967" y="-416.542" type="qcurve" smooth="yes"/>
      <point x="37.3096" y="-395.329"/>
      <point x="60.6689" y="-396.061" type="qcurve" smooth="yes"/>
      <point x="81.1504" y="-396.743"/>
      <point x="120.748" y="-436.341"/>
      <point x="121.432" y="-456.823" type="qcurve" smooth="yes"/>
      <point x="122.163" y="-480.182"/>
      <point x="100.949" y="-501.396" type="qcurve" smooth="yes"/>
      <point x="82.5645" y="-519.78"/>
      <point x="57.1084" y="-519.78" type="qcurve" smooth="yes"/>
      <point x="34.4814" y="-519.78"/>
    </contour>
    <contour>
      <point x="398.642" y="-121.679" type="move"/>
      <point x="426.926" y="-93.3945" type="line"/>
      <point x="426.926" y="-121.679" type="line"/>
      <point x="398.642" y="-93.3945" type="line"/>
    </contour>
    <contour>
      <point x="351.266" y="-130.871"/>
      <point x="351.266" y="-108.243" type="qcurve" smooth="yes"/>
      <point x="351.266" y="-84.2021"/>
      <point x="370.357" y="-65.1104" type="qcurve" smooth="yes"/>
      <point x="391.57" y="-43.8965"/>
      <point x="414.929" y="-44.6279" type="qcurve" smooth="yes"/>
      <point x="435.411" y="-45.3105"/>
      <point x="475.009" y="-84.9092"/>
      <point x="475.692" y="-105.391" type="qcurve" smooth="yes"/>
      <point x="476.423" y="-128.75"/>
      <point x="455.21" y="-149.963" type="qcurve" smooth="yes"/>
      <point x="436.825" y="-168.348"/>
      <point x="411.369" y="-168.348" type="qcurve" smooth="yes"/>
      <point x="388.742" y="-168.348"/>
    </contour>
    <component base="stemKRT" xScale="0" yScale="0" xyScale="-1" yxScale="1" xOffset="238.5" yOffset="-46.5"/>
  </outline>
</glyph>
<glyph name="zero" format="2">
  <advance width="1233" height="1233"/>
  <unicode hex="0030"/>
  <outline>
    <contour>
      <point x="616" y="1520" type="qcurve" smooth="yes"/>
      <point x="855" y="1520"/>
      <point x="978" y="1324" type="qcurve" smooth="yes"/>
      <point x="1100" y="1127"/>
      <point x="1100" y="745" type="qcurve" smooth="yes"/>
      <point x="1100" y="364"/>
      <point x="978" y="167" type="qcurve" smooth="yes"/>
      <point x="855" y="-29"/>
      <point x="616" y="-29" type="qcurve" smooth="yes"/>
      <point x="376" y="-29"/>
      <point x="255" y="167" type="qcurve" smooth="yes"/>
      <point x="133" y="364"/>
      <point x="133" y="745" type="qcurve" smooth="yes"/>
      <point x="133" y="1127"/>
      <point x="255" y="1324" type="qcurve" smooth="yes"/>
      <point x="376" y="1520"/>
    </contour>
    <contour>
      <point x="616" y="1360" type="qcurve" smooth="yes"/>
      <point x="475" y="1360"/>
      <point x="406" y="1208" type="qcurve" smooth="yes"/>
      <point x="336" y="1058"/>
      <point x="336" y="745" type="qcurve" smooth="yes"/>
      <point x="336" y="471"/>
      <point x="390" y="321" type="qcurve"/>
      <point x="780" y="1285" type="line"/>
      <point x="716" y="1360"/>
    </contour>
    <contour>
      <point x="471" y="187" type="line"/>
      <point x="532" y="131"/>
      <point x="616" y="131" type="qcurve" smooth="yes"/>
      <point x="757" y="131"/>
      <point x="828" y="283" type="qcurve" smooth="yes"/>
      <point x="897" y="434"/>
      <point x="897" y="745" type="qcurve" smooth="yes"/>
      <point x="897" y="975"/>
      <point x="860" y="1116" type="qcurve"/>
    </contour>
  </outline>
</glyph>
<glyph name="two" format="2">
  <advance width="1233" height="1233"/>
  <unicode hex="0032"/>
  <outline>
    <contour>
      <point x="373" y="170" type="qcurve"/>
      <point x="1059" y="170" type="line"/>
      <point x="1059" y="0" type="line"/>
      <point x="152" y="0" type="line"/>
      <point x="152" y="170" type="line"/>
      <point x="340" y="366"/>
      <point x="479" y="518" type="qcurve" smooth="yes"/>
      <point x="632" y="684"/>
      <point x="672" y="731" type="qcurve" smooth="yes"/>
      <point x="772" y="852"/>
      <point x="807" y="928" type="qcurve" smooth="yes"/>
      <point x="842" y="1006"/>
      <point x="842" y="1083" type="qcurve" smooth="yes"/>
      <point x="842" y="1209"/>
      <point x="769" y="1279" type="qcurve" smooth="yes"/>
      <point x="695" y="1350"/>
      <point x="567" y="1350" type="qcurve" smooth="yes"/>
      <point x="476" y="1350"/>
      <point x="276" y="1284"/>
      <point x="164" y="1217" type="qcurve"/>
      <point x="164" y="1421" type="line"/>
      <point x="264" y="1469"/>
      <point x="367" y="1495" type="qcurve" smooth="yes"/>
      <point x="464" y="1520"/>
      <point x="563" y="1520" type="qcurve" smooth="yes"/>
      <point x="782" y="1520"/>
      <point x="916" y="1404" type="qcurve" smooth="yes"/>
      <point x="1049" y="1287"/>
      <point x="1049" y="1098" type="qcurve" smooth="yes"/>
      <point x="1049" y="1003"/>
      <point x="1005" y="906" type="qcurve" smooth="yes"/>
      <point x="959" y="808"/>
      <point x="860" y="694" type="qcurve" smooth="yes"/>
      <point x="831" y="660"/>
      <point x="698" y="514" type="qcurve" smooth="yes"/>
      <point x="623" y="434"/>
    </contour>
  </outline>
</glyph>
<glyph name="three" format="2">
  <advance width="1233" height="1233"/>
  <unicode hex="0033"/>
  <outline>
    <contour>
      <point x="776" y="799" type="qcurve"/>
      <point x="923" y="760"/>
      <point x="1001" y="660" type="qcurve" smooth="yes"/>
      <point x="1079" y="561"/>
      <point x="1079" y="412" type="qcurve" smooth="yes"/>
      <point x="1079" y="206"/>
      <point x="940" y="88" type="qcurve" smooth="yes"/>
      <point x="802" y="-29"/>
      <point x="557" y="-29" type="qcurve" smooth="yes"/>
      <point x="451" y="-29"/>
      <point x="347" y="-10" type="qcurve" smooth="yes"/>
      <point x="237" y="10"/>
      <point x="137" y="45" type="qcurve"/>
      <point x="137" y="246" type="line"/>
      <point x="243" y="191"/>
      <point x="338" y="167" type="qcurve" smooth="yes"/>
      <point x="439" y="141"/>
      <point x="535" y="141" type="qcurve" smooth="yes"/>
      <point x="702" y="141"/>
      <point x="790" y="216" type="qcurve" smooth="yes"/>
      <point x="879" y="291"/>
      <point x="879" y="432" type="qcurve" smooth="yes"/>
      <point x="879" y="563"/>
      <point x="790" y="638" type="qcurve" smooth="yes"/>
      <point x="703" y="715"/>
      <point x="549" y="715" type="qcurve" smooth="yes"/>
      <point x="395" y="715" type="line"/>
      <point x="395" y="881" type="line"/>
      <point x="549" y="881" type="line" smooth="yes"/>
      <point x="689" y="881"/>
      <point x="766" y="942" type="qcurve" smooth="yes"/>
      <point x="844" y="1004"/>
      <point x="844" y="1112" type="qcurve" smooth="yes"/>
      <point x="844" y="1228"/>
      <point x="771" y="1289" type="qcurve" smooth="yes"/>
      <point x="700" y="1350"/>
      <point x="565" y="1350" type="qcurve" smooth="yes"/>
      <point x="478" y="1350"/>
      <point x="284" y="1310"/>
      <point x="182" y="1270" type="qcurve"/>
      <point x="182" y="1456" type="line"/>
      <point x="304" y="1488"/>
      <point x="398" y="1504" type="qcurve" smooth="yes"/>
      <point x="490" y="1520"/>
      <point x="565" y="1520" type="qcurve" smooth="yes"/>
      <point x="783" y="1520"/>
      <point x="914" y="1411" type="qcurve" smooth="yes"/>
      <point x="1044" y="1301"/>
      <point x="1044" y="1120" type="qcurve" smooth="yes"/>
      <point x="1044" y="998"/>
      <point x="976" y="915" type="qcurve" smooth="yes"/>
      <point x="908" y="834"/>
    </contour>
  </outline>
</glyph>
<glyph name="five" format="2">
  <advance width="1233" height="1233"/>
  <unicode hex="0035"/>
  <outline>
    <contour>
      <point x="207" y="1493" type="line"/>
      <point x="963" y="1493" type="line"/>
      <point x="963" y="1323" type="line"/>
      <point x="391" y="1323" type="line"/>
      <point x="391" y="956" type="line"/>
      <point x="430" y="971"/>
      <point x="478" y="979" type="qcurve" smooth="yes"/>
      <point x="524" y="987"/>
      <point x="565" y="987" type="qcurve" smooth="yes"/>
      <point x="796" y="987"/>
      <point x="933" y="850" type="qcurve" smooth="yes"/>
      <point x="1069" y="714"/>
      <point x="1069" y="479" type="qcurve" smooth="yes"/>
      <point x="1069" y="243"/>
      <point x="785" y="-29"/>
      <point x="537" y="-29" type="qcurve" smooth="yes"/>
      <point x="415" y="-29"/>
      <point x="320" y="-13" type="qcurve" smooth="yes"/>
      <point x="221" y="4"/>
      <point x="143" y="35" type="qcurve"/>
      <point x="143" y="240" type="line"/>
      <point x="236" y="190"/>
      <point x="328" y="166" type="qcurve" smooth="yes"/>
      <point x="419" y="141"/>
      <point x="518" y="141" type="qcurve" smooth="yes"/>
      <point x="685" y="141"/>
      <point x="776" y="229" type="qcurve" smooth="yes"/>
      <point x="866" y="318"/>
      <point x="866" y="640"/>
      <point x="772" y="728" type="qcurve" smooth="yes"/>
      <point x="678" y="817"/>
      <point x="512" y="817" type="qcurve" smooth="yes"/>
      <point x="429" y="817"/>
      <point x="354" y="798" type="qcurve" smooth="yes"/>
      <point x="276" y="780"/>
      <point x="207" y="743" type="qcurve"/>
    </contour>
  </outline>
</glyph>
<glyph name="six" format="2">
  <advance width="1233" height="1233"/>
  <unicode hex="0036"/>
  <outline>
    <contour>
      <point x="991" y="1460" type="qcurve"/>
      <point x="991" y="1274" type="line"/>
      <point x="932" y="1309"/>
      <point x="857" y="1330" type="qcurve" smooth="yes"/>
      <point x="785" y="1350"/>
      <point x="709" y="1350" type="qcurve" smooth="yes"/>
      <point x="517" y="1350"/>
      <point x="418" y="1205" type="qcurve" smooth="yes"/>
      <point x="319" y="1061"/>
      <point x="319" y="780" type="qcurve"/>
      <point x="367" y="880"/>
      <point x="452" y="934" type="qcurve" smooth="yes"/>
      <point x="538" y="987"/>
      <point x="647" y="987" type="qcurve" smooth="yes"/>
      <point x="864" y="987"/>
      <point x="982" y="854" type="qcurve" smooth="yes"/>
      <point x="1100" y="723"/>
      <point x="1100" y="479" type="qcurve" smooth="yes"/>
      <point x="1100" y="238"/>
      <point x="978" y="104" type="qcurve" smooth="yes"/>
      <point x="857" y="-29"/>
      <point x="635" y="-29" type="qcurve" smooth="yes"/>
      <point x="375" y="-29"/>
      <point x="254" y="158" type="qcurve" smooth="yes"/>
      <point x="133" y="343"/>
      <point x="133" y="745" type="qcurve" smooth="yes"/>
      <point x="133" y="1122"/>
      <point x="279" y="1321" type="qcurve" smooth="yes"/>
      <point x="424" y="1520"/>
      <point x="700" y="1520" type="qcurve" smooth="yes"/>
      <point x="777" y="1520"/>
      <point x="848" y="1504" type="qcurve" smooth="yes"/>
      <point x="920" y="1489"/>
    </contour>
    <contour>
      <point x="631" y="829" type="qcurve" smooth="yes"/>
      <point x="501" y="829"/>
      <point x="428" y="736" type="qcurve" smooth="yes"/>
      <point x="354" y="642"/>
      <point x="354" y="316"/>
      <point x="428" y="222" type="qcurve" smooth="yes"/>
      <point x="501" y="129"/>
      <point x="631" y="129" type="qcurve" smooth="yes"/>
      <point x="766" y="129"/>
      <point x="833" y="217" type="qcurve" smooth="yes"/>
      <point x="901" y="306"/>
      <point x="901" y="652"/>
      <point x="833" y="741" type="qcurve" smooth="yes"/>
      <point x="766" y="829"/>
    </contour>
  </outline>
</glyph>
<glyph name="eight" format="2">
  <advance width="1233" height="1233"/>
  <unicode hex="0038"/>
  <outline>
    <contour>
      <point x="616" y="709" type="qcurve" smooth="yes"/>
      <point x="480" y="709"/>
      <point x="407" y="634" type="qcurve" smooth="yes"/>
      <point x="334" y="558"/>
      <point x="334" y="420" type="qcurve" smooth="yes"/>
      <point x="334" y="283"/>
      <point x="408" y="206" type="qcurve" smooth="yes"/>
      <point x="483" y="129"/>
      <point x="616" y="129" type="qcurve" smooth="yes"/>
      <point x="751" y="129"/>
      <point x="826" y="205" type="qcurve" smooth="yes"/>
      <point x="899" y="281"/>
      <point x="899" y="420" type="qcurve" smooth="yes"/>
      <point x="899" y="556"/>
      <point x="824" y="633" type="qcurve" smooth="yes"/>
      <point x="751" y="709"/>
    </contour>
    <contour>
      <point x="440" y="793" type="qcurve"/>
      <point x="312" y="826"/>
      <point x="238" y="916" type="qcurve" smooth="yes"/>
      <point x="166" y="1006"/>
      <point x="166" y="1133" type="qcurve" smooth="yes"/>
      <point x="166" y="1311"/>
      <point x="287" y="1416" type="qcurve" smooth="yes"/>
      <point x="409" y="1520"/>
      <point x="616" y="1520" type="qcurve" smooth="yes"/>
      <point x="824" y="1520"/>
      <point x="946" y="1416" type="qcurve" smooth="yes"/>
      <point x="1067" y="1311"/>
      <point x="1067" y="1133" type="qcurve" smooth="yes"/>
      <point x="1067" y="1005"/>
      <point x="994" y="916" type="qcurve" smooth="yes"/>
      <point x="922" y="826"/>
      <point x="793" y="793" type="qcurve"/>
      <point x="943" y="760"/>
      <point x="1022" y="660" type="qcurve" smooth="yes"/>
      <point x="1102" y="559"/>
      <point x="1102" y="401" type="qcurve" smooth="yes"/>
      <point x="1102" y="199"/>
      <point x="844" y="-29"/>
      <point x="388" y="-29"/>
      <point x="259" y="85" type="qcurve" smooth="yes"/>
      <point x="131" y="198"/>
      <point x="131" y="399" type="qcurve" smooth="yes"/>
      <point x="131" y="560"/>
      <point x="289" y="760"/>
    </contour>
    <contour>
      <point x="367" y="1114" type="qcurve" smooth="yes"/>
      <point x="367" y="994"/>
      <point x="431" y="931" type="qcurve" smooth="yes"/>
      <point x="496" y="868"/>
      <point x="616" y="868" type="qcurve" smooth="yes"/>
      <point x="738" y="868"/>
      <point x="802" y="931" type="qcurve" smooth="yes"/>
      <point x="866" y="994"/>
      <point x="866" y="1114" type="qcurve" smooth="yes"/>
      <point x="866" y="1236"/>
      <point x="802" y="1300" type="qcurve" smooth="yes"/>
      <point x="739" y="1364"/>
      <point x="616" y="1364" type="qcurve" smooth="yes"/>
      <point x="497" y="1364"/>
      <point x="431" y="1300" type="qcurve" smooth="yes"/>
      <point x="367" y="1235"/>
    </contour>
  </outline>
</glyph>
<glyph name="nine" format="2">
  <advance width="1233" height="1233"/>
  <unicode hex="0039"/>
  <outline>
    <contour>
      <point x="596" y="662" type="qcurve" smooth="yes"/>
      <point x="724" y="662"/>
      <point x="798" y="755" type="qcurve" smooth="yes"/>
      <point x="872" y="849"/>
      <point x="872" y="1175"/>
      <point x="798" y="1269" type="qcurve" smooth="yes"/>
      <point x="724" y="1362"/>
      <point x="596" y="1362" type="qcurve" smooth="yes"/>
      <point x="462" y="1362"/>
      <point x="394" y="1274" type="qcurve" smooth="yes"/>
      <point x="326" y="1183"/>
      <point x="326" y="1012" type="qcurve" smooth="yes"/>
      <point x="326" y="837"/>
      <point x="394" y="750" type="qcurve" smooth="yes"/>
      <point x="460" y="662"/>
    </contour>
    <contour>
      <point x="236" y="31" type="qcurve"/>
      <point x="236" y="217" type="line"/>
      <point x="295" y="182"/>
      <point x="370" y="161" type="qcurve" smooth="yes"/>
      <point x="442" y="141"/>
      <point x="518" y="141" type="qcurve" smooth="yes"/>
      <point x="711" y="141"/>
      <point x="808" y="286" type="qcurve" smooth="yes"/>
      <point x="907" y="430"/>
      <point x="907" y="711" type="qcurve"/>
      <point x="860" y="610"/>
      <point x="775" y="558" type="qcurve" smooth="yes"/>
      <point x="690" y="504"/>
      <point x="580" y="504" type="qcurve" smooth="yes"/>
      <point x="363" y="504"/>
      <point x="127" y="770"/>
      <point x="127" y="1014" type="qcurve" smooth="yes"/>
      <point x="127" y="1255"/>
      <point x="248" y="1388" type="qcurve" smooth="yes"/>
      <point x="370" y="1520"/>
      <point x="592" y="1520" type="qcurve" smooth="yes"/>
      <point x="852" y="1520"/>
      <point x="1094" y="1146"/>
      <point x="1094" y="745" type="qcurve" smooth="yes"/>
      <point x="1094" y="369"/>
      <point x="948" y="170" type="qcurve" smooth="yes"/>
      <point x="803" y="-29"/>
      <point x="526" y="-29" type="qcurve" smooth="yes"/>
      <point x="450" y="-29"/>
      <point x="379" y="-13" type="qcurve" smooth="yes"/>
      <point x="307" y="2"/>
    </contour>
  </outline>
</glyph>
<glyph name="equal" format="2">
  <advance width="1233" height="1233"/>
  <unicode hex="003D"/>
  <outline>
    <contour>
      <point x="550" y="1098" type="line"/>
      <point x="718" y="1098" type="line"/>
      <point x="718" y="930" type="line"/>
      <point x="1145" y="930" type="line"/>
      <point x="1145" y="760" type="line"/>
      <point x="88" y="760" type="line"/>
      <point x="88" y="930" type="line"/>
      <point x="550" y="930" type="line"/>
    </contour>
    <contour>
      <point x="88" y="524" type="line"/>
      <point x="1145" y="524" type="line"/>
      <point x="1145" y="352" type="line"/>
      <point x="706" y="352" type="line"/>
      <point x="706" y="183" type="line"/>
      <point x="538" y="183" type="line"/>
      <point x="538" y="352" type="line"/>
      <point x="88" y="352" type="line"/>
    </contour>
  </outline>
</glyph>
<glyph name="question" format="2">
  <advance width="800" height="800"/>
  <unicode hex="003F"/>
  <outline>
    <contour>
      <point x="27.5996" y="1418.8" type="line"/>
      <point x="262.219" y="1555.42"/>
      <point x="399.221" y="1531.6" type="qcurve" smooth="yes"/>
      <point x="697" y="1481"/>
      <point x="740.4" y="1194.6" type="qcurve" smooth="yes"/>
      <point x="772.982" y="977.445"/>
      <point x="519.2" y="767.6" type="qcurve" smooth="yes"/>
      <point x="451" y="711"/>
      <point x="425.6" y="625.2" type="qcurve" smooth="yes"/>
      <point x="420" y="606"/>
      <point x="419.2" y="392.4" type="qcurve"/>
      <point x="299.6" y="392.4" type="line"/>
      <point x="299.6" y="622.8" type="line" smooth="yes"/>
      <point x="300" y="716"/>
      <point x="444.4" y="852.4" type="qcurve"/>
      <point x="636.759" y="1013.95"/>
      <point x="613" y="1182.4" type="qcurve" smooth="yes"/>
      <point x="584" y="1384"/>
      <point x="391.5" y="1411" type="qcurve" smooth="yes"/>
      <point x="274.775" y="1426.66"/>
      <point x="94" y="1312.4" type="qcurve"/>
    </contour>
    <component base="konCONS" yOffset="1305.4"/>
    <component base="konCONS" xOffset="299.5" yOffset="332"/>
    <component base="period" xOffset="101.5" yOffset="-3"/>
  </outline>
</glyph>
<glyph name="at" format="2">
  <advance width="1572" height="1572"/>
  <unicode hex="0040"/>
  <outline>
    <contour>
      <point x="1157.78" y="524.984" type="qcurve" smooth="yes"/>
      <point x="1157.78" y="636.135"/>
      <point x="1103.06" y="701.115" type="qcurve" smooth="yes"/>
      <point x="1048.34" y="767.806"/>
      <point x="956.855" y="767.806" type="qcurve" smooth="yes"/>
      <point x="864.516" y="767.806"/>
      <point x="810.65" y="701.115" type="qcurve" smooth="yes"/>
      <point x="755.075" y="636.99"/>
      <point x="755.075" y="412.98"/>
      <point x="810.65" y="347.145" type="qcurve" smooth="yes"/>
      <point x="864.516" y="281.31"/>
      <point x="956.855" y="281.31" type="qcurve" smooth="yes"/>
      <point x="1047.49" y="281.31"/>
      <point x="1103.06" y="347.145" type="qcurve" smooth="yes"/>
      <point x="1157.78" y="412.98"/>
    </contour>
    <contour>
      <point x="1276.34" y="660.494" type="qcurve" smooth="yes"/>
      <point x="1271.86" y="516"/>
      <point x="1260.38" y="448.891" type="qcurve"/>
      <point x="1238.86" y="361"/>
      <point x="1189.42" y="289.859" type="qcurve" smooth="yes"/>
      <point x="1168.86" y="260"/>
      <point x="1136.83" y="234.285" type="qcurve" smooth="yes"/>
      <point x="1098.86" y="204"/>
      <point x="1067.15" y="186.405" type="qcurve" smooth="yes"/>
      <point x="1011.86" y="157"/>
      <point x="940.611" y="157.335" type="qcurve" smooth="yes"/>
      <point x="802.855" y="157"/>
      <point x="713.181" y="260.79" type="qcurve" smooth="yes"/>
      <point x="622.855" y="364"/>
      <point x="622.55" y="524.984" type="qcurve" smooth="yes"/>
      <point x="622.855" y="686"/>
      <point x="713.181" y="789.181" type="qcurve" smooth="yes"/>
      <point x="801.855" y="892"/>
      <point x="940.611" y="892.635" type="qcurve" smooth="yes"/>
      <point x="1018.86" y="893"/>
      <point x="1080.86" y="856" type="qcurve" smooth="yes"/>
      <point x="1152.86" y="812"/>
      <point x="1166.86" y="789" type="qcurve"/>
      <point x="1169.86" y="944"/>
      <point x="1079.12" y="1049.1" type="qcurve" smooth="yes"/>
      <point x="1009.86" y="1130"/>
      <point x="879.905" y="1130.33" type="qcurve" smooth="yes"/>
      <point x="668.855" y="1130"/>
      <point x="545.6" y="966.165" type="qcurve" smooth="yes"/>
      <point x="420.855" y="802"/>
      <point x="420.771" y="523.275" type="qcurve" smooth="yes"/>
      <point x="420.855" y="242"/>
      <point x="561.846" y="75.2559" type="qcurve" smooth="yes"/>
      <point x="704.855" y="-94"/>
      <point x="937.19" y="-91.4697" type="qcurve" smooth="yes"/>
      <point x="985.855" y="-91"/>
      <point x="1029.53" y="-82.9199" type="qcurve" smooth="yes"/>
      <point x="1077.86" y="-74"/>
      <point x="1124.44" y="-56.415" type="qcurve"/>
      <point x="1165.47" y="-171.84" type="line"/>
      <point x="1112.86" y="-193"/>
      <point x="1058.6" y="-203.475" type="qcurve" smooth="yes"/>
      <point x="1006.86" y="-214"/>
      <point x="956.855" y="-213.734" type="qcurve" smooth="yes"/>
      <point x="651.855" y="-214"/>
      <point x="472.07" y="-14.5195" type="qcurve" smooth="yes"/>
      <point x="293.855" y="185"/>
      <point x="293.375" y="523.275" type="qcurve" smooth="yes"/>
      <point x="293.855" y="856"/>
      <point x="454.115" y="1054.23" type="qcurve" smooth="yes"/>
      <point x="613.855" y="1252"/>
      <point x="885.036" y="1251.73" type="qcurve" smooth="yes"/>
      <point x="1064.86" y="1252"/>
      <point x="1170.61" y="1138.02" type="qcurve" smooth="yes"/>
      <point x="1276.86" y="1024"/>
      <point x="1277.48" y="832.785" type="qcurve" smooth="yes"/>
      <point x="1277.86" y="720"/>
    </contour>
    <component base="konCONS" xOffset="1085.47" yOffset="-173.84"/>
  </outline>
</glyph>
<glyph name="A" format="2">
  <advance width="659" height="659"/>
  <unicode hex="0041"/>
  <outline>
    <contour>
      <point x="277" y="2426" type="line"/>
      <point x="381" y="2426" type="line"/>
      <point x="624" y="2090" type="line"/>
      <point x="520" y="2030" type="line"/>
      <point x="329" y="2301" type="line"/>
      <point x="124" y="2020" type="line"/>
      <point x="20" y="2080" type="line"/>
    </contour>
    <contour>
      <point x="329" y="2412" type="move"/>
      <point x="329" y="2372" type="line"/>
      <point x="309" y="2392" type="line"/>
      <point x="349" y="2392" type="line"/>
    </contour>
    <contour>
      <point x="358" y="2452"/>
      <point x="373" y="2436" type="qcurve" smooth="yes"/>
      <point x="389" y="2419"/>
      <point x="389" y="2392" type="qcurve" smooth="yes"/>
      <point x="389" y="2361"/>
      <point x="359" y="2332"/>
      <point x="299" y="2332"/>
      <point x="269" y="2361"/>
      <point x="269" y="2392" type="qcurve" smooth="yes"/>
      <point x="269" y="2416"/>
      <point x="286" y="2435" type="qcurve" smooth="yes"/>
      <point x="301" y="2452"/>
    </contour>
    <contour>
      <point x="561.87" y="2077.16" type="move"/>
      <point x="581.87" y="2042.52" type="line"/>
      <point x="554.55" y="2049.84" type="line"/>
      <point x="589.191" y="2069.84" type="line"/>
    </contour>
    <contour>
      <point x="566.985" y="2126.3"/>
      <point x="587.976" y="2119.95" type="qcurve" smooth="yes"/>
      <point x="610.332" y="2113.22"/>
      <point x="623.832" y="2089.84" type="qcurve" smooth="yes"/>
      <point x="639.332" y="2063"/>
      <point x="627.852" y="2022.88"/>
      <point x="575.89" y="1992.88"/>
      <point x="535.409" y="2003"/>
      <point x="519.909" y="2029.84" type="qcurve" smooth="yes"/>
      <point x="507.909" y="2050.63"/>
      <point x="513.132" y="2075.58" type="qcurve" smooth="yes"/>
      <point x="517.622" y="2097.8"/>
    </contour>
    <contour>
      <point x="82.1289" y="2067.16" type="move"/>
      <point x="62.1289" y="2032.52" type="line"/>
      <point x="54.8086" y="2059.84" type="line"/>
      <point x="89.4492" y="2039.84" type="line"/>
    </contour>
    <contour>
      <point x="127.244" y="2087.3"/>
      <point x="132.234" y="2065.95" type="qcurve" smooth="yes"/>
      <point x="137.591" y="2043.22"/>
      <point x="124.091" y="2019.84" type="qcurve" smooth="yes"/>
      <point x="108.591" y="1993"/>
      <point x="68.1094" y="1982.88"/>
      <point x="16.1484" y="2012.88"/>
      <point x="4.66797" y="2053"/>
      <point x="20.168" y="2079.84" type="qcurve" smooth="yes"/>
      <point x="32.168" y="2100.63"/>
      <point x="56.3896" y="2108.58" type="qcurve" smooth="yes"/>
      <point x="77.8809" y="2115.8"/>
    </contour>
    <contour>
      <point x="573.593" y="620.372" type="qcurve"/>
      <point x="233.593" y="31.4746" type="line"/>
      <point x="181.631" y="61.4746"/>
      <point x="129.67" y="91.4746" type="qcurve"/>
      <point x="469.67" y="680.372" type="line"/>
      <point x="521.631" y="650.372"/>
    </contour>
    <contour>
      <point x="129.67" y="91.4746" type="move"/>
    </contour>
    <contour>
      <point x="191.631" y="78.7949" type="move"/>
      <point x="171.631" y="44.1543" type="line"/>
      <point x="164.311" y="71.4746" type="line"/>
      <point x="198.952" y="51.4746" type="line"/>
    </contour>
    <contour>
      <point x="236.746" y="98.9365"/>
      <point x="241.736" y="77.5801" type="qcurve" smooth="yes"/>
      <point x="247.093" y="54.8574"/>
      <point x="233.593" y="31.4746" type="qcurve" smooth="yes"/>
      <point x="218.093" y="4.62793"/>
      <point x="177.612" y="-5.48633"/>
      <point x="125.65" y="24.5137"/>
      <point x="114.17" y="64.6279"/>
      <point x="129.67" y="91.4746" type="qcurve" smooth="yes"/>
      <point x="141.67" y="112.26"/>
      <point x="165.893" y="120.214" type="qcurve" smooth="yes"/>
      <point x="187.383" y="127.437"/>
    </contour>
    <contour>
      <point x="531.631" y="667.692" type="move"/>
      <point x="511.631" y="633.052" type="line"/>
      <point x="504.311" y="660.372" type="line"/>
      <point x="538.952" y="640.372" type="line"/>
    </contour>
    <contour>
      <point x="576.746" y="687.833"/>
      <point x="581.736" y="666.477" type="qcurve" smooth="yes"/>
      <point x="587.093" y="643.755"/>
      <point x="573.593" y="620.372" type="qcurve" smooth="yes"/>
      <point x="558.093" y="593.525"/>
      <point x="517.612" y="583.41"/>
      <point x="465.65" y="613.41"/>
      <point x="454.17" y="653.525"/>
      <point x="469.67" y="680.372" type="qcurve" smooth="yes"/>
      <point x="481.67" y="701.156"/>
      <point x="505.893" y="709.111" type="qcurve" smooth="yes"/>
      <point x="527.383" y="716.333"/>
    </contour>
  </outline>
</glyph>
<glyph name="bracketleft" format="2">
  <advance width="484" height="484"/>
  <unicode hex="005B"/>
  <outline>
    <contour>
      <point x="0" y="3250" type="line"/>
      <point x="425" y="3250" type="line"/>
      <point x="425" y="3130" type="line"/>
      <point x="120" y="3130" type="line"/>
      <point x="120" y="-880" type="line"/>
      <point x="424" y="-880" type="line"/>
      <point x="424" y="-1000" type="line"/>
      <point x="0" y="-1000" type="line"/>
    </contour>
    <component base="konCONS" xOffset="365" yOffset="3130"/>
    <component base="konCONS" xOffset="364" yOffset="-1000"/>
  </outline>
</glyph>
<glyph name="backslash" format="2">
  <advance width="2249" height="2249"/>
  <unicode hex="005C"/>
  <outline>
    <contour>
      <point x="113.794" y="2772.28" type="line"/>
      <point x="2238.79" y="-908.324" type="line"/>
      <point x="2134.87" y="-968.324" type="line"/>
      <point x="9.87109" y="2712.28" type="line"/>
    </contour>
    <component base="konCONS" xScale="0.866025" yScale="0.866025" xyScale="0.5" yxScale="-0.5" xOffset="39.8707" yOffset="2660.32"/>
    <component base="konCONS" xScale="0.866025" yScale="0.866025" xyScale="0.5" yxScale="-0.5" xOffset="2164.87" yOffset="-1020.29"/>
  </outline>
</glyph>
<glyph name="underscore" format="2">
  <advance width="1353" height="1353"/>
  <unicode hex="005F"/>
  <outline>
    <contour>
      <point x="1293" y="120" type="line"/>
      <point x="1293" y="0" type="line"/>
      <point x="60" y="0" type="line"/>
      <point x="60" y="120" type="line"/>
    </contour>
    <component base="konCONS"/>
    <component base="konCONS" xOffset="1233"/>
  </outline>
</glyph>
<glyph name="grave" format="2">
  <advance width="1233" height="1233"/>
  <unicode hex="0060"/>
  <outline>
    <contour>
      <point x="99" y="2101" type="line"/>
      <point x="565" y="1691" type="line"/>
      <point x="477" y="1602" type="line"/>
      <point x="21" y="2003" type="line"/>
    </contour>
    <component base="konCONS" xOffset="461" yOffset="1587"/>
    <component base="konCONS" yOffset="1992"/>
  </outline>
</glyph>
<glyph name="a" format="2">
  <advance width="540" height="540"/>
  <unicode hex="0061"/>
  <outline>
    <contour>
      <point x="454.593" y="621.372" type="qcurve"/>
      <point x="114.593" y="32.4746" type="line"/>
      <point x="62.6309" y="62.4746"/>
      <point x="10.6699" y="92.4746" type="qcurve"/>
      <point x="350.67" y="681.372" type="line"/>
      <point x="402.631" y="651.372"/>
    </contour>
    <contour>
      <point x="10.6699" y="92.4746" type="move"/>
    </contour>
    <contour>
      <point x="72.6309" y="79.7949" type="move"/>
      <point x="52.6309" y="45.1543" type="line"/>
      <point x="45.3105" y="72.4746" type="line"/>
      <point x="79.9521" y="52.4746" type="line"/>
    </contour>
    <contour>
      <point x="117.746" y="99.9365"/>
      <point x="122.736" y="78.5801" type="qcurve" smooth="yes"/>
      <point x="128.093" y="55.8574"/>
      <point x="114.593" y="32.4746" type="qcurve" smooth="yes"/>
      <point x="99.0928" y="5.62793"/>
      <point x="58.6123" y="-4.48633"/>
      <point x="6.65039" y="25.5137"/>
      <point x="-4.83008" y="65.6279"/>
      <point x="10.6699" y="92.4746" type="qcurve" smooth="yes"/>
      <point x="22.6699" y="113.26"/>
      <point x="46.8926" y="121.214" type="qcurve" smooth="yes"/>
      <point x="68.3828" y="128.437"/>
    </contour>
    <contour>
      <point x="412.631" y="668.692" type="move"/>
      <point x="392.631" y="634.052" type="line"/>
      <point x="385.311" y="661.372" type="line"/>
      <point x="419.952" y="641.372" type="line"/>
    </contour>
    <contour>
      <point x="457.746" y="688.833"/>
      <point x="462.736" y="667.477" type="qcurve" smooth="yes"/>
      <point x="468.093" y="644.755"/>
      <point x="454.593" y="621.372" type="qcurve" smooth="yes"/>
      <point x="439.093" y="594.525"/>
      <point x="398.612" y="584.41"/>
      <point x="346.65" y="614.41"/>
      <point x="335.17" y="654.525"/>
      <point x="350.67" y="681.372" type="qcurve" smooth="yes"/>
      <point x="362.67" y="702.156"/>
      <point x="386.893" y="710.111" type="qcurve" smooth="yes"/>
      <point x="408.383" y="717.333"/>
    </contour>
  </outline>
</glyph>
<glyph name="b" format="2">
  <advance width="354" height="354"/>
  <unicode hex="0062"/>
  <outline>
    <contour>
      <point x="120" y="999" type="qcurve"/>
      <point x="167" y="1047"/>
      <point x="214" y="1095" type="qcurve" smooth="yes"/>
      <point x="332" y="1213"/>
      <point x="329" y="1273" type="qcurve" smooth="yes"/>
      <point x="323" y="1384"/>
      <point x="234" y="1390" type="qcurve" smooth="yes"/>
      <point x="120" y="1397"/>
      <point x="120" y="1222" type="qcurve" smooth="yes"/>
      <point x="120" y="1106"/>
    </contour>
    <contour>
      <point x="117.991" y="836" type="qcurve"/>
      <point x="117.991" y="836"/>
      <point x="0" y="855" type="qcurve"/>
      <point x="0" y="1225" type="line" smooth="yes"/>
      <point x="0" y="1512"/>
      <point x="231" y="1510" type="qcurve" smooth="yes"/>
      <point x="336" y="1509"/>
      <point x="398" y="1421" type="qcurve" smooth="yes"/>
      <point x="500" y="1274"/>
      <point x="395" y="1118" type="qcurve" smooth="yes"/>
      <point x="373" y="1085"/>
      <point x="308" y="1019" type="qcurve" smooth="yes"/>
      <point x="240" y="950"/>
    </contour>
    <contour>
      <point x="60" y="876" type="move"/>
      <point x="60" y="836" type="line"/>
      <point x="40" y="856" type="line"/>
      <point x="80" y="856" type="line"/>
    </contour>
    <contour>
      <point x="87" y="916"/>
      <point x="103" y="900" type="qcurve" smooth="yes"/>
      <point x="120" y="883"/>
      <point x="120" y="856" type="qcurve" smooth="yes"/>
      <point x="120" y="826"/>
      <point x="102.966" y="810" type="qcurve" smooth="yes"/>
      <point x="88" y="796"/>
      <point x="32" y="796"/>
      <point x="17.0342" y="810" type="qcurve" smooth="yes"/>
      <point x="0" y="826"/>
      <point x="0" y="856" type="qcurve" smooth="yes"/>
      <point x="0" y="882"/>
      <point x="18" y="900" type="qcurve" smooth="yes"/>
      <point x="34" y="916"/>
    </contour>
    <contour>
      <point x="60" y="881" type="move"/>
      <point x="60" y="841" type="line"/>
      <point x="40" y="861" type="line"/>
      <point x="80" y="861" type="line"/>
    </contour>
    <contour>
      <point x="87" y="921"/>
      <point x="103" y="905" type="qcurve" smooth="yes"/>
      <point x="120" y="888"/>
      <point x="120" y="861" type="qcurve" smooth="yes"/>
      <point x="120" y="831"/>
      <point x="102.966" y="815" type="qcurve" smooth="yes"/>
      <point x="88" y="801"/>
      <point x="32" y="801"/>
      <point x="17.0342" y="815" type="qcurve" smooth="yes"/>
      <point x="0" y="831"/>
      <point x="0" y="861" type="qcurve" smooth="yes"/>
      <point x="0" y="887"/>
      <point x="18" y="905" type="qcurve" smooth="yes"/>
      <point x="34" y="921"/>
    </contour>
    <component base="stemK"/>
  </outline>
</glyph>
<glyph name="c" format="2">
  <advance width="94" height="94"/>
  <unicode hex="0063"/>
  <outline>
    <contour>
      <point x="260" y="-515" type="qcurve" smooth="yes"/>
      <point x="325" y="-515"/>
      <point x="419" y="-470"/>
      <point x="469" y="-393"/>
      <point x="491" y="-308"/>
      <point x="491" y="-259" type="qcurve" smooth="yes"/>
      <point x="491" y="-204"/>
      <point x="468" y="-113"/>
      <point x="418" y="-34"/>
      <point x="324" y="11"/>
      <point x="260" y="11" type="qcurve" smooth="yes"/>
      <point x="258" y="11" type="line" smooth="yes"/>
      <point x="200" y="11"/>
      <point x="109" y="-39"/>
      <point x="56" y="-119"/>
      <point x="29" y="-210"/>
      <point x="29" y="-255" type="qcurve" smooth="yes"/>
      <point x="29" y="-364"/>
      <point x="145" y="-515"/>
    </contour>
    <contour>
      <point x="333" y="168"/>
      <point x="454" y="113"/>
      <point x="512" y="60" type="qcurve" smooth="yes"/>
      <point x="570" y="6"/>
      <point x="642" y="-157"/>
      <point x="642" y="-353"/>
      <point x="564" y="-529"/>
      <point x="512" y="-570" type="qcurve" smooth="yes"/>
      <point x="445" y="-623"/>
      <point x="331" y="-678"/>
      <point x="255" y="-678" type="qcurve" smooth="yes"/>
      <point x="178" y="-678"/>
      <point x="61" y="-623"/>
      <point x="-1" y="-570" type="qcurve" smooth="yes"/>
      <point x="-57" y="-524"/>
      <point x="-128" y="-355"/>
      <point x="-128" y="-255" type="qcurve" smooth="yes"/>
      <point x="-128" y="-54"/>
      <point x="-1" y="60" type="qcurve" smooth="yes"/>
      <point x="57" y="112"/>
      <point x="177" y="168"/>
    </contour>
  </outline>
</glyph>
<glyph name="d" format="2">
  <advance width="942" height="942"/>
  <unicode hex="0064"/>
  <outline>
    <contour>
      <point x="-769" y="-440" type="qcurve"/>
      <point x="-829" y="-544" type="line"/>
      <point x="-1100" y="-387"/>
      <point x="-1100" y="-26" type="qcurve"/>
      <point x="-980" y="-26" type="line"/>
      <point x="-980" y="-316"/>
    </contour>
    <contour>
      <point x="-782.121" y="-501.937" type="move"/>
      <point x="-816.763" y="-481.937" type="line"/>
      <point x="-789.441" y="-474.616" type="line"/>
      <point x="-809.441" y="-509.257" type="line"/>
    </contour>
    <contour>
      <point x="-760.98" y="-545.319"/>
      <point x="-782.837" y="-551.176" type="qcurve" smooth="yes"/>
      <point x="-806.06" y="-557.398"/>
      <point x="-829.441" y="-543.898" type="qcurve" smooth="yes"/>
      <point x="-855.423" y="-528.898"/>
      <point x="-860.762" y="-506.146" type="qcurve" smooth="yes"/>
      <point x="-865.403" y="-486.186"/>
      <point x="-837.403" y="-437.688"/>
      <point x="-817.796" y="-431.727" type="qcurve" smooth="yes"/>
      <point x="-795.423" y="-424.975"/>
      <point x="-769.441" y="-439.975" type="qcurve" smooth="yes"/>
      <point x="-746.925" y="-452.975"/>
      <point x="-740.337" y="-477.563" type="qcurve" smooth="yes"/>
      <point x="-734.48" y="-499.42"/>
    </contour>
    <contour>
      <point x="-1040" y="-46" type="move"/>
      <point x="-1040" y="-6" type="line"/>
      <point x="-1020" y="-26" type="line"/>
      <point x="-1060" y="-26" type="line"/>
    </contour>
    <contour>
      <point x="-1067" y="-86"/>
      <point x="-1083" y="-70" type="qcurve" smooth="yes"/>
      <point x="-1100" y="-53"/>
      <point x="-1100" y="-26" type="qcurve" smooth="yes"/>
      <point x="-1100" y="4"/>
      <point x="-1082.97" y="20" type="qcurve" smooth="yes"/>
      <point x="-1068" y="34"/>
      <point x="-1012" y="34"/>
      <point x="-997.034" y="20" type="qcurve" smooth="yes"/>
      <point x="-980" y="4"/>
      <point x="-980" y="-26" type="qcurve" smooth="yes"/>
      <point x="-980" y="-52"/>
      <point x="-998" y="-70" type="qcurve" smooth="yes"/>
      <point x="-1014" y="-86"/>
    </contour>
  </outline>
</glyph>
<glyph name="i" format="2">
  <advance width="49" height="49"/>
  <unicode hex="0069"/>
  <outline>
    <contour>
      <point x="123" y="584" type="line"/>
      <point x="123" y="26" type="line"/>
      <point x="-26" y="26" type="line"/>
      <point x="-26" y="584" type="line"/>
    </contour>
  </outline>
</glyph>
<glyph name="j" format="2">
  <advance width="248" height="248"/>
  <unicode hex="006A"/>
  <outline>
    <contour>
      <point x="249" y="155" type="line"/>
      <point x="377" y="58" type="line"/>
      <point x="89" y="-206" type="line"/>
      <point x="89" y="-26" type="line"/>
    </contour>
    <contour>
      <point x="-72" y="154" type="line"/>
      <point x="89" y="154" type="line"/>
      <point x="89" y="-206" type="line"/>
      <point x="-72" y="-360" type="line"/>
    </contour>
  </outline>
</glyph>
<glyph name="l" format="2">
  <advance width="83" height="83"/>
  <unicode hex="006C"/>
  <outline>
    <contour>
      <point x="23" y="397" type="qcurve" smooth="yes"/>
      <point x="83" y="397"/>
      <point x="133" y="350" type="qcurve" smooth="yes"/>
      <point x="190" y="298"/>
      <point x="190" y="214" type="qcurve" smooth="yes"/>
      <point x="190" y="172"/>
      <point x="156" y="96"/>
      <point x="134" y="78" type="qcurve" smooth="yes"/>
      <point x="74" y="31"/>
      <point x="23" y="31" type="qcurve" smooth="yes"/>
      <point x="-32" y="31"/>
      <point x="-88" y="78" type="qcurve" smooth="yes"/>
      <point x="-112" y="98"/>
      <point x="-143" y="171"/>
      <point x="-143" y="214" type="qcurve" smooth="yes"/>
      <point x="-143" y="300"/>
      <point x="-88" y="350" type="qcurve" smooth="yes"/>
      <point x="-36" y="397"/>
    </contour>
  </outline>
</glyph>
<glyph name="o" format="2">
  <advance width="517" height="517"/>
  <unicode hex="006F"/>
  <outline>
    <contour>
      <point x="-44.5869" y="161.278" type="qcurve"/>
      <point x="102.977" y="247.59"/>
      <point x="196.519" y="410.473" type="qcurve"/>
      <point x="314.477" y="613.919"/>
      <point x="316.266" y="782.738" type="qcurve"/>
      <point x="316.266" y="782.738"/>
      <point x="439.747" y="783.087" type="qcurve"/>
      <point x="438.399" y="588.56"/>
      <point x="300.441" y="350.473" type="qcurve"/>
      <point x="188.399" y="155.547"/>
      <point x="17.3516" y="55.0332" type="qcurve"/>
      <point x="-13.3701" y="108.071"/>
    </contour>
    <contour>
      <point x="367.038" y="765.821" type="move"/>
      <point x="387.038" y="800.462" type="line"/>
      <point x="394.358" y="773.142" type="line"/>
      <point x="359.718" y="793.142" type="line"/>
    </contour>
    <contour>
      <point x="323.655" y="744.68"/>
      <point x="317.799" y="766.536" type="qcurve" smooth="yes"/>
      <point x="311.576" y="789.759"/>
      <point x="325.076" y="813.142" type="qcurve" smooth="yes"/>
      <point x="340.076" y="839.122"/>
      <point x="362.828" y="844.462" type="qcurve" smooth="yes"/>
      <point x="382.789" y="849.103"/>
      <point x="431.287" y="821.103"/>
      <point x="437.247" y="801.496" type="qcurve" smooth="yes"/>
      <point x="443.999" y="779.122"/>
      <point x="428.999" y="753.142" type="qcurve" smooth="yes"/>
      <point x="415.999" y="730.625"/>
      <point x="391.411" y="724.036" type="qcurve" smooth="yes"/>
      <point x="369.555" y="718.18"/>
    </contour>
    <contour>
      <point x="-22.9619" y="90.3213" type="move"/>
      <point x="-2.96191" y="124.963" type="line"/>
      <point x="4.3584" y="97.6416" type="line"/>
      <point x="-30.2822" y="117.642" type="line"/>
    </contour>
    <contour>
      <point x="-66.3447" y="69.1807"/>
      <point x="-72.2012" y="91.0371" type="qcurve" smooth="yes"/>
      <point x="-78.4238" y="114.26"/>
      <point x="-64.9238" y="137.642" type="qcurve" smooth="yes"/>
      <point x="-49.9238" y="163.623"/>
      <point x="-27.1719" y="168.962" type="qcurve" smooth="yes"/>
      <point x="-7.21094" y="173.604"/>
      <point x="41.2871" y="145.604"/>
      <point x="47.2471" y="125.996" type="qcurve" smooth="yes"/>
      <point x="53.999" y="103.623"/>
      <point x="38.999" y="77.6416" type="qcurve" smooth="yes"/>
      <point x="25.999" y="55.125"/>
      <point x="1.41113" y="48.5371" type="qcurve" smooth="yes"/>
      <point x="-20.4453" y="42.6807"/>
    </contour>
  </outline>
</glyph>
<glyph name="r" format="2">
  <advance width="59" height="59"/>
  <unicode hex="0072"/>
  <outline>
    <contour>
      <point x="38" y="299" type="line"/>
      <point x="310" y="-88" type="line"/>
      <point x="128" y="-88" type="line"/>
      <point x="-152" y="299" type="line"/>
    </contour>
  </outline>
</glyph>
<glyph name="s" format="2">
  <advance width="-134" height="-134"/>
  <unicode hex="0073"/>
  <outline>
    <contour>
      <point x="-206.644" y="798"/>
      <point x="-85.6436" y="743"/>
      <point x="-27.6436" y="690" type="qcurve" smooth="yes"/>
      <point x="30.3564" y="636"/>
      <point x="102.356" y="473"/>
      <point x="102.356" y="277"/>
      <point x="24.3564" y="101"/>
      <point x="-27.6436" y="60" type="qcurve" smooth="yes"/>
      <point x="-94.6436" y="7"/>
      <point x="-208.644" y="-48"/>
      <point x="-284.644" y="-48" type="qcurve" smooth="yes"/>
      <point x="-361.644" y="-48"/>
      <point x="-478.644" y="7"/>
      <point x="-540.644" y="60" type="qcurve" smooth="yes"/>
      <point x="-596.644" y="106"/>
      <point x="-667.644" y="275"/>
      <point x="-667.644" y="375" type="qcurve" smooth="yes"/>
      <point x="-667.644" y="576"/>
      <point x="-540.644" y="690" type="qcurve" smooth="yes"/>
      <point x="-482.644" y="742"/>
      <point x="-362.644" y="798"/>
    </contour>
    <contour>
      <point x="-279.644" y="141" type="qcurve" smooth="yes"/>
      <point x="-221.644" y="141"/>
      <point x="-136.644" y="181"/>
      <point x="-91.6436" y="251"/>
      <point x="-71.6436" y="328"/>
      <point x="-71.6436" y="372" type="qcurve" smooth="yes"/>
      <point x="-71.6436" y="421"/>
      <point x="-92.6436" y="503"/>
      <point x="-137.644" y="574"/>
      <point x="-221.644" y="615"/>
      <point x="-279.644" y="615" type="qcurve" smooth="yes"/>
      <point x="-280.644" y="615" type="line" smooth="yes"/>
      <point x="-349.644" y="615"/>
      <point x="-447.644" y="536"/>
      <point x="-487.644" y="431"/>
      <point x="-487.644" y="375" type="qcurve" smooth="yes"/>
      <point x="-487.644" y="277"/>
      <point x="-383.644" y="141"/>
    </contour>
  </outline>
</glyph>
<glyph name="z" format="2">
  <advance width="74" height="74"/>
  <unicode hex="007A"/>
  <outline>
    <contour>
      <point x="29" y="122" type="qcurve" smooth="yes"/>
      <point x="92" y="122"/>
      <point x="159" y="235"/>
      <point x="159" y="294" type="qcurve" smooth="yes"/>
      <point x="159" y="359"/>
      <point x="92" y="476"/>
      <point x="29" y="476" type="qcurve" smooth="yes"/>
      <point x="-29" y="476"/>
      <point x="-108" y="357"/>
      <point x="-108" y="303" type="qcurve" smooth="yes"/>
      <point x="-108" y="244"/>
      <point x="-30" y="122"/>
    </contour>
    <contour>
      <point x="26" y="611" type="qcurve" smooth="yes"/>
      <point x="125" y="611"/>
      <point x="210" y="533" type="qcurve" smooth="yes"/>
      <point x="252" y="495"/>
      <point x="305" y="377"/>
      <point x="305" y="306" type="qcurve" smooth="yes"/>
      <point x="305" y="236"/>
      <point x="248" y="109"/>
      <point x="211" y="79" type="qcurve" smooth="yes"/>
      <point x="162" y="40"/>
      <point x="81" y="1"/>
      <point x="-29" y="1"/>
      <point x="-113" y="41"/>
      <point x="-159" y="79" type="qcurve" smooth="yes"/>
      <point x="-199" y="113"/>
      <point x="-250" y="234"/>
      <point x="-250" y="306" type="qcurve" smooth="yes"/>
      <point x="-250" y="450"/>
      <point x="-159" y="533" type="qcurve" smooth="yes"/>
      <point x="-72" y="611"/>
    </contour>
  </outline>
</glyph>
<glyph name="braceleft" format="2">
  <advance width="792" height="792"/>
  <unicode hex="007B"/>
  <outline>
    <contour>
      <point x="732.088" y="-501.005" type="line"/>
      <point x="732.088" y="-621.2" type="line"/>
      <point x="679.557" y="-621.2" type="line" smooth="yes"/>
      <point x="478" y="-621"/>
      <point x="406.23" y="-558.46" type="qcurve" smooth="yes"/>
      <point x="336.463" y="-498.398"/>
      <point x="336.463" y="-316.324" type="qcurve" smooth="yes"/>
      <point x="336.463" y="804.888" type="line" smooth="yes"/>
      <point x="336" y="930"/>
      <point x="292.959" y="976.436" type="qcurve" smooth="yes"/>
      <point x="249.191" y="1021.8"/>
      <point x="124.024" y="1021.8" type="qcurve" smooth="yes"/>
      <point x="60.4121" y="1021.8" type="line"/>
      <point x="60.4121" y="1142.52" type="line"/>
      <point x="124.024" y="1142.52" type="line" smooth="yes"/>
      <point x="244.085" y="1143.01"/>
      <point x="292.959" y="1188.2" type="qcurve" smooth="yes"/>
      <point x="336.463" y="1228.43"/>
      <point x="336.463" y="1358.11" type="qcurve" smooth="yes"/>
      <point x="336.463" y="2567.15" type="line" smooth="yes"/>
      <point x="336" y="2746"/>
      <point x="406.23" y="2808.46" type="qcurve" smooth="yes"/>
      <point x="474.224" y="2869.2"/>
      <point x="679.557" y="2869.2" type="qcurve" smooth="yes"/>
      <point x="732.088" y="2869.2" type="line"/>
      <point x="732.088" y="2748.83" type="line"/>
      <point x="674.631" y="2748.83" type="line" smooth="yes"/>
      <point x="535" y="2749"/>
      <point x="503.425" y="2716.53" type="qcurve" smooth="yes"/>
      <point x="468.951" y="2680.95"/>
      <point x="468.951" y="2563.86" type="qcurve" smooth="yes"/>
      <point x="468.951" y="1348.26" type="line" smooth="yes"/>
      <point x="469" y="1220"/>
      <point x="431.194" y="1161.12" type="qcurve" smooth="yes"/>
      <point x="395" y="1103"/>
      <point x="313.971" y="1082.32" type="qcurve"/>
      <point x="385" y="1060"/>
      <point x="468.951" y="944.067"/>
      <point x="468.951" y="815.559" type="qcurve" smooth="yes"/>
      <point x="468.951" y="-313.041" type="line" smooth="yes"/>
      <point x="469" y="-409"/>
      <point x="524.425" y="-465.711" type="qcurve" smooth="yes"/>
      <point x="560.005" y="-501.005"/>
      <point x="674.631" y="-501.005" type="qcurve" smooth="yes"/>
    </contour>
    <component base="konCONS" yOffset="1022"/>
    <component base="konCONS" xOffset="672.088" yOffset="2748.83"/>
    <component base="konCONS" xOffset="671.5" yOffset="-621"/>
  </outline>
</glyph>
<glyph name="bar" format="2">
  <advance width="120" height="120"/>
  <unicode hex="007C"/>
  <outline>
    <contour>
      <point x="120" y="3250" type="line"/>
      <point x="120" y="-1000" type="line"/>
      <point x="0" y="-1000" type="line"/>
      <point x="0" y="3250" type="line"/>
    </contour>
    <component base="konCONS" yOffset="3190"/>
    <component base="konCONS" yOffset="-1060"/>
  </outline>
</glyph>
<glyph name="cent" format="2">
  <advance width="1233" height="1233"/>
  <unicode hex="00A2"/>
  <outline>
    <contour>
      <point x="1061" y="1077" type="qcurve"/>
      <point x="1061" y="905" type="line"/>
      <point x="997" y="943"/>
      <point x="929" y="967" type="qcurve" smooth="yes"/>
      <point x="868" y="988"/>
      <point x="801" y="993" type="qcurve"/>
      <point x="801" y="123" type="line"/>
      <point x="858" y="127"/>
      <point x="930" y="150" type="qcurve" smooth="yes"/>
      <point x="1002" y="177"/>
      <point x="1061" y="213" type="qcurve"/>
      <point x="1061" y="41" type="line"/>
      <point x="988" y="10"/>
      <point x="923" y="-7" type="qcurve" smooth="yes"/>
      <point x="856" y="-24"/>
      <point x="801" y="-27" type="qcurve"/>
      <point x="801" y="-313" type="line"/>
      <point x="698" y="-313" type="line"/>
      <point x="698" y="-27" type="line"/>
      <point x="473" y="-4"/>
      <point x="343" y="152" type="qcurve" smooth="yes"/>
      <point x="213" y="307"/>
      <point x="213" y="559" type="qcurve" smooth="yes"/>
      <point x="213" y="808"/>
      <point x="344" y="968" type="qcurve" smooth="yes"/>
      <point x="476" y="1126"/>
      <point x="698" y="1145" type="qcurve"/>
      <point x="698" y="1432" type="line"/>
      <point x="801" y="1432" type="line"/>
      <point x="801" y="1145" type="line"/>
      <point x="856" y="1142"/>
      <point x="923" y="1125" type="qcurve" smooth="yes"/>
      <point x="988" y="1108"/>
    </contour>
    <contour>
      <point x="698" y="127" type="qcurve"/>
      <point x="698" y="991" type="line"/>
      <point x="565" y="979"/>
      <point x="486" y="861" type="qcurve" smooth="yes"/>
      <point x="406" y="742"/>
      <point x="406" y="376"/>
      <point x="486" y="258" type="qcurve" smooth="yes"/>
      <point x="565" y="141"/>
    </contour>
  </outline>
</glyph>
<glyph name="sterling" format="2">
  <advance width="1233" height="1233"/>
  <unicode hex="00A3"/>
  <outline>
    <contour>
      <point x="1092" y="1462" type="qcurve"/>
      <point x="1092" y="1278" type="line"/>
      <point x="1030" y="1322"/>
      <point x="966" y="1344" type="qcurve" smooth="yes"/>
      <point x="904" y="1366"/>
      <point x="836" y="1366" type="qcurve" smooth="yes"/>
      <point x="702" y="1366"/>
      <point x="638" y="1276" type="qcurve" smooth="yes"/>
      <point x="575" y="1188"/>
      <point x="575" y="995" type="qcurve" smooth="yes"/>
      <point x="575" y="778" type="line"/>
      <point x="946" y="778" type="line"/>
      <point x="946" y="635" type="line"/>
      <point x="575" y="635" type="line"/>
      <point x="575" y="170" type="line"/>
      <point x="1112" y="170" type="line"/>
      <point x="1112" y="0" type="line"/>
      <point x="139" y="0" type="line"/>
      <point x="139" y="170" type="line"/>
      <point x="375" y="170" type="line"/>
      <point x="375" y="635" type="line"/>
      <point x="176" y="635" type="line"/>
      <point x="176" y="778" type="line"/>
      <point x="375" y="778" type="line"/>
      <point x="375" y="1016" type="line" smooth="yes"/>
      <point x="375" y="1269"/>
      <point x="484" y="1395" type="qcurve" smooth="yes"/>
      <point x="595" y="1520"/>
      <point x="817" y="1520" type="qcurve" smooth="yes"/>
      <point x="880" y="1520"/>
      <point x="950" y="1506" type="qcurve" smooth="yes"/>
      <point x="1015" y="1492"/>
    </contour>
  </outline>
</glyph>
<glyph name="currency" format="2">
  <advance width="1233" height="1233"/>
  <unicode hex="00A4"/>
  <outline>
    <contour>
      <point x="868" y="643" type="qcurve" smooth="yes"/>
      <point x="868" y="734"/>
      <point x="806" y="794" type="qcurve" smooth="yes"/>
      <point x="745" y="856"/>
      <point x="653" y="856" type="qcurve" smooth="yes"/>
      <point x="562" y="856"/>
      <point x="500" y="794" type="qcurve" smooth="yes"/>
      <point x="438" y="734"/>
      <point x="438" y="552"/>
      <point x="500" y="488" type="qcurve" smooth="yes"/>
      <point x="564" y="426"/>
      <point x="653" y="426" type="qcurve" smooth="yes"/>
      <point x="744" y="426"/>
      <point x="806" y="489" type="qcurve" smooth="yes"/>
      <point x="868" y="553"/>
    </contour>
    <contour>
      <point x="844" y="924" type="qcurve"/>
      <point x="1010" y="1090" type="line"/>
      <point x="1100" y="997" type="line"/>
      <point x="934" y="831" type="line"/>
      <point x="965" y="780"/>
      <point x="978" y="736" type="qcurve" smooth="yes"/>
      <point x="993" y="688"/>
      <point x="993" y="641" type="qcurve" smooth="yes"/>
      <point x="993" y="591"/>
      <point x="978" y="546" type="qcurve" smooth="yes"/>
      <point x="963" y="499"/>
      <point x="932" y="455" type="qcurve"/>
      <point x="1100" y="289" type="line"/>
      <point x="1006" y="195" type="line"/>
      <point x="840" y="362" type="line"/>
      <point x="794" y="331"/>
      <point x="748" y="316" type="qcurve" smooth="yes"/>
      <point x="703" y="301"/>
      <point x="653" y="301" type="qcurve" smooth="yes"/>
      <point x="605" y="301"/>
      <point x="557" y="316" type="qcurve" smooth="yes"/>
      <point x="509" y="330"/>
      <point x="461" y="358" type="qcurve"/>
      <point x="297" y="195" type="line"/>
      <point x="205" y="285" type="line"/>
      <point x="371" y="451" type="line"/>
      <point x="340" y="501"/>
      <point x="326" y="548" type="qcurve" smooth="yes"/>
      <point x="311" y="596"/>
      <point x="311" y="641" type="qcurve" smooth="yes"/>
      <point x="311" y="690"/>
      <point x="326" y="738" type="qcurve" smooth="yes"/>
      <point x="344" y="788"/>
      <point x="373" y="829" type="qcurve"/>
      <point x="205" y="995" type="line"/>
      <point x="299" y="1090" type="line"/>
      <point x="465" y="922" type="line"/>
      <point x="511" y="953"/>
      <point x="556" y="968" type="qcurve" smooth="yes"/>
      <point x="603" y="983"/>
      <point x="653" y="983" type="qcurve" smooth="yes"/>
      <point x="700" y="983"/>
      <point x="746" y="968" type="qcurve" smooth="yes"/>
      <point x="792" y="955"/>
    </contour>
  </outline>
</glyph>
<glyph name="section" format="2">
  <advance width="1233" height="1233"/>
  <unicode hex="00A7"/>
  <outline>
    <contour>
      <point x="936" y="1462" type="qcurve"/>
      <point x="936" y="1298" type="line"/>
      <point x="850" y="1339"/>
      <point x="782" y="1356" type="qcurve" smooth="yes"/>
      <point x="713" y="1376"/>
      <point x="653" y="1376" type="qcurve" smooth="yes"/>
      <point x="555" y="1376"/>
      <point x="502" y="1336" type="qcurve" smooth="yes"/>
      <point x="449" y="1295"/>
      <point x="449" y="1225" type="qcurve" smooth="yes"/>
      <point x="449" y="1135"/>
      <point x="654" y="1020" type="qcurve" smooth="yes"/>
      <point x="678" y="1006"/>
      <point x="694" y="997" type="qcurve" smooth="yes"/>
      <point x="906" y="878"/>
      <point x="1036" y="724"/>
      <point x="1036" y="623" type="qcurve" smooth="yes"/>
      <point x="1036" y="533"/>
      <point x="990" y="463" type="qcurve" smooth="yes"/>
      <point x="945" y="392"/>
      <point x="852" y="340" type="qcurve"/>
      <point x="914" y="287"/>
      <point x="942" y="234" type="qcurve" smooth="yes"/>
      <point x="971" y="178"/>
      <point x="971" y="115" type="qcurve" smooth="yes"/>
      <point x="971" y="-27"/>
      <point x="767" y="-195"/>
      <point x="594" y="-195" type="qcurve" smooth="yes"/>
      <point x="520" y="-195"/>
      <point x="444" y="-180" type="qcurve" smooth="yes"/>
      <point x="372" y="-168"/>
      <point x="279" y="-137" type="qcurve"/>
      <point x="279" y="27" type="line"/>
      <point x="359" y="-9"/>
      <point x="440" y="-32" type="qcurve" smooth="yes"/>
      <point x="518" y="-51"/>
      <point x="571" y="-51" type="qcurve" smooth="yes"/>
      <point x="673" y="-51"/>
      <point x="730" y="-9" type="qcurve" smooth="yes"/>
      <point x="786" y="33"/>
      <point x="786" y="109" type="qcurve" smooth="yes"/>
      <point x="786" y="211"/>
      <point x="565" y="334" type="qcurve"/>
      <point x="541" y="348" type="line"/>
      <point x="330" y="466"/>
      <point x="263" y="544" type="qcurve" smooth="yes"/>
      <point x="199" y="621"/>
      <point x="199" y="723" type="qcurve" smooth="yes"/>
      <point x="199" y="816"/>
      <point x="246" y="886" type="qcurve" smooth="yes"/>
      <point x="291" y="956"/>
      <point x="383" y="1006" type="qcurve"/>
      <point x="323" y="1049"/>
      <point x="294" y="1106" type="qcurve" smooth="yes"/>
      <point x="264" y="1162"/>
      <point x="264" y="1231" type="qcurve" smooth="yes"/>
      <point x="264" y="1362"/>
      <point x="364" y="1440" type="qcurve" smooth="yes"/>
      <point x="463" y="1520"/>
      <point x="631" y="1520" type="qcurve" smooth="yes"/>
      <point x="699" y="1520"/>
      <point x="780" y="1506" type="qcurve" smooth="yes"/>
      <point x="855" y="1491"/>
    </contour>
    <contour>
      <point x="485" y="936" type="qcurve"/>
      <point x="424" y="891"/>
      <point x="392" y="846" type="qcurve" smooth="yes"/>
      <point x="362" y="801"/>
      <point x="362" y="754" type="qcurve" smooth="yes"/>
      <point x="362" y="680"/>
      <point x="432" y="610" type="qcurve"/>
      <point x="507" y="541"/>
      <point x="750" y="410" type="qcurve"/>
      <point x="812" y="456"/>
      <point x="842" y="500" type="qcurve" smooth="yes"/>
      <point x="872" y="545"/>
      <point x="872" y="592" type="qcurve" smooth="yes"/>
      <point x="872" y="668"/>
      <point x="800" y="736" type="qcurve" smooth="yes"/>
      <point x="728" y="805"/>
    </contour>
  </outline>
</glyph>
<glyph name="copyright" format="2">
  <advance width="1233" height="1233"/>
  <unicode hex="00A9"/>
  <outline>
    <contour>
      <point x="722.714" y="433.668" type="qcurve"/>
      <point x="654" y="418"/>
      <point x="590" y="469.74" type="qcurve" smooth="yes"/>
      <point x="529" y="520"/>
      <point x="529.5" y="638.24" type="qcurve" smooth="yes"/>
      <point x="530" y="757"/>
      <point x="591" y="827.74" type="qcurve" smooth="yes"/>
      <point x="643" y="889"/>
      <point x="743.256" y="888.956" type="qcurve" smooth="yes"/>
      <point x="869" y="889"/>
      <point x="896.461" y="849.121" type="qcurve" smooth="yes"/>
      <point x="953" y="771"/>
      <point x="966.18" y="671.281" type="qcurve" smooth="yes"/>
      <point x="981" y="563"/>
      <point x="973.766" y="442.74" type="qcurve" smooth="yes"/>
      <point x="951" y="77"/>
      <point x="673.306" y="65.9404" type="qcurve" smooth="yes"/>
      <point x="469" y="58"/>
      <point x="339" y="230.101" type="qcurve" smooth="yes"/>
      <point x="214" y="395"/>
      <point x="214.171" y="672.99" type="qcurve" smooth="yes"/>
      <point x="214" y="953"/>
      <point x="355.246" y="1121.01" type="qcurve" smooth="yes"/>
      <point x="494" y="1286"/>
      <point x="730.591" y="1287.74" type="qcurve" smooth="yes"/>
      <point x="773" y="1288"/>
      <point x="822.931" y="1279.19" type="qcurve" smooth="yes"/>
      <point x="871" y="1271"/>
      <point x="917.836" y="1252.68" type="qcurve"/>
      <point x="958.875" y="1368.11" type="line"/>
      <point x="913" y="1387"/>
      <point x="852" y="1399.74" type="qcurve" smooth="yes"/>
      <point x="800" y="1411"/>
      <point x="750.256" y="1410" type="qcurve" smooth="yes"/>
      <point x="440" y="1406"/>
      <point x="265.471" y="1210.79" type="qcurve" smooth="yes"/>
      <point x="87" y="1012"/>
      <point x="86.7754" y="672.99" type="qcurve" smooth="yes"/>
      <point x="87" y="341"/>
      <point x="247.516" y="142.035" type="qcurve" smooth="yes"/>
      <point x="399" y="-46"/>
      <point x="674" y="-46.2598" type="qcurve" smooth="yes"/>
      <point x="846" y="-46"/>
      <point x="952" y="67.7402" type="qcurve" smooth="yes"/>
      <point x="1061" y="186"/>
      <point x="1070.88" y="363.48" type="qcurve" smooth="yes"/>
      <point x="1090" y="696"/>
      <point x="1002" y="872" type="qcurve" smooth="yes"/>
      <point x="967" y="943"/>
      <point x="866" y="987" type="qcurve" smooth="yes"/>
      <point x="807" y="1013"/>
      <point x="727.012" y="1009.93" type="qcurve" smooth="yes"/>
      <point x="567" y="1005"/>
      <point x="499.581" y="909.476" type="qcurve" smooth="yes"/>
      <point x="415" y="790"/>
      <point x="413" y="633.24" type="qcurve" smooth="yes"/>
      <point x="411" y="481"/>
      <point x="495" y="384.74" type="qcurve" smooth="yes"/>
      <point x="603" y="261"/>
      <point x="765.641" y="320.825" type="qcurve"/>
      <point x="747" y="370"/>
    </contour>
    <component base="konCONS" yScale="-1" xOffset="876" yOffset="1370.74"/>
    <component base="konCONS" xScale="0.939693" yScale="-0.939693" xyScale="0.34202" yxScale="0.34202" xOffset="667.035" yOffset="413.025"/>
  </outline>
</glyph>
<glyph name="ordfeminine" format="2">
  <advance width="1233" height="1233"/>
  <unicode hex="00AA"/>
  <outline>
    <contour>
      <point x="684" y="1104" type="line" smooth="yes"/>
      <point x="539" y="1104"/>
      <point x="478" y="1070" type="qcurve" smooth="yes"/>
      <point x="416" y="1035"/>
      <point x="416" y="958" type="qcurve" smooth="yes"/>
      <point x="416" y="893"/>
      <point x="460" y="856" type="qcurve" smooth="yes"/>
      <point x="502" y="817"/>
      <point x="575" y="817" type="qcurve" smooth="yes"/>
      <point x="680" y="817"/>
      <point x="746" y="888" type="qcurve" smooth="yes"/>
      <point x="811" y="961"/>
      <point x="811" y="1075" type="qcurve" smooth="yes"/>
      <point x="811" y="1104" type="line"/>
    </contour>
    <contour>
      <point x="954" y="1165" type="qcurve" smooth="yes"/>
      <point x="954" y="717" type="line"/>
      <point x="811" y="717" type="line"/>
      <point x="811" y="829" type="line"/>
      <point x="761" y="763"/>
      <point x="696" y="731" type="qcurve" smooth="yes"/>
      <point x="632" y="698"/>
      <point x="549" y="698" type="qcurve" smooth="yes"/>
      <point x="421" y="698"/>
      <point x="345" y="766" type="qcurve" smooth="yes"/>
      <point x="270" y="834"/>
      <point x="270" y="950" type="qcurve" smooth="yes"/>
      <point x="270" y="1079"/>
      <point x="364" y="1149" type="qcurve" smooth="yes"/>
      <point x="456" y="1219"/>
      <point x="629" y="1219" type="qcurve" smooth="yes"/>
      <point x="811" y="1219" type="line"/>
      <point x="811" y="1223" type="line" smooth="yes"/>
      <point x="811" y="1312"/>
      <point x="752" y="1359" type="qcurve" smooth="yes"/>
      <point x="693" y="1405"/>
      <point x="575" y="1405" type="qcurve" smooth="yes"/>
      <point x="525" y="1405"/>
      <point x="462" y="1388" type="qcurve" smooth="yes"/>
      <point x="400" y="1370"/>
      <point x="332" y="1337" type="qcurve"/>
      <point x="332" y="1464" type="line"/>
      <point x="400" y="1493"/>
      <point x="468" y="1506" type="qcurve" smooth="yes"/>
      <point x="536" y="1520"/>
      <point x="598" y="1520" type="qcurve" smooth="yes"/>
      <point x="782" y="1520"/>
      <point x="954" y="1348"/>
    </contour>
    <contour>
      <point x="293" y="592" type="line"/>
      <point x="961" y="592" type="line"/>
      <point x="961" y="469" type="line"/>
      <point x="293" y="469" type="line"/>
    </contour>
  </outline>
</glyph>
<glyph name="registered" format="2">
  <advance width="1233" height="1233"/>
  <unicode hex="00AE"/>
  <outline>
    <contour>
      <point x="600" y="1100" type="line" smooth="yes"/>
      <point x="748" y="1100"/>
      <point x="819" y="1051" type="qcurve" smooth="yes"/>
      <point x="891" y="1002"/>
      <point x="891" y="901" type="qcurve" smooth="yes"/>
      <point x="891" y="830"/>
      <point x="847" y="784" type="qcurve" smooth="yes"/>
      <point x="804" y="737"/>
      <point x="723" y="723" type="qcurve"/>
      <point x="742" y="718"/>
      <point x="771" y="684" type="qcurve" smooth="yes"/>
      <point x="802" y="648"/>
      <point x="838" y="592" type="qcurve" smooth="yes"/>
      <point x="952" y="406" type="line"/>
      <point x="809" y="406" type="line"/>
      <point x="702" y="580" type="line" smooth="yes"/>
      <point x="651" y="661"/>
      <point x="622" y="681" type="qcurve" smooth="yes"/>
      <point x="592" y="702"/>
      <point x="547" y="702" type="qcurve" smooth="yes"/>
      <point x="492" y="702" type="line"/>
      <point x="492" y="406" type="line"/>
      <point x="362" y="406" type="line"/>
      <point x="362" y="1100" type="line"/>
    </contour>
    <contour>
      <point x="594" y="1016" type="qcurve" smooth="yes"/>
      <point x="492" y="1016" type="line"/>
      <point x="492" y="784" type="line"/>
      <point x="594" y="784" type="line" smooth="yes"/>
      <point x="684" y="784"/>
      <point x="758" y="838"/>
      <point x="758" y="901" type="qcurve" smooth="yes"/>
      <point x="758" y="963"/>
      <point x="721" y="990" type="qcurve" smooth="yes"/>
      <point x="683" y="1016"/>
    </contour>
    <contour>
      <point x="616" y="1358" type="qcurve" smooth="yes"/>
      <point x="742" y="1358"/>
      <point x="852" y="1313" type="qcurve" smooth="yes"/>
      <point x="961" y="1268"/>
      <point x="1051" y="1178" type="qcurve" smooth="yes"/>
      <point x="1140" y="1087"/>
      <point x="1187" y="977" type="qcurve" smooth="yes"/>
      <point x="1233" y="869"/>
      <point x="1233" y="741" type="qcurve" smooth="yes"/>
      <point x="1233" y="616"/>
      <point x="1188" y="507" type="qcurve" smooth="yes"/>
      <point x="1141" y="398"/>
      <point x="1051" y="307" type="qcurve" smooth="yes"/>
      <point x="960" y="217"/>
      <point x="851" y="170" type="qcurve" smooth="yes"/>
      <point x="742" y="125"/>
      <point x="616" y="125" type="qcurve" smooth="yes"/>
      <point x="492" y="125"/>
      <point x="382" y="170" type="qcurve" smooth="yes"/>
      <point x="272" y="217"/>
      <point x="182" y="307" type="qcurve" smooth="yes"/>
      <point x="91" y="398"/>
      <point x="46" y="507" type="qcurve" smooth="yes"/>
      <point x="0" y="615"/>
      <point x="0" y="741" type="qcurve" smooth="yes"/>
      <point x="0" y="869"/>
      <point x="46" y="977" type="qcurve" smooth="yes"/>
      <point x="93" y="1087"/>
      <point x="182" y="1178" type="qcurve" smooth="yes"/>
      <point x="272" y="1268"/>
      <point x="381" y="1313" type="qcurve" smooth="yes"/>
      <point x="491" y="1358"/>
    </contour>
    <contour>
      <point x="616" y="1255" type="qcurve" smooth="yes"/>
      <point x="509" y="1255"/>
      <point x="420" y="1218" type="qcurve" smooth="yes"/>
      <point x="328" y="1180"/>
      <point x="254" y="1106" type="qcurve" smooth="yes"/>
      <point x="179" y="1031"/>
      <point x="140" y="939" type="qcurve" smooth="yes"/>
      <point x="102" y="846"/>
      <point x="102" y="741" type="qcurve" smooth="yes"/>
      <point x="102" y="637"/>
      <point x="178" y="455"/>
      <point x="254" y="379" type="qcurve" smooth="yes"/>
      <point x="331" y="302"/>
      <point x="420" y="265" type="qcurve" smooth="yes"/>
      <point x="513" y="227"/>
      <point x="616" y="227" type="qcurve" smooth="yes"/>
      <point x="721" y="227"/>
      <point x="812" y="265" type="qcurve" smooth="yes"/>
      <point x="902" y="302"/>
      <point x="979" y="379" type="qcurve" smooth="yes"/>
      <point x="1057" y="457"/>
      <point x="1092" y="546" type="qcurve" smooth="yes"/>
      <point x="1130" y="634"/>
      <point x="1130" y="741" type="qcurve" smooth="yes"/>
      <point x="1130" y="846"/>
      <point x="1092" y="939" type="qcurve" smooth="yes"/>
      <point x="1054" y="1030"/>
      <point x="979" y="1106" type="qcurve" smooth="yes"/>
      <point x="905" y="1180"/>
      <point x="814" y="1218" type="qcurve" smooth="yes"/>
      <point x="724" y="1255"/>
    </contour>
  </outline>
</glyph>
<glyph name="degree" format="2">
  <advance width="1233" height="1233"/>
  <unicode hex="00B0"/>
  <outline>
    <contour>
      <point x="616" y="1520" type="qcurve" smooth="yes"/>
      <point x="680" y="1520"/>
      <point x="740" y="1496" type="qcurve" smooth="yes"/>
      <point x="801" y="1469"/>
      <point x="842" y="1425" type="qcurve" smooth="yes"/>
      <point x="888" y="1379"/>
      <point x="910" y="1323" type="qcurve" smooth="yes"/>
      <point x="934" y="1266"/>
      <point x="934" y="1200" type="qcurve" smooth="yes"/>
      <point x="934" y="1069"/>
      <point x="841" y="976" type="qcurve" smooth="yes"/>
      <point x="747" y="885"/>
      <point x="614" y="885" type="qcurve" smooth="yes"/>
      <point x="479" y="885"/>
      <point x="299" y="1065"/>
      <point x="299" y="1200" type="qcurve" smooth="yes"/>
      <point x="299" y="1333"/>
      <point x="391" y="1427" type="qcurve" smooth="yes"/>
      <point x="482" y="1520"/>
    </contour>
    <contour>
      <point x="537" y="1391"/>
      <point x="482" y="1336" type="qcurve" smooth="yes"/>
      <point x="426" y="1280"/>
      <point x="426" y="1120"/>
      <point x="480" y="1066" type="qcurve" smooth="yes"/>
      <point x="536" y="1012"/>
      <point x="614" y="1012" type="qcurve" smooth="yes"/>
      <point x="695" y="1012"/>
      <point x="750" y="1067" type="qcurve" smooth="yes"/>
      <point x="807" y="1122"/>
      <point x="807" y="1200" type="qcurve" smooth="yes"/>
      <point x="807" y="1279"/>
      <point x="695" y="1391"/>
    </contour>
  </outline>
</glyph>
<glyph name="uni00B2" format="2">
  <advance width="1233" height="1233"/>
  <unicode hex="00B2"/>
  <outline>
    <contour>
      <point x="483" y="782" type="line"/>
      <point x="893" y="782" type="line"/>
      <point x="893" y="668" type="line"/>
      <point x="322" y="668" type="line"/>
      <point x="322" y="778" type="line"/>
      <point x="553" y="1004" type="line" smooth="yes"/>
      <point x="659" y="1107"/>
      <point x="694" y="1162" type="qcurve" smooth="yes"/>
      <point x="735" y="1222"/>
      <point x="735" y="1274" type="qcurve" smooth="yes"/>
      <point x="735" y="1335"/>
      <point x="635" y="1411"/>
      <point x="553" y="1411" type="qcurve" smooth="yes"/>
      <point x="504" y="1411"/>
      <point x="448" y="1393" type="qcurve" smooth="yes"/>
      <point x="391" y="1375"/>
      <point x="328" y="1339" type="qcurve"/>
      <point x="328" y="1464" type="line"/>
      <point x="392" y="1492"/>
      <point x="454" y="1506" type="qcurve" smooth="yes"/>
      <point x="516" y="1520"/>
      <point x="573" y="1520" type="qcurve" smooth="yes"/>
      <point x="716" y="1520"/>
      <point x="801" y="1454" type="qcurve" smooth="yes"/>
      <point x="887" y="1386"/>
      <point x="887" y="1280" type="qcurve" smooth="yes"/>
      <point x="887" y="1222"/>
      <point x="850" y="1164" type="qcurve" smooth="yes"/>
      <point x="812" y="1104"/>
      <point x="694" y="987" type="qcurve" smooth="yes"/>
    </contour>
  </outline>
</glyph>
<glyph name="uni00B3" format="2">
  <advance width="1233" height="1233"/>
  <unicode hex="00B3"/>
  <outline>
    <contour>
      <point x="731" y="1120" type="qcurve"/>
      <point x="826" y="1099"/>
      <point x="874" y="1045" type="qcurve" smooth="yes"/>
      <point x="924" y="992"/>
      <point x="924" y="911" type="qcurve" smooth="yes"/>
      <point x="924" y="788"/>
      <point x="829" y="720" type="qcurve" smooth="yes"/>
      <point x="735" y="653"/>
      <point x="557" y="653" type="qcurve" smooth="yes"/>
      <point x="494" y="653"/>
      <point x="442" y="664" type="qcurve" smooth="yes"/>
      <point x="393" y="672"/>
      <point x="326" y="694" type="qcurve"/>
      <point x="326" y="815" type="line"/>
      <point x="392" y="789"/>
      <point x="452" y="775" type="qcurve" smooth="yes"/>
      <point x="505" y="762"/>
      <point x="553" y="762" type="qcurve" smooth="yes"/>
      <point x="653" y="762"/>
      <point x="713" y="802" type="qcurve" smooth="yes"/>
      <point x="772" y="844"/>
      <point x="772" y="911" type="qcurve" smooth="yes"/>
      <point x="772" y="986"/>
      <point x="717" y="1023" type="qcurve" smooth="yes"/>
      <point x="661" y="1061"/>
      <point x="553" y="1061" type="qcurve" smooth="yes"/>
      <point x="487" y="1061" type="line"/>
      <point x="487" y="1169" type="line"/>
      <point x="561" y="1169" type="line" smooth="yes"/>
      <point x="652" y="1169"/>
      <point x="703" y="1200" type="qcurve" smooth="yes"/>
      <point x="752" y="1233"/>
      <point x="752" y="1292" type="qcurve" smooth="yes"/>
      <point x="752" y="1347"/>
      <point x="704" y="1380" type="qcurve" smooth="yes"/>
      <point x="654" y="1411"/>
      <point x="569" y="1411" type="qcurve" smooth="yes"/>
      <point x="524" y="1411"/>
      <point x="414" y="1387"/>
      <point x="354" y="1364" type="qcurve"/>
      <point x="354" y="1485" type="line"/>
      <point x="430" y="1503"/>
      <point x="482" y="1511" type="qcurve" smooth="yes"/>
      <point x="539" y="1520"/>
      <point x="590" y="1520" type="qcurve" smooth="yes"/>
      <point x="734" y="1520"/>
      <point x="819" y="1461" type="qcurve" smooth="yes"/>
      <point x="903" y="1402"/>
      <point x="903" y="1303" type="qcurve" smooth="yes"/>
      <point x="903" y="1232"/>
      <point x="859" y="1186" type="qcurve" smooth="yes"/>
      <point x="817" y="1140"/>
    </contour>
  </outline>
</glyph>
<glyph name="mu" format="2">
  <advance width="1233" height="1233"/>
  <unicode hex="00B5"/>
  <outline>
    <contour>
      <point x="195" y="-428" type="line"/>
      <point x="195" y="1120" type="line"/>
      <point x="379" y="1120" type="line"/>
      <point x="379" y="424" type="line" smooth="yes"/>
      <point x="379" y="282"/>
      <point x="439" y="206" type="qcurve" smooth="yes"/>
      <point x="499" y="131"/>
      <point x="610" y="131" type="qcurve" smooth="yes"/>
      <point x="736" y="131"/>
      <point x="802" y="216" type="qcurve" smooth="yes"/>
      <point x="866" y="303"/>
      <point x="866" y="467" type="qcurve" smooth="yes"/>
      <point x="866" y="1120" type="line"/>
      <point x="1051" y="1120" type="line"/>
      <point x="1051" y="256" type="line" smooth="yes"/>
      <point x="1051" y="197"/>
      <point x="1083" y="141"/>
      <point x="1116" y="141" type="qcurve" smooth="yes"/>
      <point x="1123" y="141"/>
      <point x="1140" y="146" type="qcurve" smooth="yes"/>
      <point x="1154" y="150"/>
      <point x="1182" y="164" type="qcurve"/>
      <point x="1182" y="16" type="line"/>
      <point x="1141" y="-9"/>
      <point x="1110" y="-18" type="qcurve" smooth="yes"/>
      <point x="1074" y="-29"/>
      <point x="1042" y="-29" type="qcurve" smooth="yes"/>
      <point x="981" y="-29"/>
      <point x="942" y="10" type="qcurve" smooth="yes"/>
      <point x="905" y="52"/>
      <point x="893" y="129" type="qcurve"/>
      <point x="846" y="48"/>
      <point x="780" y="10" type="qcurve" smooth="yes"/>
      <point x="714" y="-29"/>
      <point x="625" y="-29" type="qcurve" smooth="yes"/>
      <point x="534" y="-29"/>
      <point x="470" y="9" type="qcurve" smooth="yes"/>
      <point x="406" y="46"/>
      <point x="362" y="127" type="qcurve"/>
      <point x="362" y="-428" type="line"/>
    </contour>
  </outline>
</glyph>
<glyph name="paragraph" format="2">
  <advance width="1233" height="1233"/>
  <unicode hex="00B6"/>
  <outline>
    <contour>
      <point x="582" y="1493" type="qcurve" smooth="yes"/>
      <point x="1030" y="1493" type="line"/>
      <point x="1030" y="-197" type="line"/>
      <point x="889" y="-197" type="line"/>
      <point x="889" y="1370" type="line"/>
      <point x="698" y="1370" type="line"/>
      <point x="698" y="-197" type="line"/>
      <point x="557" y="-197" type="line"/>
      <point x="557" y="649" type="line"/>
      <point x="344" y="665"/>
      <point x="224" y="776" type="qcurve" smooth="yes"/>
      <point x="106" y="887"/>
      <point x="106" y="1071" type="qcurve" smooth="yes"/>
      <point x="106" y="1261"/>
      <point x="236" y="1377" type="qcurve" smooth="yes"/>
      <point x="369" y="1493"/>
    </contour>
  </outline>
</glyph>
<glyph name="cedilla" format="2">
  <advance width="1233" height="1233"/>
  <unicode hex="00B8"/>
  <outline>
    <contour>
      <point x="700" y="0" type="line"/>
      <point x="756" y="-62"/>
      <point x="782" y="-114" type="qcurve" smooth="yes"/>
      <point x="809" y="-168"/>
      <point x="809" y="-215" type="qcurve" smooth="yes"/>
      <point x="809" y="-304"/>
      <point x="749" y="-350" type="qcurve" smooth="yes"/>
      <point x="689" y="-395"/>
      <point x="571" y="-395" type="qcurve" smooth="yes"/>
      <point x="527" y="-395"/>
      <point x="437" y="-383"/>
      <point x="395" y="-371" type="qcurve"/>
      <point x="395" y="-240" type="line"/>
      <point x="434" y="-259"/>
      <point x="466" y="-264" type="qcurve" smooth="yes"/>
      <point x="501" y="-272"/>
      <point x="551" y="-272" type="qcurve" smooth="yes"/>
      <point x="608" y="-272"/>
      <point x="640" y="-248" type="qcurve" smooth="yes"/>
      <point x="670" y="-224"/>
      <point x="670" y="-178" type="qcurve" smooth="yes"/>
      <point x="670" y="-148"/>
      <point x="648" y="-104" type="qcurve" smooth="yes"/>
      <point x="624" y="-60"/>
      <point x="582" y="0" type="qcurve"/>
    </contour>
  </outline>
</glyph>
<glyph name="ordmasculine" format="2">
  <advance width="1233" height="1233"/>
  <unicode hex="00BA"/>
  <outline>
    <contour>
      <point x="616" y="1403" type="qcurve" smooth="yes"/>
      <point x="514" y="1403"/>
      <point x="456" y="1325" type="qcurve" smooth="yes"/>
      <point x="399" y="1247"/>
      <point x="399" y="1108" type="qcurve" smooth="yes"/>
      <point x="399" y="968"/>
      <point x="456" y="892" type="qcurve" smooth="yes"/>
      <point x="515" y="815"/>
      <point x="616" y="815" type="qcurve" smooth="yes"/>
      <point x="716" y="815"/>
      <point x="776" y="894" type="qcurve" smooth="yes"/>
      <point x="834" y="973"/>
      <point x="834" y="1108" type="qcurve" smooth="yes"/>
      <point x="834" y="1248"/>
      <point x="776" y="1325" type="qcurve" smooth="yes"/>
      <point x="719" y="1403"/>
    </contour>
    <contour>
      <point x="786" y="1520"/>
      <point x="888" y="1408" type="qcurve" smooth="yes"/>
      <point x="989" y="1295"/>
      <point x="989" y="1108" type="qcurve" smooth="yes"/>
      <point x="989" y="922"/>
      <point x="888" y="810" type="qcurve" smooth="yes"/>
      <point x="788" y="698"/>
      <point x="616" y="698" type="qcurve" smooth="yes"/>
      <point x="445" y="698"/>
      <point x="345" y="810" type="qcurve" smooth="yes"/>
      <point x="244" y="922"/>
      <point x="244" y="1108" type="qcurve" smooth="yes"/>
      <point x="244" y="1296"/>
      <point x="346" y="1408" type="qcurve" smooth="yes"/>
      <point x="446" y="1520"/>
    </contour>
    <contour>
      <point x="276" y="592" type="line"/>
      <point x="952" y="592" type="line"/>
      <point x="952" y="469" type="line"/>
      <point x="276" y="469" type="line"/>
    </contour>
  </outline>
</glyph>
<glyph name="onehalf" format="2">
  <advance width="1233" height="1233"/>
  <unicode hex="00BD"/>
  <outline>
    <contour>
      <point x="104" y="934" type="line"/>
      <point x="309" y="934" type="line"/>
      <point x="309" y="1545" type="line"/>
      <point x="86" y="1504" type="line"/>
      <point x="86" y="1620" type="line"/>
      <point x="315" y="1659" type="line"/>
      <point x="453" y="1659" type="line"/>
      <point x="453" y="934" type="line"/>
      <point x="657" y="934" type="line"/>
      <point x="657" y="824" type="line"/>
      <point x="104" y="824" type="line"/>
    </contour>
    <contour>
      <point x="51" y="504" type="line"/>
      <point x="27" y="612" type="line"/>
      <point x="1087" y="874" type="line"/>
      <point x="1114" y="766" type="line"/>
    </contour>
    <contour>
      <point x="684" y="-156" type="line"/>
      <point x="1094" y="-156" type="line"/>
      <point x="1094" y="-270" type="line"/>
      <point x="523" y="-270" type="line"/>
      <point x="523" y="-160" type="line"/>
      <point x="754" y="66" type="line" smooth="yes"/>
      <point x="855" y="164"/>
      <point x="896" y="224" type="qcurve" smooth="yes"/>
      <point x="936" y="287"/>
      <point x="936" y="336" type="qcurve" smooth="yes"/>
      <point x="936" y="397"/>
      <point x="836" y="473"/>
      <point x="754" y="473" type="qcurve" smooth="yes"/>
      <point x="705" y="473"/>
      <point x="591" y="437"/>
      <point x="529" y="401" type="qcurve"/>
      <point x="529" y="526" type="line"/>
      <point x="593" y="554"/>
      <point x="654" y="568" type="qcurve" smooth="yes"/>
      <point x="718" y="582"/>
      <point x="774" y="582" type="qcurve" smooth="yes"/>
      <point x="916" y="582"/>
      <point x="1002" y="516" type="qcurve" smooth="yes"/>
      <point x="1088" y="448"/>
      <point x="1088" y="342" type="qcurve" smooth="yes"/>
      <point x="1088" y="284"/>
      <point x="1051" y="226" type="qcurve" smooth="yes"/>
      <point x="1014" y="166"/>
      <point x="895" y="49" type="qcurve" smooth="yes"/>
    </contour>
  </outline>
</glyph>
<glyph name="threequarters" format="2">
  <advance width="1233" height="1233"/>
  <unicode hex="00BE"/>
  <outline>
    <contour>
      <point x="815" y="565" type="line"/>
      <point x="977" y="565" type="line"/>
      <point x="977" y="27" type="line"/>
      <point x="1093" y="27" type="line"/>
      <point x="1093" y="-84" type="line"/>
      <point x="977" y="-84" type="line"/>
      <point x="977" y="-270" type="line"/>
      <point x="839" y="-270" type="line"/>
      <point x="839" y="-84" type="line"/>
      <point x="452" y="-84" type="line"/>
      <point x="452" y="37" type="line"/>
    </contour>
    <contour>
      <point x="839" y="440" type="line"/>
      <point x="565" y="27" type="line"/>
      <point x="839" y="27" type="line"/>
    </contour>
    <contour>
      <point x="504" y="1276" type="qcurve"/>
      <point x="597" y="1255"/>
      <point x="648" y="1201" type="qcurve" smooth="yes"/>
      <point x="697" y="1146"/>
      <point x="697" y="1067" type="qcurve" smooth="yes"/>
      <point x="697" y="944"/>
      <point x="602" y="876" type="qcurve" smooth="yes"/>
      <point x="508" y="809"/>
      <point x="330" y="809" type="qcurve" smooth="yes"/>
      <point x="267" y="809"/>
      <point x="215" y="820" type="qcurve" smooth="yes"/>
      <point x="166" y="828"/>
      <point x="99" y="850" type="qcurve"/>
      <point x="99" y="971" type="line"/>
      <point x="164" y="946"/>
      <point x="224" y="931" type="qcurve" smooth="yes"/>
      <point x="279" y="918"/>
      <point x="326" y="918" type="qcurve" smooth="yes"/>
      <point x="426" y="918"/>
      <point x="486" y="958" type="qcurve" smooth="yes"/>
      <point x="545" y="1000"/>
      <point x="545" y="1067" type="qcurve" smooth="yes"/>
      <point x="545" y="1142"/>
      <point x="490" y="1179" type="qcurve" smooth="yes"/>
      <point x="434" y="1217"/>
      <point x="326" y="1217" type="qcurve" smooth="yes"/>
      <point x="260" y="1217" type="line"/>
      <point x="260" y="1325" type="line"/>
      <point x="334" y="1325" type="line" smooth="yes"/>
      <point x="425" y="1325"/>
      <point x="476" y="1356" type="qcurve" smooth="yes"/>
      <point x="525" y="1389"/>
      <point x="525" y="1448" type="qcurve" smooth="yes"/>
      <point x="525" y="1503"/>
      <point x="477" y="1536" type="qcurve" smooth="yes"/>
      <point x="427" y="1567"/>
      <point x="342" y="1567" type="qcurve" smooth="yes"/>
      <point x="298" y="1567"/>
      <point x="242" y="1555" type="qcurve" smooth="yes"/>
      <point x="187" y="1543"/>
      <point x="127" y="1520" type="qcurve"/>
      <point x="127" y="1641" type="line"/>
      <point x="200" y="1659"/>
      <point x="254" y="1667" type="qcurve" smooth="yes"/>
      <point x="314" y="1676"/>
      <point x="363" y="1676" type="qcurve" smooth="yes"/>
      <point x="507" y="1676"/>
      <point x="592" y="1617" type="qcurve" smooth="yes"/>
      <point x="676" y="1558"/>
      <point x="676" y="1459" type="qcurve" smooth="yes"/>
      <point x="676" y="1388"/>
      <point x="632" y="1342" type="qcurve" smooth="yes"/>
      <point x="590" y="1296"/>
    </contour>
    <contour>
      <point x="51" y="504" type="line"/>
      <point x="27" y="612" type="line"/>
      <point x="1087" y="874" type="line"/>
      <point x="1114" y="766" type="line"/>
    </contour>
  </outline>
</glyph>
<glyph name="cacute" format="2">
  <advance width="551" height="551"/>
  <unicode hex="0107"/>
  <outline>
    <contour>
      <point x="465" y="-108" type="qcurve"/>
      <point x="382" y="33" type="line"/>
      <point x="627" y="198"/>
      <point x="580.5" y="551.5" type="qcurve" smooth="yes"/>
      <point x="546" y="818"/>
      <point x="477.5" y="888" type="qcurve" smooth="yes"/>
      <point x="322" y="1043"/>
      <point x="206" y="952" type="qcurve" smooth="yes"/>
      <point x="170" y="924"/>
      <point x="133" y="788" type="qcurve"/>
      <point x="-27" y="896" type="line"/>
      <point x="0" y="1040"/>
      <point x="117" y="1110" type="qcurve" smooth="yes"/>
      <point x="362" y="1258"/>
      <point x="586" y="1009" type="qcurve" smooth="yes"/>
      <point x="720" y="859"/>
      <point x="762" y="553" type="qcurve" smooth="yes"/>
      <point x="820" y="134"/>
    </contour>
  </outline>
</glyph>
<glyph name="ccaron" format="2">
  <advance width="67" height="67"/>
  <unicode hex="010D"/>
  <outline>
    <contour>
      <point x="0.775391" y="-99" type="qcurve"/>
      <point x="-46.2246" y="-147"/>
      <point x="-93.2246" y="-195" type="qcurve" smooth="yes"/>
      <point x="-211.225" y="-313"/>
      <point x="-208.225" y="-373" type="qcurve" smooth="yes"/>
      <point x="-202.225" y="-484"/>
      <point x="-113.225" y="-490" type="qcurve" smooth="yes"/>
      <point x="0.775391" y="-497"/>
      <point x="0.775391" y="-322" type="qcurve" smooth="yes"/>
      <point x="0.775391" y="-206"/>
    </contour>
    <contour>
      <point x="2.78418" y="64" type="qcurve"/>
      <point x="2.78418" y="64"/>
      <point x="120.775" y="45" type="qcurve"/>
      <point x="120.775" y="-325" type="line" smooth="yes"/>
      <point x="120.775" y="-612"/>
      <point x="-110.225" y="-610" type="qcurve" smooth="yes"/>
      <point x="-215.225" y="-609"/>
      <point x="-277.225" y="-521" type="qcurve" smooth="yes"/>
      <point x="-379.225" y="-374"/>
      <point x="-274.225" y="-218" type="qcurve" smooth="yes"/>
      <point x="-252.225" y="-185"/>
      <point x="-187.225" y="-119" type="qcurve" smooth="yes"/>
      <point x="-119.225" y="-50"/>
    </contour>
    <contour>
      <point x="60.7754" y="24" type="move"/>
      <point x="60.7754" y="64" type="line"/>
      <point x="80.7754" y="44" type="line"/>
      <point x="40.7754" y="44" type="line"/>
    </contour>
    <contour>
      <point x="33.7754" y="-16"/>
      <point x="17.7754" y="0" type="qcurve" smooth="yes"/>
      <point x="0.775391" y="17"/>
      <point x="0.775391" y="44" type="qcurve" smooth="yes"/>
      <point x="0.775391" y="74"/>
      <point x="17.8096" y="90" type="qcurve" smooth="yes"/>
      <point x="32.7754" y="104"/>
      <point x="88.7754" y="104"/>
      <point x="103.741" y="90" type="qcurve" smooth="yes"/>
      <point x="120.775" y="74"/>
      <point x="120.775" y="44" type="qcurve" smooth="yes"/>
      <point x="120.775" y="18"/>
      <point x="102.775" y="0" type="qcurve" smooth="yes"/>
      <point x="86.7754" y="-16"/>
    </contour>
    <contour>
      <point x="60.7754" y="19" type="move"/>
      <point x="60.7754" y="59" type="line"/>
      <point x="80.7754" y="39" type="line"/>
      <point x="40.7754" y="39" type="line"/>
    </contour>
    <contour>
      <point x="33.7754" y="-21"/>
      <point x="17.7754" y="-5" type="qcurve" smooth="yes"/>
      <point x="0.775391" y="12"/>
      <point x="0.775391" y="39" type="qcurve" smooth="yes"/>
      <point x="0.775391" y="69"/>
      <point x="17.8096" y="85" type="qcurve" smooth="yes"/>
      <point x="32.7754" y="99"/>
      <point x="88.7754" y="99"/>
      <point x="103.741" y="85" type="qcurve" smooth="yes"/>
      <point x="120.775" y="69"/>
      <point x="120.775" y="39" type="qcurve" smooth="yes"/>
      <point x="120.775" y="13"/>
      <point x="102.775" y="-5" type="qcurve" smooth="yes"/>
      <point x="86.7754" y="-21"/>
    </contour>
    <component base="stemG"/>
  </outline>
</glyph>
<glyph name="dcaron" format="2">
  <advance width="60" height="60"/>
  <unicode hex="010F"/>
  <outline>
    <contour>
      <point x="0.775391" y="-103" type="qcurve"/>
      <point x="-46.2246" y="-151"/>
      <point x="-93.2246" y="-199" type="qcurve" smooth="yes"/>
      <point x="-211.225" y="-317"/>
      <point x="-208.225" y="-377" type="qcurve" smooth="yes"/>
      <point x="-202.225" y="-488"/>
      <point x="-113.225" y="-494" type="qcurve" smooth="yes"/>
      <point x="0.775391" y="-501"/>
      <point x="0.775391" y="-326" type="qcurve" smooth="yes"/>
      <point x="0.775391" y="-210"/>
    </contour>
    <contour>
      <point x="2.78418" y="60" type="qcurve"/>
      <point x="2.78418" y="60"/>
      <point x="120.775" y="41" type="qcurve"/>
      <point x="120.775" y="-329" type="line" smooth="yes"/>
      <point x="120.775" y="-616"/>
      <point x="-110.225" y="-614" type="qcurve" smooth="yes"/>
      <point x="-215.225" y="-613"/>
      <point x="-277.225" y="-525" type="qcurve" smooth="yes"/>
      <point x="-379.225" y="-378"/>
      <point x="-274.225" y="-222" type="qcurve" smooth="yes"/>
      <point x="-252.225" y="-189"/>
      <point x="-187.225" y="-123" type="qcurve" smooth="yes"/>
      <point x="-119.225" y="-54"/>
    </contour>
    <contour>
      <point x="60.7754" y="20" type="move"/>
      <point x="60.7754" y="60" type="line"/>
      <point x="80.7754" y="40" type="line"/>
      <point x="40.7754" y="40" type="line"/>
    </contour>
    <contour>
      <point x="33.7754" y="-20"/>
      <point x="17.7754" y="-4" type="qcurve" smooth="yes"/>
      <point x="0.775391" y="13"/>
      <point x="0.775391" y="40" type="qcurve" smooth="yes"/>
      <point x="0.775391" y="70"/>
      <point x="17.8096" y="86" type="qcurve" smooth="yes"/>
      <point x="32.7754" y="100"/>
      <point x="88.7754" y="100"/>
      <point x="103.741" y="86" type="qcurve" smooth="yes"/>
      <point x="120.775" y="70"/>
      <point x="120.775" y="40" type="qcurve" smooth="yes"/>
      <point x="120.775" y="14"/>
      <point x="102.775" y="-4" type="qcurve" smooth="yes"/>
      <point x="86.7754" y="-20"/>
    </contour>
    <contour>
      <point x="60.7754" y="15" type="move"/>
      <point x="60.7754" y="55" type="line"/>
      <point x="80.7754" y="35" type="line"/>
      <point x="40.7754" y="35" type="line"/>
    </contour>
    <contour>
      <point x="33.7754" y="-25"/>
      <point x="17.7754" y="-9" type="qcurve" smooth="yes"/>
      <point x="0.775391" y="8"/>
      <point x="0.775391" y="35" type="qcurve" smooth="yes"/>
      <point x="0.775391" y="65"/>
      <point x="17.8096" y="81" type="qcurve" smooth="yes"/>
      <point x="32.7754" y="95"/>
      <point x="88.7754" y="95"/>
      <point x="103.741" y="81" type="qcurve" smooth="yes"/>
      <point x="120.775" y="65"/>
      <point x="120.775" y="35" type="qcurve" smooth="yes"/>
      <point x="120.775" y="9"/>
      <point x="102.775" y="-9" type="qcurve" smooth="yes"/>
      <point x="86.7754" y="-25"/>
    </contour>
    <component base="stemK"/>
  </outline>
</glyph>
<glyph name="lslash" format="2">
  <advance width="78" height="78"/>
  <unicode hex="0142"/>
  <outline>
    <contour>
      <point x="218" y="44" type="line"/>
      <point x="-67" y="44" type="line"/>
      <point x="-58" y="51"/>
      <point x="-29" y="75"/>
      <point x="32" y="125"/>
      <point x="72" y="159"/>
      <point x="71" y="160" type="qcurve"/>
    </contour>
    <contour>
      <point x="75" y="133" type="qcurve" smooth="yes"/>
      <point x="135" y="133"/>
      <point x="185" y="86" type="qcurve" smooth="yes"/>
      <point x="242" y="34"/>
      <point x="242" y="-50" type="qcurve" smooth="yes"/>
      <point x="242" y="-92"/>
      <point x="208" y="-168"/>
      <point x="186" y="-186" type="qcurve" smooth="yes"/>
      <point x="166" y="-202"/>
      <point x="140" y="-218"/>
      <point x="98" y="-233"/>
      <point x="75" y="-233" type="qcurve" smooth="yes"/>
      <point x="20" y="-233"/>
      <point x="-36" y="-186" type="qcurve" smooth="yes"/>
      <point x="-60" y="-166"/>
      <point x="-91" y="-93"/>
      <point x="-91" y="-50" type="qcurve" smooth="yes"/>
      <point x="-91" y="36"/>
      <point x="-36" y="86" type="qcurve" smooth="yes"/>
      <point x="16" y="133"/>
    </contour>
  </outline>
</glyph>
<glyph name="sacute" format="2">
  <advance width="538" height="538"/>
  <unicode hex="015B"/>
  <outline>
    <contour>
      <point x="406.138" y="45.4287" type="qcurve"/>
      <point x="466.312" y="45.5068"/>
      <point x="526.139" y="45.4287" type="qcurve"/>
      <point x="526.139" y="32.4287"/>
      <point x="526.139" y="32.4287" type="qcurve"/>
      <point x="525.001" y="-400.678"/>
      <point x="182.501" y="-744.071" type="qcurve" smooth="yes"/>
      <point x="175.69" y="-751.403"/>
      <point x="168.358" y="-758.214" type="qcurve"/>
      <point x="83.5059" y="-673.361" type="line"/>
      <point x="85.8877" y="-671.5"/>
      <point x="97.6484" y="-659.219" type="qcurve" smooth="yes"/>
      <point x="404.793" y="-352.595"/>
      <point x="406.138" y="31.4297" type="qcurve"/>
      <point x="406.207" y="44.7998"/>
    </contour>
    <contour>
      <point x="140.074" y="-701.645" type="move"/>
      <point x="111.789" y="-729.929" type="line"/>
      <point x="111.789" y="-701.645" type="line"/>
      <point x="140.074" y="-729.929" type="line"/>
    </contour>
    <contour>
      <point x="187.45" y="-692.452"/>
      <point x="187.45" y="-715.08" type="qcurve" smooth="yes"/>
      <point x="187.45" y="-739.121"/>
      <point x="168.358" y="-758.213" type="qcurve" smooth="yes"/>
      <point x="147.145" y="-779.427"/>
      <point x="123.786" y="-778.695" type="qcurve" smooth="yes"/>
      <point x="103.305" y="-778.012"/>
      <point x="63.7061" y="-738.414"/>
      <point x="63.0234" y="-717.933" type="qcurve" smooth="yes"/>
      <point x="62.292" y="-694.573"/>
      <point x="83.5049" y="-673.36" type="qcurve" smooth="yes"/>
      <point x="101.89" y="-654.976"/>
      <point x="127.346" y="-654.976" type="qcurve" smooth="yes"/>
      <point x="149.974" y="-654.976"/>
    </contour>
    <contour>
      <point x="486.137" y="45.4287" type="move"/>
      <point x="446.137" y="45.4287" type="line"/>
      <point x="466.137" y="65.4287" type="line"/>
      <point x="466.137" y="25.4287" type="line"/>
    </contour>
    <contour>
      <point x="526.137" y="18.4287"/>
      <point x="510.138" y="2.42871" type="qcurve" smooth="yes"/>
      <point x="493.137" y="-14.5713"/>
      <point x="466.137" y="-14.5713" type="qcurve" smooth="yes"/>
      <point x="436.138" y="-14.5713"/>
      <point x="420.138" y="2.46289" type="qcurve" smooth="yes"/>
      <point x="406.138" y="17.4287"/>
      <point x="406.138" y="73.4277"/>
      <point x="420.138" y="88.3945" type="qcurve" smooth="yes"/>
      <point x="436.138" y="105.429"/>
      <point x="466.137" y="105.429" type="qcurve" smooth="yes"/>
      <point x="492.137" y="105.429"/>
      <point x="510.138" y="87.4277" type="qcurve" smooth="yes"/>
      <point x="526.137" y="71.4287"/>
    </contour>
    <component base="stemK.krt" xOffset="303" yOffset="171"/>
    <component base="stemK.krt" xOffset="303"/>
  </outline>
</glyph>
<glyph name="scaron" format="2">
  <advance width="259" height="259"/>
  <unicode hex="0161"/>
  <outline>
    <contour>
      <point x="-100.991" y="127" type="qcurve"/>
      <point x="-71.9912" y="126"/>
      <point x="-42.9912" y="126" type="qcurve"/>
      <point x="-12.9912" y="126"/>
      <point x="17.0088" y="126" type="qcurve"/>
      <point x="17.0088" y="-280"/>
      <point x="17.0088" y="-456" type="qcurve"/>
      <point x="1.00879" y="-743"/>
      <point x="-217.491" y="-729" type="qcurve" smooth="yes"/>
      <point x="-356.991" y="-720"/>
      <point x="-402.991" y="-612" type="qcurve" smooth="yes"/>
      <point x="-498.991" y="-389"/>
      <point x="-367.991" y="-174" type="qcurve" smooth="yes"/>
      <point x="-288.991" y="-44"/>
    </contour>
    <contour>
      <point x="-102.991" y="-43" type="qcurve"/>
      <point x="-212.991" y="-151"/>
      <point x="-258.991" y="-230" type="qcurve" smooth="yes"/>
      <point x="-338.874" y="-368.517"/>
      <point x="-307.527" y="-512" type="qcurve" smooth="yes"/>
      <point x="-286.991" y="-606"/>
      <point x="-216.991" y="-606" type="qcurve" smooth="yes"/>
      <point x="-102.991" y="-606"/>
      <point x="-102.991" y="-456" type="qcurve" smooth="yes"/>
      <point x="-102.991" y="-338"/>
    </contour>
    <contour>
      <point x="-42.9912" y="86" type="move"/>
      <point x="-42.9912" y="126" type="line"/>
      <point x="-22.9912" y="106" type="line"/>
      <point x="-62.9912" y="106" type="line"/>
    </contour>
    <contour>
      <point x="-69.9912" y="46"/>
      <point x="-85.9912" y="62" type="qcurve" smooth="yes"/>
      <point x="-102.991" y="79"/>
      <point x="-102.991" y="106" type="qcurve" smooth="yes"/>
      <point x="-102.991" y="136"/>
      <point x="-85.957" y="152" type="qcurve" smooth="yes"/>
      <point x="-70.9912" y="166"/>
      <point x="-14.9912" y="166"/>
      <point x="-0.0253906" y="152" type="qcurve" smooth="yes"/>
      <point x="17.0088" y="136"/>
      <point x="17.0088" y="106" type="qcurve" smooth="yes"/>
      <point x="17.0088" y="80"/>
      <point x="-0.991211" y="62" type="qcurve" smooth="yes"/>
      <point x="-16.9912" y="46"/>
    </contour>
    <contour>
      <point x="-42.9912" y="90" type="move"/>
      <point x="-42.9912" y="130" type="line"/>
      <point x="-22.9912" y="110" type="line"/>
      <point x="-62.9912" y="110" type="line"/>
    </contour>
    <contour>
      <point x="-69.9912" y="50"/>
      <point x="-85.9912" y="66" type="qcurve" smooth="yes"/>
      <point x="-102.991" y="83"/>
      <point x="-102.991" y="110" type="qcurve" smooth="yes"/>
      <point x="-102.991" y="140"/>
      <point x="-85.957" y="156" type="qcurve" smooth="yes"/>
      <point x="-70.9912" y="170"/>
      <point x="-14.9912" y="170"/>
      <point x="-0.0253906" y="156" type="qcurve" smooth="yes"/>
      <point x="17.0088" y="140"/>
      <point x="17.0088" y="110" type="qcurve" smooth="yes"/>
      <point x="17.0088" y="84"/>
      <point x="-0.991211" y="66" type="qcurve" smooth="yes"/>
      <point x="-16.9912" y="50"/>
    </contour>
    <component base="stemK" xOffset="242" yOffset="-86"/>
  </outline>
</glyph>
<glyph name="zacute" format="2">
  <advance width="300" height="300"/>
  <unicode hex="017A"/>
  <outline>
    <contour>
      <point x="-3" y="903" type="qcurve"/>
      <point x="-3" y="1101" type="line"/>
      <point x="48" y="1087"/>
      <point x="143" y="1039"/>
      <point x="218" y="979"/>
      <point x="281" y="920"/>
      <point x="334" y="853"/>
      <point x="365" y="809"/>
      <point x="396" y="760"/>
      <point x="398" y="758" type="qcurve" smooth="yes"/>
      <point x="437" y="703"/>
      <point x="470" y="449"/>
      <point x="443" y="173"/>
      <point x="402" y="94" type="qcurve" smooth="yes"/>
      <point x="378" y="48"/>
      <point x="353" y="2"/>
      <point x="288" y="-107"/>
      <point x="226" y="-182"/>
      <point x="139" y="-277"/>
      <point x="32" y="-354"/>
      <point x="-27" y="-383" type="qcurve"/>
      <point x="-103" y="-256" type="line"/>
      <point x="-34" y="-229"/>
      <point x="91" y="-127"/>
      <point x="183" y="-4"/>
      <point x="248" y="115"/>
      <point x="268" y="172" type="qcurve" smooth="yes"/>
      <point x="379" y="484"/>
      <point x="254" y="708" type="qcurve" smooth="yes"/>
      <point x="151" y="893"/>
    </contour>
  </outline>
</glyph>
<glyph name="zcaron" format="2">
  <advance width="748" height="748"/>
  <unicode hex="017E"/>
  <outline>
    <contour>
      <point x="316.775" y="-21" type="qcurve"/>
      <point x="269.775" y="-69"/>
      <point x="222.775" y="-117" type="qcurve" smooth="yes"/>
      <point x="104.775" y="-235"/>
      <point x="107.775" y="-295" type="qcurve" smooth="yes"/>
      <point x="113.775" y="-406"/>
      <point x="202.775" y="-412" type="qcurve" smooth="yes"/>
      <point x="316.775" y="-419"/>
      <point x="316.775" y="-244" type="qcurve" smooth="yes"/>
      <point x="316.775" y="-128"/>
    </contour>
    <contour>
      <point x="318.784" y="142" type="qcurve"/>
      <point x="318.784" y="142"/>
      <point x="436.775" y="123" type="qcurve"/>
      <point x="436.775" y="-247" type="line" smooth="yes"/>
      <point x="436.775" y="-534"/>
      <point x="205.775" y="-532" type="qcurve" smooth="yes"/>
      <point x="100.775" y="-531"/>
      <point x="38.7754" y="-443" type="qcurve" smooth="yes"/>
      <point x="-63.2246" y="-296"/>
      <point x="41.7754" y="-140" type="qcurve" smooth="yes"/>
      <point x="63.7754" y="-107"/>
      <point x="128.775" y="-41" type="qcurve" smooth="yes"/>
      <point x="196.775" y="28"/>
    </contour>
    <contour>
      <point x="376.775" y="102" type="move"/>
      <point x="376.775" y="142" type="line"/>
      <point x="396.775" y="122" type="line"/>
      <point x="356.775" y="122" type="line"/>
    </contour>
    <contour>
      <point x="349.775" y="62"/>
      <point x="333.775" y="78" type="qcurve" smooth="yes"/>
      <point x="316.775" y="95"/>
      <point x="316.775" y="122" type="qcurve" smooth="yes"/>
      <point x="316.775" y="152"/>
      <point x="333.81" y="168" type="qcurve" smooth="yes"/>
      <point x="348.775" y="182"/>
      <point x="404.775" y="182"/>
      <point x="419.741" y="168" type="qcurve" smooth="yes"/>
      <point x="436.775" y="152"/>
      <point x="436.775" y="122" type="qcurve" smooth="yes"/>
      <point x="436.775" y="96"/>
      <point x="418.775" y="78" type="qcurve" smooth="yes"/>
      <point x="402.775" y="62"/>
    </contour>
    <contour>
      <point x="376.775" y="97" type="move"/>
      <point x="376.775" y="137" type="line"/>
      <point x="396.775" y="117" type="line"/>
      <point x="356.775" y="117" type="line"/>
    </contour>
    <contour>
      <point x="349.775" y="57"/>
      <point x="333.775" y="73" type="qcurve" smooth="yes"/>
      <point x="316.775" y="90"/>
      <point x="316.775" y="117" type="qcurve" smooth="yes"/>
      <point x="316.775" y="147"/>
      <point x="333.81" y="163" type="qcurve" smooth="yes"/>
      <point x="348.775" y="177"/>
      <point x="404.775" y="177"/>
      <point x="419.741" y="163" type="qcurve" smooth="yes"/>
      <point x="436.775" y="147"/>
      <point x="436.775" y="117" type="qcurve" smooth="yes"/>
      <point x="436.775" y="91"/>
      <point x="418.775" y="73" type="qcurve" smooth="yes"/>
      <point x="402.775" y="57"/>
    </contour>
    <component base="stemK" xOffset="316" yOffset="-90"/>
  </outline>
</glyph>
<glyph name="uni02B9" format="2">
  <advance width="1233" height="1233"/>
  <unicode hex="02B9"/>
  <outline>
    <contour>
      <point x="492" y="1140" type="line"/>
      <point x="557" y="1638" type="line"/>
      <point x="747" y="1638" type="line"/>
      <point x="637" y="1140" type="line"/>
    </contour>
  </outline>
</glyph>
<glyph name="uni02BB" format="2">
  <advance width="1233" height="1233"/>
  <unicode hex="02BB"/>
  <outline>
    <contour>
      <point x="715" y="967" type="line"/>
      <point x="463" y="967" type="line"/>
      <point x="463" y="1174" type="line"/>
      <point x="659" y="1556" type="line"/>
      <point x="813" y="1556" type="line"/>
      <point x="715" y="1174" type="line"/>
    </contour>
  </outline>
</glyph>
<glyph name="uni02BE" format="2">
  <advance width="1233" height="1233"/>
  <unicode hex="02BE"/>
  <outline>
    <contour>
      <point x="480" y="1007" type="qcurve"/>
      <point x="480" y="1130" type="line"/>
      <point x="544" y="1130"/>
      <point x="632" y="1218"/>
      <point x="632" y="1282" type="qcurve" smooth="yes"/>
      <point x="632" y="1345"/>
      <point x="544" y="1433"/>
      <point x="480" y="1433" type="qcurve"/>
      <point x="480" y="1556" type="line"/>
      <point x="594" y="1556"/>
      <point x="754" y="1396"/>
      <point x="754" y="1282" type="qcurve" smooth="yes"/>
      <point x="754" y="1167"/>
      <point x="594" y="1007"/>
    </contour>
  </outline>
</glyph>
<glyph name="uni02BF" format="2">
  <advance width="1233" height="1233"/>
  <unicode hex="02BF"/>
  <outline>
    <contour>
      <point x="754" y="1007" type="line"/>
      <point x="638" y="1007"/>
      <point x="558" y="1087" type="qcurve" smooth="yes"/>
      <point x="480" y="1166"/>
      <point x="480" y="1282" type="qcurve" smooth="yes"/>
      <point x="480" y="1396"/>
      <point x="558" y="1476" type="qcurve" smooth="yes"/>
      <point x="638" y="1556"/>
      <point x="754" y="1556" type="qcurve"/>
      <point x="754" y="1433" type="line"/>
      <point x="690" y="1433"/>
      <point x="602" y="1345"/>
      <point x="602" y="1282" type="qcurve" smooth="yes"/>
      <point x="602" y="1218"/>
      <point x="690" y="1130"/>
      <point x="754" y="1130" type="qcurve"/>
    </contour>
  </outline>
</glyph>
<glyph name="uni02C0" format="2">
  <advance width="1233" height="1233"/>
  <unicode hex="02C0"/>
  <outline>
    <contour>
      <point x="509" y="1357" type="line"/>
      <point x="549" y="1357" type="line" smooth="yes"/>
      <point x="670" y="1357"/>
      <point x="724" y="1421" type="qcurve" smooth="yes"/>
      <point x="760" y="1463"/>
      <point x="760" y="1518" type="qcurve" smooth="yes"/>
      <point x="760" y="1593"/>
      <point x="724" y="1629" type="qcurve" smooth="yes"/>
      <point x="663" y="1693"/>
      <point x="549" y="1693" type="qcurve" smooth="yes"/>
      <point x="498" y="1693"/>
      <point x="449" y="1681" type="qcurve" smooth="yes"/>
      <point x="400" y="1669"/>
      <point x="350" y="1645" type="qcurve"/>
      <point x="350" y="1741" type="line"/>
      <point x="400" y="1761"/>
      <point x="449" y="1770" type="qcurve" smooth="yes"/>
      <point x="498" y="1780"/>
      <point x="554" y="1780" type="qcurve" smooth="yes"/>
      <point x="727" y="1780"/>
      <point x="814" y="1692" type="qcurve" smooth="yes"/>
      <point x="883" y="1622"/>
      <point x="883" y="1518" type="qcurve" smooth="yes"/>
      <point x="883" y="1424"/>
      <point x="815" y="1359" type="qcurve" smooth="yes"/>
      <point x="745" y="1292"/>
      <point x="637" y="1275" type="qcurve"/>
      <point x="637" y="910" type="line"/>
      <point x="510" y="910" type="line"/>
    </contour>
  </outline>
</glyph>
<glyph name="uni02C1" format="2">
  <advance width="1233" height="1233"/>
  <unicode hex="02C1"/>
  <outline>
    <contour>
      <point x="723" y="1357" type="line"/>
      <point x="723" y="910" type="line"/>
      <point x="596" y="910" type="line"/>
      <point x="596" y="1275" type="line"/>
      <point x="488" y="1292"/>
      <point x="418" y="1359" type="qcurve" smooth="yes"/>
      <point x="350" y="1424"/>
      <point x="350" y="1518" type="qcurve" smooth="yes"/>
      <point x="350" y="1622"/>
      <point x="420" y="1692" type="qcurve" smooth="yes"/>
      <point x="505" y="1780"/>
      <point x="679" y="1780" type="qcurve" smooth="yes"/>
      <point x="735" y="1780"/>
      <point x="784" y="1770" type="qcurve" smooth="yes"/>
      <point x="833" y="1761"/>
      <point x="883" y="1741" type="qcurve"/>
      <point x="883" y="1645" type="line"/>
      <point x="834" y="1669"/>
      <point x="784" y="1681" type="qcurve" smooth="yes"/>
      <point x="734" y="1693"/>
      <point x="684" y="1693" type="qcurve" smooth="yes"/>
      <point x="570" y="1693"/>
      <point x="509" y="1629" type="qcurve" smooth="yes"/>
      <point x="473" y="1593"/>
      <point x="473" y="1518" type="qcurve" smooth="yes"/>
      <point x="473" y="1463"/>
      <point x="509" y="1421" type="qcurve" smooth="yes"/>
      <point x="563" y="1357"/>
      <point x="684" y="1357" type="qcurve" smooth="yes"/>
    </contour>
  </outline>
</glyph>
<glyph name="circumflex" format="2">
  <advance width="639" height="639"/>
  <unicode hex="02C6"/>
  <outline>
    <contour>
      <point x="267" y="2428" type="line"/>
      <point x="371" y="2428" type="line"/>
      <point x="614" y="2092" type="line"/>
      <point x="510" y="2032" type="line"/>
      <point x="319" y="2303" type="line"/>
      <point x="114" y="2022" type="line"/>
      <point x="10" y="2082" type="line"/>
    </contour>
    <component base="konCONS" xOffset="259" yOffset="2334"/>
    <component base="konCONS" xScale="0.866025" yScale="0.866025" xyScale="0.5" yxScale="-0.5" xOffset="539.909" yOffset="1979.88"/>
    <component base="konCONS" xScale="0.866025" yScale="0.866025" xyScale="-0.5" yxScale="0.5" xOffset="-19.8324" yOffset="2029.88"/>
  </outline>
</glyph>
<glyph name="uni02C8" format="2">
  <advance width="1233" height="1233"/>
  <unicode hex="02C8"/>
  <outline>
    <contour>
      <point x="684" y="1554" type="line"/>
      <point x="684" y="999" type="line"/>
      <point x="548" y="999" type="line"/>
      <point x="548" y="1554" type="line"/>
    </contour>
  </outline>
</glyph>
<glyph name="uni02CC" format="2">
  <advance width="1233" height="1233"/>
  <unicode hex="02CC"/>
  <outline>
    <contour>
      <point x="684" y="252" type="line"/>
      <point x="684" y="-303" type="line"/>
      <point x="548" y="-303" type="line"/>
      <point x="548" y="252" type="line"/>
    </contour>
  </outline>
</glyph>
<glyph name="uni02CD" format="2">
  <advance width="1233" height="1233"/>
  <unicode hex="02CD"/>
  <outline>
    <contour>
      <point x="318" y="-209" type="line"/>
      <point x="916" y="-209" type="line"/>
      <point x="916" y="-357" type="line"/>
      <point x="318" y="-357" type="line"/>
    </contour>
  </outline>
</glyph>
<glyph name="uni02D0" format="2">
  <advance width="1233" height="1233"/>
  <unicode hex="02D0"/>
  <outline>
    <contour>
      <point x="616" y="729" type="line"/>
      <point x="438" y="1059" type="line"/>
      <point x="795" y="1059" type="line"/>
    </contour>
    <contour>
      <point x="616" y="330" type="line"/>
      <point x="795" y="0" type="line"/>
      <point x="438" y="0" type="line"/>
    </contour>
  </outline>
</glyph>
<glyph name="uni02D2" format="2">
  <advance width="1233" height="1233"/>
  <unicode hex="02D2"/>
  <outline>
    <contour>
      <point x="480" y="510" type="qcurve"/>
      <point x="480" y="633" type="line"/>
      <point x="544" y="633"/>
      <point x="632" y="721"/>
      <point x="632" y="785" type="qcurve" smooth="yes"/>
      <point x="632" y="848"/>
      <point x="544" y="936"/>
      <point x="480" y="936" type="qcurve"/>
      <point x="480" y="1059" type="line"/>
      <point x="594" y="1059"/>
      <point x="754" y="899"/>
      <point x="754" y="785" type="qcurve" smooth="yes"/>
      <point x="754" y="670"/>
      <point x="594" y="510"/>
    </contour>
  </outline>
</glyph>
<glyph name="uni02D3" format="2">
  <advance width="1233" height="1233"/>
  <unicode hex="02D3"/>
  <outline>
    <contour>
      <point x="754" y="510" type="line"/>
      <point x="638" y="510"/>
      <point x="558" y="590" type="qcurve" smooth="yes"/>
      <point x="480" y="670"/>
      <point x="480" y="785" type="qcurve" smooth="yes"/>
      <point x="480" y="900"/>
      <point x="558" y="979" type="qcurve" smooth="yes"/>
      <point x="638" y="1059"/>
      <point x="754" y="1059" type="qcurve"/>
      <point x="754" y="936" type="line"/>
      <point x="690" y="936"/>
      <point x="602" y="848"/>
      <point x="602" y="785" type="qcurve" smooth="yes"/>
      <point x="602" y="721"/>
      <point x="690" y="633"/>
      <point x="754" y="633" type="qcurve"/>
    </contour>
  </outline>
</glyph>
<glyph name="uni02D6" format="2">
  <advance width="1233" height="1233"/>
  <unicode hex="02D6"/>
  <outline>
    <contour>
      <point x="542" y="629" type="line"/>
      <point x="542" y="853" type="line"/>
      <point x="692" y="853" type="line"/>
      <point x="692" y="629" type="line"/>
      <point x="916" y="629" type="line"/>
      <point x="916" y="479" type="line"/>
      <point x="692" y="479" type="line"/>
      <point x="692" y="255" type="line"/>
      <point x="542" y="255" type="line"/>
      <point x="542" y="479" type="line"/>
      <point x="318" y="479" type="line"/>
      <point x="318" y="629" type="line"/>
    </contour>
  </outline>
</glyph>
<glyph name="uni02D7" format="2">
  <advance width="1233" height="1233"/>
  <unicode hex="02D7"/>
  <outline>
    <contour>
      <point x="842" y="479" type="line"/>
      <point x="392" y="479" type="line"/>
      <point x="392" y="629" type="line"/>
      <point x="842" y="629" type="line"/>
    </contour>
  </outline>
</glyph>
<glyph name="dotaccent" format="2">
  <advance width="1233" height="1233"/>
  <unicode hex="02D9"/>
  <outline>
    <contour>
      <point x="513" y="1552" type="line"/>
      <point x="718" y="1552" type="line"/>
      <point x="718" y="1348" type="line"/>
      <point x="513" y="1348" type="line"/>
    </contour>
  </outline>
</glyph>
<glyph name="ring" format="2">
  <advance width="1233" height="1233"/>
  <unicode hex="02DA"/>
  <outline>
    <contour>
      <point x="891" y="1524" type="qcurve" smooth="yes"/>
      <point x="891" y="1410"/>
      <point x="812" y="1329" type="qcurve" smooth="yes"/>
      <point x="730" y="1249"/>
      <point x="616" y="1249" type="qcurve" smooth="yes"/>
      <point x="500" y="1249"/>
      <point x="422" y="1329" type="qcurve" smooth="yes"/>
      <point x="342" y="1408"/>
      <point x="342" y="1524" type="qcurve" smooth="yes"/>
      <point x="342" y="1641"/>
      <point x="422" y="1718" type="qcurve"/>
      <point x="499" y="1798"/>
      <point x="616" y="1798" type="qcurve" smooth="yes"/>
      <point x="732" y="1798"/>
      <point x="812" y="1718" type="qcurve" smooth="yes"/>
      <point x="891" y="1639"/>
    </contour>
    <contour>
      <point x="768" y="1524" type="qcurve" smooth="yes"/>
      <point x="768" y="1587"/>
      <point x="680" y="1675"/>
      <point x="616" y="1675" type="qcurve" smooth="yes"/>
      <point x="554" y="1675"/>
      <point x="508" y="1632" type="qcurve"/>
      <point x="465" y="1586"/>
      <point x="465" y="1524" type="qcurve" smooth="yes"/>
      <point x="465" y="1459"/>
      <point x="508" y="1416" type="qcurve" smooth="yes"/>
      <point x="552" y="1372"/>
      <point x="680" y="1372"/>
      <point x="768" y="1460"/>
    </contour>
  </outline>
</glyph>
<glyph name="ogonek" format="2">
  <advance width="1233" height="1233"/>
  <unicode hex="02DB"/>
  <outline>
    <contour>
      <point x="528" y="0" type="qcurve"/>
      <point x="647" y="0" type="line"/>
      <point x="604" y="-59"/>
      <point x="580" y="-105" type="qcurve" smooth="yes"/>
      <point x="559" y="-148"/>
      <point x="559" y="-180" type="qcurve" smooth="yes"/>
      <point x="559" y="-226"/>
      <point x="586" y="-249" type="qcurve" smooth="yes"/>
      <point x="615" y="-272"/>
      <point x="668" y="-272" type="qcurve" smooth="yes"/>
      <point x="703" y="-272"/>
      <point x="731" y="-264" type="qcurve" smooth="yes"/>
      <point x="757" y="-259"/>
      <point x="793" y="-242" type="qcurve"/>
      <point x="793" y="-375" type="line"/>
      <point x="756" y="-386"/>
      <point x="721" y="-390" type="qcurve" smooth="yes"/>
      <point x="683" y="-395"/>
      <point x="657" y="-395" type="qcurve" smooth="yes"/>
      <point x="536" y="-395"/>
      <point x="478" y="-352" type="qcurve" smooth="yes"/>
      <point x="420" y="-307"/>
      <point x="420" y="-215" type="qcurve" smooth="yes"/>
      <point x="420" y="-169"/>
      <point x="446" y="-114" type="qcurve" smooth="yes"/>
      <point x="476" y="-58"/>
    </contour>
  </outline>
</glyph>
<glyph name="tilde" format="2">
  <advance width="1233" height="1233"/>
  <unicode hex="02DC"/>
  <outline>
    <contour>
      <point x="612" y="1370" type="qcurve" smooth="yes"/>
      <point x="555" y="1425" type="line" smooth="yes"/>
      <point x="534" y="1444"/>
      <point x="518" y="1454" type="qcurve" smooth="yes"/>
      <point x="501" y="1464"/>
      <point x="487" y="1464" type="qcurve" smooth="yes"/>
      <point x="449" y="1464"/>
      <point x="431" y="1427" type="qcurve" smooth="yes"/>
      <point x="412" y="1388"/>
      <point x="411" y="1309" type="qcurve"/>
      <point x="287" y="1309" type="line"/>
      <point x="289" y="1444"/>
      <point x="339" y="1517" type="qcurve" smooth="yes"/>
      <point x="390" y="1591"/>
      <point x="481" y="1591" type="qcurve" smooth="yes"/>
      <point x="519" y="1591"/>
      <point x="552" y="1577" type="qcurve" smooth="yes"/>
      <point x="582" y="1564"/>
      <point x="621" y="1530" type="qcurve" smooth="yes"/>
      <point x="678" y="1475" type="line" smooth="yes"/>
      <point x="701" y="1453"/>
      <point x="716" y="1446" type="qcurve" smooth="yes"/>
      <point x="730" y="1436"/>
      <point x="745" y="1436" type="qcurve" smooth="yes"/>
      <point x="784" y="1436"/>
      <point x="802" y="1473" type="qcurve" smooth="yes"/>
      <point x="819" y="1509"/>
      <point x="821" y="1591" type="qcurve"/>
      <point x="946" y="1591" type="line"/>
      <point x="944" y="1456"/>
      <point x="894" y="1383" type="qcurve" smooth="yes"/>
      <point x="843" y="1309"/>
      <point x="752" y="1309" type="qcurve" smooth="yes"/>
      <point x="714" y="1309"/>
      <point x="681" y="1323" type="qcurve" smooth="yes"/>
      <point x="651" y="1336"/>
    </contour>
  </outline>
</glyph>
<glyph name="uni02DE" format="2">
  <advance width="1233" height="1233"/>
  <unicode hex="02DE"/>
  <outline>
    <contour>
      <point x="-351" y="868" type="line"/>
      <point x="268" y="1032" type="line"/>
      <point x="452" y="1032" type="line"/>
      <point x="452" y="884" type="line" smooth="yes"/>
      <point x="452" y="732"/>
      <point x="490" y="682" type="qcurve" smooth="yes"/>
      <point x="528" y="634"/>
      <point x="633" y="634" type="qcurve" smooth="yes"/>
      <point x="883" y="634" type="line"/>
      <point x="883" y="478" type="line"/>
      <point x="612" y="478" type="line" smooth="yes"/>
      <point x="437" y="478"/>
      <point x="350" y="574" type="qcurve" smooth="yes"/>
      <point x="268" y="663"/>
      <point x="268" y="864" type="qcurve"/>
      <point x="-350" y="702" type="line"/>
    </contour>
  </outline>
</glyph>
<glyph name="uni02E0" format="2">
  <advance width="1233" height="1233"/>
  <unicode hex="02E0"/>
  <outline>
    <contour>
      <point x="693" y="988" type="line"/>
      <point x="871" y="740"/>
      <point x="871" y="559" type="qcurve" smooth="yes"/>
      <point x="871" y="430"/>
      <point x="629" y="427" type="qcurve" smooth="yes"/>
      <point x="364" y="424"/>
      <point x="362" y="559" type="qcurve" smooth="yes"/>
      <point x="361" y="749"/>
      <point x="543" y="992" type="qcurve"/>
      <point x="293" y="1295" type="line"/>
      <point x="429" y="1295" type="line"/>
      <point x="620" y="1071" type="line"/>
      <point x="804" y="1295" type="line"/>
      <point x="940" y="1295" type="line"/>
    </contour>
    <contour>
      <point x="616" y="921" type="qcurve"/>
      <point x="477" y="748"/>
      <point x="480" y="595" type="qcurve" smooth="yes"/>
      <point x="482" y="518"/>
      <point x="616" y="518" type="qcurve" smooth="yes"/>
      <point x="744" y="518"/>
      <point x="744" y="595" type="qcurve" smooth="yes"/>
      <point x="745" y="734"/>
    </contour>
  </outline>
</glyph>
<glyph name="uni02E1" format="2">
  <advance width="1233" height="1233"/>
  <unicode hex="02E1"/>
  <outline>
    <contour>
      <point x="644" y="895" type="line" smooth="yes"/>
      <point x="644" y="825"/>
      <point x="672" y="790" type="qcurve" smooth="yes"/>
      <point x="701" y="755"/>
      <point x="756" y="755" type="qcurve" smooth="yes"/>
      <point x="892" y="755" type="line"/>
      <point x="892" y="668" type="line"/>
      <point x="746" y="668" type="line" smooth="yes"/>
      <point x="642" y="668"/>
      <point x="585" y="728" type="qcurve" smooth="yes"/>
      <point x="528" y="787"/>
      <point x="528" y="895" type="qcurve" smooth="yes"/>
      <point x="528" y="1465" type="line"/>
      <point x="342" y="1465" type="line"/>
      <point x="342" y="1546" type="line"/>
      <point x="644" y="1546" type="line"/>
    </contour>
  </outline>
</glyph>
<glyph name="uni02E2" format="2">
  <advance width="1233" height="1233"/>
  <unicode hex="02E2"/>
  <outline>
    <contour>
      <point x="848" y="1293" type="qcurve"/>
      <point x="848" y="1196" type="line"/>
      <point x="798" y="1218"/>
      <point x="746" y="1229" type="qcurve" smooth="yes"/>
      <point x="691" y="1240"/>
      <point x="637" y="1240" type="qcurve" smooth="yes"/>
      <point x="550" y="1240"/>
      <point x="507" y="1216" type="qcurve" smooth="yes"/>
      <point x="464" y="1194"/>
      <point x="464" y="1146" type="qcurve" smooth="yes"/>
      <point x="464" y="1109"/>
      <point x="495" y="1090" type="qcurve" smooth="yes"/>
      <point x="527" y="1069"/>
      <point x="619" y="1051" type="qcurve" smooth="yes"/>
      <point x="659" y="1043" type="line" smooth="yes"/>
      <point x="785" y="1019"/>
      <point x="834" y="977" type="qcurve" smooth="yes"/>
      <point x="886" y="934"/>
      <point x="886" y="857" type="qcurve" smooth="yes"/>
      <point x="886" y="770"/>
      <point x="808" y="719" type="qcurve" smooth="yes"/>
      <point x="732" y="668"/>
      <point x="594" y="668" type="qcurve" smooth="yes"/>
      <point x="536" y="668"/>
      <point x="476" y="678" type="qcurve" smooth="yes"/>
      <point x="403" y="691"/>
      <point x="347" y="707" type="qcurve"/>
      <point x="347" y="814" type="line"/>
      <point x="412" y="784"/>
      <point x="474" y="769" type="qcurve" smooth="yes"/>
      <point x="536" y="754"/>
      <point x="597" y="754" type="qcurve" smooth="yes"/>
      <point x="680" y="754"/>
      <point x="723" y="779" type="qcurve" smooth="yes"/>
      <point x="767" y="805"/>
      <point x="767" y="849" type="qcurve" smooth="yes"/>
      <point x="767" y="891"/>
      <point x="735" y="914" type="qcurve" smooth="yes"/>
      <point x="704" y="935"/>
      <point x="596" y="957" type="qcurve" smooth="yes"/>
      <point x="555" y="965" type="line" smooth="yes"/>
      <point x="448" y="986"/>
      <point x="400" y="1028" type="qcurve" smooth="yes"/>
      <point x="352" y="1068"/>
      <point x="352" y="1142" type="qcurve" smooth="yes"/>
      <point x="352" y="1229"/>
      <point x="422" y="1278" type="qcurve" smooth="yes"/>
      <point x="493" y="1327"/>
      <point x="623" y="1327" type="qcurve" smooth="yes"/>
      <point x="687" y="1327"/>
      <point x="744" y="1318" type="qcurve" smooth="yes"/>
      <point x="796" y="1311"/>
    </contour>
  </outline>
</glyph>
<glyph name="uni02E3" format="2">
  <advance width="1233" height="1233"/>
  <unicode hex="02E3"/>
  <outline>
    <contour>
      <point x="945" y="1295" type="line"/>
      <point x="690" y="990" type="line"/>
      <point x="959" y="668" type="line"/>
      <point x="822" y="668" type="line"/>
      <point x="616" y="914" type="line"/>
      <point x="411" y="668" type="line"/>
      <point x="274" y="668" type="line"/>
      <point x="548" y="996" type="line"/>
      <point x="298" y="1295" type="line"/>
      <point x="434" y="1295" type="line"/>
      <point x="622" y="1072" type="line"/>
      <point x="809" y="1295" type="line"/>
    </contour>
  </outline>
</glyph>
<glyph name="uni02E4" format="2">
  <advance width="1233" height="1233"/>
  <unicode hex="02E4"/>
  <outline>
    <contour>
      <point x="723" y="1115" type="line"/>
      <point x="723" y="668" type="line"/>
      <point x="596" y="668" type="line"/>
      <point x="596" y="1033" type="line"/>
      <point x="488" y="1050"/>
      <point x="418" y="1117" type="qcurve" smooth="yes"/>
      <point x="350" y="1182"/>
      <point x="350" y="1276" type="qcurve" smooth="yes"/>
      <point x="350" y="1380"/>
      <point x="420" y="1450" type="qcurve" smooth="yes"/>
      <point x="505" y="1538"/>
      <point x="679" y="1538" type="qcurve" smooth="yes"/>
      <point x="735" y="1538"/>
      <point x="784" y="1528" type="qcurve" smooth="yes"/>
      <point x="833" y="1519"/>
      <point x="883" y="1499" type="qcurve"/>
      <point x="883" y="1403" type="line"/>
      <point x="834" y="1427"/>
      <point x="784" y="1439" type="qcurve" smooth="yes"/>
      <point x="734" y="1451"/>
      <point x="684" y="1451" type="qcurve" smooth="yes"/>
      <point x="570" y="1451"/>
      <point x="509" y="1387" type="qcurve" smooth="yes"/>
      <point x="473" y="1351"/>
      <point x="473" y="1276" type="qcurve" smooth="yes"/>
      <point x="473" y="1221"/>
      <point x="509" y="1179" type="qcurve" smooth="yes"/>
      <point x="563" y="1115"/>
      <point x="684" y="1115" type="qcurve" smooth="yes"/>
    </contour>
  </outline>
</glyph>
<glyph name="uni02E5" format="2">
  <advance width="1233" height="1233"/>
  <unicode hex="02E5"/>
  <outline>
    <contour>
      <point x="797" y="0" type="line"/>
      <point x="797" y="1232" type="line"/>
      <point x="300" y="1232" type="line"/>
      <point x="300" y="1368" type="line"/>
      <point x="933" y="1368" type="line"/>
      <point x="933" y="0" type="line"/>
    </contour>
  </outline>
</glyph>
<glyph name="uni02E7" format="2">
  <advance width="1233" height="1233"/>
  <unicode hex="02E7"/>
  <outline>
    <contour>
      <point x="797" y="752" type="line"/>
      <point x="797" y="1368" type="line"/>
      <point x="933" y="1368" type="line"/>
      <point x="933" y="0" type="line"/>
      <point x="797" y="0" type="line"/>
      <point x="797" y="616" type="line"/>
      <point x="300" y="616" type="line"/>
      <point x="300" y="752" type="line"/>
    </contour>
  </outline>
</glyph>
<glyph name="uni02E8" format="2">
  <advance width="1233" height="1233"/>
  <unicode hex="02E8"/>
  <outline>
    <contour>
      <point x="797" y="444" type="line"/>
      <point x="797" y="1368" type="line"/>
      <point x="933" y="1368" type="line"/>
      <point x="933" y="0" type="line"/>
      <point x="797" y="0" type="line"/>
      <point x="797" y="308" type="line"/>
      <point x="300" y="308" type="line"/>
      <point x="300" y="444" type="line"/>
    </contour>
  </outline>
</glyph>
<glyph name="uni02E9" format="2">
  <advance width="1233" height="1233"/>
  <unicode hex="02E9"/>
  <outline>
    <contour>
      <point x="797" y="136" type="line"/>
      <point x="797" y="1368" type="line"/>
      <point x="933" y="1368" type="line"/>
      <point x="933" y="0" type="line"/>
      <point x="300" y="0" type="line"/>
      <point x="300" y="136" type="line"/>
    </contour>
  </outline>
</glyph>
<glyph name="uni02EE" format="2">
  <advance width="1233" height="1233"/>
  <unicode hex="02EE"/>
  <outline>
    <contour>
      <point x="768" y="1556" type="line"/>
      <point x="1020" y="1556" type="line"/>
      <point x="1020" y="1350" type="line"/>
      <point x="823" y="967" type="line"/>
      <point x="670" y="967" type="line"/>
      <point x="768" y="1350" type="line"/>
    </contour>
    <contour>
      <point x="309" y="1556" type="line"/>
      <point x="561" y="1556" type="line"/>
      <point x="561" y="1350" type="line"/>
      <point x="365" y="967" type="line"/>
      <point x="211" y="967" type="line"/>
      <point x="309" y="1350" type="line"/>
    </contour>
  </outline>
</glyph>
<glyph name="uni02F3" format="2">
  <advance width="1233" height="1233"/>
  <unicode hex="02F3"/>
  <outline>
    <contour>
      <point x="836" y="-374"/>
      <point x="772" y="-438" type="qcurve" smooth="yes"/>
      <point x="709" y="-502"/>
      <point x="616" y="-502" type="qcurve" smooth="yes"/>
      <point x="524" y="-502"/>
      <point x="460" y="-438" type="qcurve" smooth="yes"/>
      <point x="397" y="-374"/>
      <point x="397" y="-190"/>
      <point x="460" y="-126" type="qcurve" smooth="yes"/>
      <point x="524" y="-63"/>
      <point x="616" y="-63" type="qcurve" smooth="yes"/>
      <point x="709" y="-63"/>
      <point x="772" y="-126" type="qcurve" smooth="yes"/>
      <point x="836" y="-190"/>
    </contour>
    <contour>
      <point x="738" y="-282" type="qcurve" smooth="yes"/>
      <point x="738" y="-232"/>
      <point x="702" y="-196" type="qcurve" smooth="yes"/>
      <point x="667" y="-161"/>
      <point x="565" y="-161"/>
      <point x="495" y="-231"/>
      <point x="495" y="-282" type="qcurve" smooth="yes"/>
      <point x="495" y="-334"/>
      <point x="565" y="-404"/>
      <point x="616" y="-404" type="qcurve" smooth="yes"/>
      <point x="668" y="-404"/>
      <point x="702" y="-368" type="qcurve" smooth="yes"/>
      <point x="738" y="-334"/>
    </contour>
  </outline>
</glyph>
<glyph name="uni0304" format="2">
  <advance width="1233" height="1233"/>
  <unicode hex="0304"/>
  <outline>
    <contour>
      <point x="317" y="1526" type="line"/>
      <point x="915" y="1526" type="line"/>
      <point x="915" y="1378" type="line"/>
      <point x="317" y="1378" type="line"/>
    </contour>
  </outline>
</glyph>
<glyph name="uni0305" format="2">
  <advance width="1233" height="1233"/>
  <unicode hex="0305"/>
  <outline>
    <contour>
      <point x="1233" y="1547" type="line"/>
      <point x="1233" y="1467" type="line"/>
      <point x="0" y="1467" type="line"/>
      <point x="0" y="1547" type="line"/>
    </contour>
  </outline>
</glyph>
<glyph name="uni0308" format="2">
  <advance width="1233" height="1233"/>
  <unicode hex="0308"/>
  <outline>
    <contour>
      <point x="319" y="1552" type="line"/>
      <point x="522" y="1552" type="line"/>
      <point x="522" y="1350" type="line"/>
      <point x="319" y="1350" type="line"/>
    </contour>
    <contour>
      <point x="711" y="1552" type="line"/>
      <point x="913" y="1552" type="line"/>
      <point x="913" y="1350" type="line"/>
      <point x="711" y="1350" type="line"/>
    </contour>
  </outline>
</glyph>
<glyph name="hookabovecomb" format="2">
  <advance width="1233" height="1233"/>
  <unicode hex="0309"/>
  <outline>
    <contour>
      <point x="586" y="1734" type="qcurve" smooth="yes"/>
      <point x="815" y="1734"/>
      <point x="823" y="1564" type="qcurve" smooth="yes"/>
      <point x="824" y="1561"/>
      <point x="824" y="1554" type="qcurve" smooth="yes"/>
      <point x="824" y="1489"/>
      <point x="796" y="1454" type="qcurve" smooth="yes"/>
      <point x="747" y="1387"/>
      <point x="694" y="1354" type="qcurve"/>
      <point x="694" y="1266" type="line"/>
      <point x="546" y="1266" type="line"/>
      <point x="546" y="1374" type="line"/>
      <point x="613" y="1396"/>
      <point x="662" y="1444" type="qcurve" smooth="yes"/>
      <point x="684" y="1463"/>
      <point x="684" y="1517" type="qcurve" smooth="yes"/>
      <point x="684" y="1611"/>
      <point x="564" y="1611" type="qcurve" smooth="yes"/>
      <point x="476" y="1611"/>
      <point x="410" y="1579" type="qcurve"/>
      <point x="410" y="1710" type="line"/>
      <point x="496" y="1734"/>
    </contour>
  </outline>
</glyph>
<glyph name="uni030D" format="2">
  <advance width="1233" height="1233"/>
  <unicode hex="030D"/>
  <outline>
    <contour>
      <point x="682" y="1706" type="line"/>
      <point x="682" y="1262" type="line"/>
      <point x="546" y="1262" type="line"/>
      <point x="546" y="1706" type="line"/>
    </contour>
  </outline>
</glyph>
<glyph name="uni030E" format="2">
  <advance width="1233" height="1233"/>
  <unicode hex="030E"/>
  <outline>
    <contour>
      <point x="886" y="1706" type="line"/>
      <point x="886" y="1262" type="line"/>
      <point x="750" y="1262" type="line"/>
      <point x="750" y="1706" type="line"/>
    </contour>
    <contour>
      <point x="478" y="1706" type="line"/>
      <point x="478" y="1262" type="line"/>
      <point x="342" y="1262" type="line"/>
      <point x="342" y="1706" type="line"/>
    </contour>
  </outline>
</glyph>
<glyph name="uni030F" format="2">
  <advance width="1233" height="1233"/>
  <unicode hex="030F"/>
  <outline>
    <contour>
      <point x="388" y="1638" type="line"/>
      <point x="593" y="1262" type="line"/>
      <point x="458" y="1262" type="line"/>
      <point x="210" y="1638" type="line"/>
    </contour>
    <contour>
      <point x="722" y="1638" type="line"/>
      <point x="912" y="1262" type="line"/>
      <point x="775" y="1262" type="line"/>
      <point x="552" y="1638" type="line"/>
    </contour>
  </outline>
</glyph>
<glyph name="uni0310" format="2">
  <advance width="1233" height="1233"/>
  <unicode hex="0310"/>
  <outline>
    <contour>
      <point x="513" y="1756" type="line"/>
      <point x="718" y="1756" type="line"/>
      <point x="718" y="1552" type="line"/>
      <point x="513" y="1552" type="line"/>
    </contour>
    <contour>
      <point x="303" y="1608" type="qcurve"/>
      <point x="422" y="1608" type="line"/>
      <point x="432" y="1533"/>
      <point x="481" y="1495" type="qcurve" smooth="yes"/>
      <point x="528" y="1458"/>
      <point x="616" y="1458" type="qcurve" smooth="yes"/>
      <point x="702" y="1458"/>
      <point x="749" y="1495" type="qcurve" smooth="yes"/>
      <point x="798" y="1533"/>
      <point x="811" y="1608" type="qcurve"/>
      <point x="930" y="1608" type="line"/>
      <point x="919" y="1465"/>
      <point x="840" y="1393" type="qcurve" smooth="yes"/>
      <point x="760" y="1321"/>
      <point x="472" y="1321"/>
      <point x="314" y="1465"/>
    </contour>
  </outline>
</glyph>
<glyph name="uni0311" format="2">
  <advance width="1233" height="1233"/>
  <unicode hex="0311"/>
  <outline>
    <contour>
      <point x="303" y="1321" type="line"/>
      <point x="314" y="1464"/>
      <point x="472" y="1608"/>
      <point x="760" y="1608"/>
      <point x="840" y="1536" type="qcurve" smooth="yes"/>
      <point x="919" y="1464"/>
      <point x="930" y="1321" type="qcurve"/>
      <point x="811" y="1321" type="line"/>
      <point x="798" y="1396"/>
      <point x="749" y="1434" type="qcurve" smooth="yes"/>
      <point x="702" y="1471"/>
      <point x="616" y="1471" type="qcurve" smooth="yes"/>
      <point x="528" y="1471"/>
      <point x="481" y="1434" type="qcurve" smooth="yes"/>
      <point x="432" y="1396"/>
      <point x="422" y="1321" type="qcurve"/>
    </contour>
  </outline>
</glyph>
<glyph name="uni0312" format="2">
  <advance width="1233" height="1233"/>
  <unicode hex="0312"/>
  <outline>
    <contour>
      <point x="708" y="967" type="line"/>
      <point x="469" y="967" type="line"/>
      <point x="656" y="1312" type="line"/>
      <point x="802" y="1312" type="line"/>
    </contour>
  </outline>
</glyph>
<glyph name="uni0313" format="2">
  <advance width="1233" height="1233"/>
  <unicode hex="0313"/>
  <outline>
    <contour>
      <point x="737" y="1475" type="line" smooth="yes"/>
      <point x="737" y="1218"/>
      <point x="496" y="1218" type="qcurve"/>
      <point x="496" y="1341" type="line"/>
      <point x="608" y="1338"/>
      <point x="608" y="1475" type="qcurve"/>
      <point x="496" y="1475" type="line"/>
      <point x="496" y="1729" type="line"/>
      <point x="737" y="1729" type="line"/>
    </contour>
  </outline>
</glyph>
<glyph name="uni0314" format="2">
  <advance width="1233" height="1233"/>
  <unicode hex="0314"/>
  <outline>
    <contour>
      <point x="496" y="1475" type="qcurve" smooth="yes"/>
      <point x="496" y="1729" type="line"/>
      <point x="737" y="1729" type="line"/>
      <point x="737" y="1475" type="line"/>
      <point x="625" y="1475" type="line"/>
      <point x="625" y="1341"/>
      <point x="737" y="1341" type="qcurve"/>
      <point x="737" y="1218" type="line"/>
      <point x="496" y="1218"/>
    </contour>
  </outline>
</glyph>
<glyph name="uni0315" format="2">
  <advance width="1233" height="1233"/>
  <unicode hex="0315"/>
  <outline>
    <contour>
      <point x="544" y="1638" type="line"/>
      <point x="742" y="1638" type="line"/>
      <point x="629" y="1262" type="line"/>
      <point x="475" y="1262" type="line"/>
    </contour>
  </outline>
</glyph>
<glyph name="uni0316" format="2">
  <advance width="1233" height="1233"/>
  <unicode hex="0316"/>
  <outline>
    <contour>
      <point x="575" y="-208" type="line"/>
      <point x="856" y="-584" type="line"/>
      <point x="702" y="-584" type="line"/>
      <point x="377" y="-208" type="line"/>
    </contour>
  </outline>
</glyph>
<glyph name="uni0317" format="2">
  <advance width="1233" height="1233"/>
  <unicode hex="0317"/>
  <outline>
    <contour>
      <point x="658" y="-208" type="line"/>
      <point x="856" y="-208" type="line"/>
      <point x="531" y="-584" type="line"/>
      <point x="377" y="-584" type="line"/>
    </contour>
  </outline>
</glyph>
<glyph name="uni0318" format="2">
  <advance width="1233" height="1233"/>
  <unicode hex="0318"/>
  <outline>
    <contour>
      <point x="588" y="-454" type="line"/>
      <point x="588" y="-277" type="line"/>
      <point x="724" y="-277" type="line"/>
      <point x="724" y="-767" type="line"/>
      <point x="588" y="-767" type="line"/>
      <point x="588" y="-590" type="line"/>
      <point x="412" y="-590" type="line"/>
      <point x="412" y="-454" type="line"/>
    </contour>
  </outline>
</glyph>
<glyph name="uni0319" format="2">
  <advance width="1233" height="1233"/>
  <unicode hex="0319"/>
  <outline>
    <contour>
      <point x="596" y="-590" type="line"/>
      <point x="596" y="-767" type="line"/>
      <point x="460" y="-767" type="line"/>
      <point x="460" y="-277" type="line"/>
      <point x="596" y="-277" type="line"/>
      <point x="596" y="-454" type="line"/>
      <point x="772" y="-454" type="line"/>
      <point x="772" y="-590" type="line"/>
    </contour>
  </outline>
</glyph>
<glyph name="uni031A" format="2">
  <advance width="1233" height="1233"/>
  <unicode hex="031A"/>
  <outline>
    <contour>
      <point x="726" y="1768" type="line"/>
      <point x="372" y="1768" type="line"/>
      <point x="372" y="1904" type="line"/>
      <point x="862" y="1904" type="line"/>
      <point x="862" y="1414" type="line"/>
      <point x="726" y="1414" type="line"/>
    </contour>
  </outline>
</glyph>
<glyph name="uni031B" format="2">
  <advance width="1233" height="1233"/>
  <unicode hex="031B"/>
  <outline>
    <contour>
      <point x="419" y="872" type="qcurve"/>
      <point x="419" y="991" type="line"/>
      <point x="478" y="948"/>
      <point x="524" y="924" type="qcurve" smooth="yes"/>
      <point x="568" y="903"/>
      <point x="599" y="903" type="qcurve" smooth="yes"/>
      <point x="646" y="903"/>
      <point x="668" y="930" type="qcurve" smooth="yes"/>
      <point x="691" y="959"/>
      <point x="691" y="1012" type="qcurve" smooth="yes"/>
      <point x="691" y="1038"/>
      <point x="684" y="1075" type="qcurve" smooth="yes"/>
      <point x="674" y="1109"/>
      <point x="661" y="1137" type="qcurve"/>
      <point x="794" y="1137" type="line"/>
      <point x="804" y="1100"/>
      <point x="809" y="1065" type="qcurve" smooth="yes"/>
      <point x="814" y="1027"/>
      <point x="814" y="1001" type="qcurve" smooth="yes"/>
      <point x="814" y="878"/>
      <point x="770" y="822" type="qcurve" smooth="yes"/>
      <point x="728" y="764"/>
      <point x="634" y="764" type="qcurve" smooth="yes"/>
      <point x="586" y="764"/>
      <point x="534" y="790" type="qcurve" smooth="yes"/>
      <point x="480" y="817"/>
    </contour>
  </outline>
</glyph>
<glyph name="uni031C" format="2">
  <advance width="1233" height="1233"/>
  <unicode hex="031C"/>
  <outline>
    <contour>
      <point x="726" y="-404" type="qcurve"/>
      <point x="726" y="-502" type="line"/>
      <point x="633" y="-502"/>
      <point x="570" y="-438" type="qcurve" smooth="yes"/>
      <point x="506" y="-374"/>
      <point x="506" y="-190"/>
      <point x="570" y="-126" type="qcurve" smooth="yes"/>
      <point x="633" y="-63"/>
      <point x="726" y="-63" type="qcurve"/>
      <point x="726" y="-161" type="line"/>
      <point x="675" y="-161"/>
      <point x="640" y="-196" type="qcurve" smooth="yes"/>
      <point x="604" y="-232"/>
      <point x="604" y="-282" type="qcurve" smooth="yes"/>
      <point x="604" y="-334"/>
      <point x="640" y="-368" type="qcurve" smooth="yes"/>
      <point x="674" y="-404"/>
    </contour>
  </outline>
</glyph>
<glyph name="uni031D" format="2">
  <advance width="1233" height="1233"/>
  <unicode hex="031D"/>
  <outline>
    <contour>
      <point x="667" y="-454" type="line"/>
      <point x="844" y="-454" type="line"/>
      <point x="844" y="-590" type="line"/>
      <point x="354" y="-590" type="line"/>
      <point x="354" y="-454" type="line"/>
      <point x="531" y="-454" type="line"/>
      <point x="531" y="-277" type="line"/>
      <point x="667" y="-277" type="line"/>
    </contour>
  </outline>
</glyph>
<glyph name="uni031E" format="2">
  <advance width="1233" height="1233"/>
  <unicode hex="031E"/>
  <outline>
    <contour>
      <point x="527" y="-413" type="line"/>
      <point x="350" y="-413" type="line"/>
      <point x="350" y="-277" type="line"/>
      <point x="840" y="-277" type="line"/>
      <point x="840" y="-413" type="line"/>
      <point x="663" y="-413" type="line"/>
      <point x="663" y="-590" type="line"/>
      <point x="527" y="-590" type="line"/>
    </contour>
  </outline>
</glyph>
<glyph name="uni031F" format="2">
  <advance width="1233" height="1233"/>
  <unicode hex="031F"/>
  <outline>
    <contour>
      <point x="528" y="-590" type="line"/>
      <point x="351" y="-590" type="line"/>
      <point x="351" y="-454" type="line"/>
      <point x="528" y="-454" type="line"/>
      <point x="528" y="-277" type="line"/>
      <point x="664" y="-277" type="line"/>
      <point x="664" y="-454" type="line"/>
      <point x="841" y="-454" type="line"/>
      <point x="841" y="-590" type="line"/>
      <point x="664" y="-590" type="line"/>
      <point x="664" y="-767" type="line"/>
      <point x="528" y="-767" type="line"/>
    </contour>
  </outline>
</glyph>
<glyph name="uni0320" format="2">
  <advance width="1233" height="1233"/>
  <unicode hex="0320"/>
  <outline>
    <contour>
      <point x="372" y="-413" type="line"/>
      <point x="372" y="-277" type="line"/>
      <point x="862" y="-277" type="line"/>
      <point x="862" y="-413" type="line"/>
    </contour>
  </outline>
</glyph>
<glyph name="uni0321" format="2">
  <advance width="1233" height="1233"/>
  <unicode hex="0321"/>
  <outline>
    <contour>
      <point x="1051" y="128" type="line"/>
      <point x="1051" y="-20" type="line" smooth="yes"/>
      <point x="1051" y="-214"/>
      <point x="962" y="-320" type="qcurve" smooth="yes"/>
      <point x="872" y="-426"/>
      <point x="707" y="-426" type="qcurve" smooth="yes"/>
      <point x="502" y="-426" type="line"/>
      <point x="502" y="-270" type="line"/>
      <point x="687" y="-270" type="line" smooth="yes"/>
      <point x="777" y="-270"/>
      <point x="822" y="-208" type="qcurve" smooth="yes"/>
      <point x="866" y="-146"/>
      <point x="866" y="-20" type="qcurve" smooth="yes"/>
      <point x="866" y="128" type="line"/>
    </contour>
  </outline>
</glyph>
<glyph name="uni0322" format="2">
  <advance width="1233" height="1233"/>
  <unicode hex="0322"/>
  <outline>
    <contour>
      <point x="182" y="128" type="line"/>
      <point x="367" y="128" type="line"/>
      <point x="367" y="-20" type="line" smooth="yes"/>
      <point x="367" y="-146"/>
      <point x="411" y="-208" type="qcurve" smooth="yes"/>
      <point x="456" y="-270"/>
      <point x="546" y="-270" type="qcurve" smooth="yes"/>
      <point x="731" y="-270" type="line"/>
      <point x="731" y="-426" type="line"/>
      <point x="526" y="-426" type="line" smooth="yes"/>
      <point x="361" y="-426"/>
      <point x="271" y="-320" type="qcurve" smooth="yes"/>
      <point x="182" y="-214"/>
      <point x="182" y="-20" type="qcurve" smooth="yes"/>
    </contour>
  </outline>
</glyph>
<glyph name="uni0324" format="2">
  <advance width="1233" height="1233"/>
  <unicode hex="0324"/>
  <outline>
    <contour>
      <point x="320" y="-210" type="line"/>
      <point x="522" y="-210" type="line"/>
      <point x="522" y="-412" type="line"/>
      <point x="320" y="-412" type="line"/>
    </contour>
    <contour>
      <point x="712" y="-210" type="line"/>
      <point x="914" y="-210" type="line"/>
      <point x="914" y="-412" type="line"/>
      <point x="712" y="-412" type="line"/>
    </contour>
  </outline>
</glyph>
<glyph name="uni0326" format="2">
  <advance width="1233" height="1233"/>
  <unicode hex="0326"/>
  <outline>
    <contour>
      <point x="502" y="-197" type="line"/>
      <point x="741" y="-197" type="line"/>
      <point x="554" y="-542" type="line"/>
      <point x="408" y="-542" type="line"/>
    </contour>
  </outline>
</glyph>
<glyph name="uni0328" format="2">
  <advance width="1233" height="1233"/>
  <unicode hex="0328"/>
  <outline>
    <contour>
      <point x="538" y="0" type="qcurve"/>
      <point x="657" y="0" type="line"/>
      <point x="614" y="-59"/>
      <point x="590" y="-105" type="qcurve" smooth="yes"/>
      <point x="569" y="-148"/>
      <point x="569" y="-180" type="qcurve" smooth="yes"/>
      <point x="569" y="-226"/>
      <point x="596" y="-249" type="qcurve" smooth="yes"/>
      <point x="625" y="-272"/>
      <point x="678" y="-272" type="qcurve" smooth="yes"/>
      <point x="713" y="-272"/>
      <point x="741" y="-264" type="qcurve" smooth="yes"/>
      <point x="767" y="-259"/>
      <point x="803" y="-242" type="qcurve"/>
      <point x="803" y="-375" type="line"/>
      <point x="766" y="-386"/>
      <point x="731" y="-390" type="qcurve" smooth="yes"/>
      <point x="693" y="-395"/>
      <point x="667" y="-395" type="qcurve" smooth="yes"/>
      <point x="546" y="-395"/>
      <point x="488" y="-352" type="qcurve" smooth="yes"/>
      <point x="430" y="-307"/>
      <point x="430" y="-215" type="qcurve" smooth="yes"/>
      <point x="430" y="-169"/>
      <point x="456" y="-114" type="qcurve" smooth="yes"/>
      <point x="486" y="-58"/>
    </contour>
  </outline>
</glyph>
<glyph name="uni0329" format="2">
  <advance width="1233" height="1233"/>
  <unicode hex="0329"/>
  <outline>
    <contour>
      <point x="684" y="-209" type="line"/>
      <point x="684" y="-653" type="line"/>
      <point x="548" y="-653" type="line"/>
      <point x="548" y="-209" type="line"/>
    </contour>
  </outline>
</glyph>
<glyph name="uni032A" format="2">
  <advance width="1233" height="1233"/>
  <unicode hex="032A"/>
  <outline>
    <contour>
      <point x="892" y="-209" type="line"/>
      <point x="892" y="-539" type="line"/>
      <point x="755" y="-539" type="line"/>
      <point x="755" y="-345" type="line"/>
      <point x="478" y="-345" type="line"/>
      <point x="478" y="-539" type="line"/>
      <point x="341" y="-539" type="line"/>
      <point x="341" y="-209" type="line"/>
    </contour>
  </outline>
</glyph>
<glyph name="uni032B" format="2">
  <advance width="1233" height="1233"/>
  <unicode hex="032B"/>
  <outline>
    <contour>
      <point x="616" y="-373" type="qcurve"/>
      <point x="558" y="-455"/>
      <point x="441" y="-455" type="qcurve" smooth="yes"/>
      <point x="222" y="-455"/>
      <point x="206" y="-173" type="qcurve"/>
      <point x="206" y="-168" type="line"/>
      <point x="324" y="-168" type="line"/>
      <point x="338" y="-318"/>
      <point x="542" y="-318"/>
      <point x="558" y="-168" type="qcurve"/>
      <point x="676" y="-168" type="line"/>
      <point x="686" y="-316"/>
      <point x="792" y="-318" type="qcurve" smooth="yes"/>
      <point x="894" y="-318"/>
      <point x="909" y="-168" type="qcurve"/>
      <point x="1027" y="-168" type="line"/>
      <point x="1012" y="-454"/>
      <point x="792" y="-455" type="qcurve" smooth="yes"/>
      <point x="676" y="-455"/>
    </contour>
  </outline>
</glyph>
<glyph name="uni032C" format="2">
  <advance width="1233" height="1233"/>
  <unicode hex="032C"/>
  <outline>
    <contour>
      <point x="543" y="-485" type="line"/>
      <point x="297" y="-109" type="line"/>
      <point x="436" y="-109" type="line"/>
      <point x="616" y="-354" type="line"/>
      <point x="797" y="-109" type="line"/>
      <point x="936" y="-109" type="line"/>
      <point x="690" y="-485" type="line"/>
    </contour>
  </outline>
</glyph>
<glyph name="uni032D" format="2">
  <advance width="1233" height="1233"/>
  <unicode hex="032D"/>
  <outline>
    <contour>
      <point x="543" y="-109" type="line"/>
      <point x="690" y="-109" type="line"/>
      <point x="936" y="-485" type="line"/>
      <point x="797" y="-485" type="line"/>
      <point x="616" y="-240" type="line"/>
      <point x="436" y="-485" type="line"/>
      <point x="297" y="-485" type="line"/>
    </contour>
  </outline>
</glyph>
<glyph name="uni032E" format="2">
  <advance width="1233" height="1233"/>
  <unicode hex="032E"/>
  <outline>
    <contour>
      <point x="303" y="-200" type="qcurve"/>
      <point x="422" y="-200" type="line"/>
      <point x="432" y="-275"/>
      <point x="481" y="-313" type="qcurve" smooth="yes"/>
      <point x="528" y="-350"/>
      <point x="616" y="-350" type="qcurve" smooth="yes"/>
      <point x="702" y="-350"/>
      <point x="749" y="-313" type="qcurve" smooth="yes"/>
      <point x="798" y="-275"/>
      <point x="811" y="-200" type="qcurve"/>
      <point x="930" y="-200" type="line"/>
      <point x="919" y="-343"/>
      <point x="840" y="-415" type="qcurve" smooth="yes"/>
      <point x="760" y="-487"/>
      <point x="472" y="-487"/>
      <point x="314" y="-343"/>
    </contour>
  </outline>
</glyph>
<glyph name="uni032F" format="2">
  <advance width="1233" height="1233"/>
  <unicode hex="032F"/>
  <outline>
    <contour>
      <point x="930" y="-485" type="qcurve"/>
      <point x="811" y="-485" type="line"/>
      <point x="801" y="-410"/>
      <point x="752" y="-372" type="qcurve" smooth="yes"/>
      <point x="705" y="-335"/>
      <point x="617" y="-335" type="qcurve" smooth="yes"/>
      <point x="531" y="-335"/>
      <point x="484" y="-372" type="qcurve" smooth="yes"/>
      <point x="435" y="-410"/>
      <point x="422" y="-485" type="qcurve"/>
      <point x="303" y="-485" type="line"/>
      <point x="314" y="-342"/>
      <point x="472" y="-198"/>
      <point x="617" y="-198" type="qcurve" smooth="yes"/>
      <point x="760" y="-198"/>
      <point x="840" y="-270" type="qcurve" smooth="yes"/>
      <point x="919" y="-342"/>
    </contour>
  </outline>
</glyph>
<glyph name="uni0330" format="2">
  <advance width="1233" height="1233"/>
  <unicode hex="0330"/>
  <outline>
    <contour>
      <point x="612" y="-424" type="qcurve" smooth="yes"/>
      <point x="555" y="-369" type="line" smooth="yes"/>
      <point x="534" y="-350"/>
      <point x="518" y="-340" type="qcurve" smooth="yes"/>
      <point x="501" y="-330"/>
      <point x="487" y="-330" type="qcurve" smooth="yes"/>
      <point x="449" y="-330"/>
      <point x="431" y="-367" type="qcurve" smooth="yes"/>
      <point x="412" y="-406"/>
      <point x="411" y="-485" type="qcurve"/>
      <point x="287" y="-485" type="line"/>
      <point x="289" y="-350"/>
      <point x="339" y="-277" type="qcurve" smooth="yes"/>
      <point x="390" y="-203"/>
      <point x="481" y="-203" type="qcurve" smooth="yes"/>
      <point x="519" y="-203"/>
      <point x="552" y="-217" type="qcurve" smooth="yes"/>
      <point x="582" y="-230"/>
      <point x="621" y="-264" type="qcurve" smooth="yes"/>
      <point x="678" y="-319" type="line" smooth="yes"/>
      <point x="701" y="-341"/>
      <point x="716" y="-348" type="qcurve" smooth="yes"/>
      <point x="730" y="-358"/>
      <point x="745" y="-358" type="qcurve" smooth="yes"/>
      <point x="784" y="-358"/>
      <point x="802" y="-321" type="qcurve" smooth="yes"/>
      <point x="819" y="-285"/>
      <point x="821" y="-203" type="qcurve"/>
      <point x="946" y="-203" type="line"/>
      <point x="944" y="-338"/>
      <point x="894" y="-411" type="qcurve" smooth="yes"/>
      <point x="843" y="-485"/>
      <point x="752" y="-485" type="qcurve" smooth="yes"/>
      <point x="714" y="-485"/>
      <point x="681" y="-471" type="qcurve" smooth="yes"/>
      <point x="651" y="-458"/>
    </contour>
  </outline>
</glyph>
<glyph name="uni0331" format="2">
  <advance width="1233" height="1233"/>
  <unicode hex="0331"/>
  <outline>
    <contour>
      <point x="318" y="-209" type="line"/>
      <point x="916" y="-209" type="line"/>
      <point x="916" y="-357" type="line"/>
      <point x="318" y="-357" type="line"/>
    </contour>
  </outline>
</glyph>
<glyph name="uni0333" format="2">
  <advance width="1233" height="1233"/>
  <unicode hex="0333"/>
  <outline>
    <contour>
      <point x="1233" y="-403" type="line"/>
      <point x="1233" y="-483" type="line"/>
      <point x="0" y="-483" type="line"/>
      <point x="0" y="-403" type="line"/>
    </contour>
    <contour>
      <point x="1233" y="-163" type="line"/>
      <point x="1233" y="-243" type="line"/>
      <point x="0" y="-243" type="line"/>
      <point x="0" y="-163" type="line"/>
    </contour>
  </outline>
</glyph>
<glyph name="uni0334" format="2">
  <advance width="1233" height="1233"/>
  <unicode hex="0334"/>
  <outline>
    <contour>
      <point x="1145" y="780" type="qcurve"/>
      <point x="1145" y="606" type="line"/>
      <point x="1069" y="547"/>
      <point x="998" y="520" type="qcurve" smooth="yes"/>
      <point x="929" y="492"/>
      <point x="848" y="492" type="qcurve" smooth="yes"/>
      <point x="758" y="492"/>
      <point x="645" y="543" type="qcurve" smooth="yes"/>
      <point x="638" y="546"/>
      <point x="625" y="552"/>
      <point x="614" y="556"/>
      <point x="612" y="557" type="qcurve" smooth="yes"/>
      <point x="536" y="590"/>
      <point x="484" y="602" type="qcurve" smooth="yes"/>
      <point x="431" y="614"/>
      <point x="381" y="614" type="qcurve" smooth="yes"/>
      <point x="301" y="614"/>
      <point x="232" y="584" type="qcurve" smooth="yes"/>
      <point x="164" y="557"/>
      <point x="88" y="492" type="qcurve"/>
      <point x="88" y="666" type="line"/>
      <point x="166" y="726"/>
      <point x="239" y="753" type="qcurve" smooth="yes"/>
      <point x="312" y="780"/>
      <point x="395" y="780" type="qcurve" smooth="yes"/>
      <point x="446" y="780"/>
      <point x="498" y="769" type="qcurve" smooth="yes"/>
      <point x="549" y="758"/>
      <point x="622" y="727" type="qcurve" smooth="yes"/>
      <point x="634" y="722"/>
      <point x="655" y="712" type="qcurve" smooth="yes"/>
      <point x="769" y="657"/>
      <point x="864" y="657" type="qcurve" smooth="yes"/>
      <point x="936" y="657"/>
      <point x="1002" y="688" type="qcurve" smooth="yes"/>
      <point x="1071" y="718"/>
    </contour>
  </outline>
</glyph>
<glyph name="uni0335" format="2">
  <advance width="1233" height="1233"/>
  <unicode hex="0335"/>
  <outline>
    <contour>
      <point x="1062" y="616" type="line"/>
      <point x="1062" y="452" type="line"/>
      <point x="142" y="452" type="line"/>
      <point x="142" y="616" type="line"/>
    </contour>
  </outline>
</glyph>
<glyph name="uni0336" format="2">
  <advance width="1233" height="1233"/>
  <unicode hex="0336"/>
  <outline>
    <contour>
      <point x="0" y="452" type="line"/>
      <point x="0" y="616" type="line"/>
      <point x="1233" y="616" type="line"/>
      <point x="1233" y="452" type="line"/>
    </contour>
  </outline>
</glyph>
<glyph name="uni0337" format="2">
  <advance width="1233" height="1233"/>
  <unicode hex="0337"/>
  <outline>
    <contour>
      <point x="139" y="-96" type="line"/>
      <point x="47" y="-20" type="line"/>
      <point x="1081" y="1212" type="line"/>
      <point x="1174" y="1135" type="line"/>
    </contour>
  </outline>
</glyph>
<glyph name="uni0338" format="2">
  <advance width="1233" height="1233"/>
  <unicode hex="0338"/>
  <outline>
    <contour>
      <point x="111" y="-70" type="line"/>
      <point x="8" y="0" type="line"/>
      <point x="1100" y="1559" type="line"/>
      <point x="1200" y="1485" type="line"/>
    </contour>
  </outline>
</glyph>
<glyph name="uni0339" format="2">
  <advance width="1233" height="1233"/>
  <unicode hex="0339"/>
  <outline>
    <contour>
      <point x="506" y="-404" type="line"/>
      <point x="558" y="-404"/>
      <point x="592" y="-368" type="qcurve" smooth="yes"/>
      <point x="628" y="-334"/>
      <point x="628" y="-282" type="qcurve" smooth="yes"/>
      <point x="628" y="-232"/>
      <point x="592" y="-196" type="qcurve" smooth="yes"/>
      <point x="557" y="-161"/>
      <point x="506" y="-161" type="qcurve"/>
      <point x="506" y="-63" type="line"/>
      <point x="599" y="-63"/>
      <point x="662" y="-126" type="qcurve" smooth="yes"/>
      <point x="726" y="-190"/>
      <point x="726" y="-374"/>
      <point x="662" y="-438" type="qcurve" smooth="yes"/>
      <point x="599" y="-502"/>
      <point x="506" y="-502" type="qcurve"/>
    </contour>
  </outline>
</glyph>
<glyph name="uni033A" format="2">
  <advance width="1233" height="1233"/>
  <unicode hex="033A"/>
  <outline>
    <contour>
      <point x="341" y="-384" type="line"/>
      <point x="341" y="-54" type="line"/>
      <point x="478" y="-54" type="line"/>
      <point x="478" y="-248" type="line"/>
      <point x="755" y="-248" type="line"/>
      <point x="755" y="-54" type="line"/>
      <point x="892" y="-54" type="line"/>
      <point x="892" y="-384" type="line"/>
    </contour>
  </outline>
</glyph>
<glyph name="uni033B" format="2">
  <advance width="1233" height="1233"/>
  <unicode hex="033B"/>
  <outline>
    <contour>
      <point x="892" y="-209" type="line"/>
      <point x="892" y="-759" type="line"/>
      <point x="341" y="-759" type="line"/>
      <point x="341" y="-209" type="line"/>
    </contour>
    <contour>
      <point x="755" y="-623" type="line"/>
      <point x="755" y="-345" type="line"/>
      <point x="478" y="-345" type="line"/>
      <point x="478" y="-623" type="line"/>
    </contour>
  </outline>
</glyph>
<glyph name="uni033C" format="2">
  <advance width="1233" height="1233"/>
  <unicode hex="033C"/>
  <outline>
    <contour>
      <point x="616" y="-250" type="qcurve"/>
      <point x="676" y="-168"/>
      <point x="792" y="-168" type="qcurve" smooth="yes"/>
      <point x="1010" y="-168"/>
      <point x="1027" y="-450" type="qcurve"/>
      <point x="1027" y="-455" type="line"/>
      <point x="910" y="-455" type="line"/>
      <point x="896" y="-305"/>
      <point x="792" y="-305" type="qcurve" smooth="yes"/>
      <point x="691" y="-305"/>
      <point x="676" y="-455" type="qcurve"/>
      <point x="558" y="-455" type="line"/>
      <point x="546" y="-306"/>
      <point x="441" y="-305" type="qcurve" smooth="yes"/>
      <point x="339" y="-305"/>
      <point x="324" y="-455" type="qcurve"/>
      <point x="206" y="-455" type="line"/>
      <point x="221" y="-169"/>
      <point x="441" y="-168" type="qcurve" smooth="yes"/>
      <point x="558" y="-168"/>
    </contour>
  </outline>
</glyph>
<glyph name="uni033D" format="2">
  <advance width="1233" height="1233"/>
  <unicode hex="033D"/>
  <outline>
    <contour>
      <point x="616" y="1353" type="line"/>
      <point x="491" y="1228" type="line"/>
      <point x="395" y="1324" type="line"/>
      <point x="520" y="1449" type="line"/>
      <point x="395" y="1574" type="line"/>
      <point x="491" y="1671" type="line"/>
      <point x="616" y="1545" type="line"/>
      <point x="742" y="1671" type="line"/>
      <point x="838" y="1574" type="line"/>
      <point x="713" y="1449" type="line"/>
      <point x="838" y="1324" type="line"/>
      <point x="742" y="1228" type="line"/>
    </contour>
  </outline>
</glyph>
<glyph name="uni033E" format="2">
  <advance width="1233" height="1233"/>
  <unicode hex="033E"/>
  <outline>
    <contour>
      <point x="536" y="1479" type="line" smooth="yes"/>
      <point x="502" y="1510"/>
      <point x="490" y="1531" type="qcurve" smooth="yes"/>
      <point x="476" y="1556"/>
      <point x="476" y="1583" type="qcurve" smooth="yes"/>
      <point x="476" y="1662"/>
      <point x="549" y="1704" type="qcurve" smooth="yes"/>
      <point x="625" y="1745"/>
      <point x="758" y="1746" type="qcurve"/>
      <point x="758" y="1636" type="line"/>
      <point x="675" y="1634"/>
      <point x="639" y="1620" type="qcurve" smooth="yes"/>
      <point x="602" y="1608"/>
      <point x="602" y="1579" type="qcurve" smooth="yes"/>
      <point x="602" y="1568"/>
      <point x="612" y="1557" type="qcurve" smooth="yes"/>
      <point x="623" y="1541"/>
      <point x="642" y="1528" type="qcurve" smooth="yes"/>
      <point x="696" y="1485" type="line" smooth="yes"/>
      <point x="731" y="1456"/>
      <point x="744" y="1433" type="qcurve" smooth="yes"/>
      <point x="758" y="1408"/>
      <point x="758" y="1381" type="qcurve" smooth="yes"/>
      <point x="758" y="1302"/>
      <point x="684" y="1260" type="qcurve" smooth="yes"/>
      <point x="608" y="1219"/>
      <point x="476" y="1218" type="qcurve"/>
      <point x="476" y="1328" type="line"/>
      <point x="559" y="1330"/>
      <point x="594" y="1344" type="qcurve" smooth="yes"/>
      <point x="630" y="1356"/>
      <point x="630" y="1385" type="qcurve" smooth="yes"/>
      <point x="630" y="1395"/>
      <point x="621" y="1407" type="qcurve" smooth="yes"/>
      <point x="610" y="1422"/>
      <point x="592" y="1436" type="qcurve" smooth="yes"/>
    </contour>
  </outline>
</glyph>
<glyph name="uni033F" format="2">
  <advance width="1233" height="1233"/>
  <unicode hex="033F"/>
  <outline>
    <contour>
      <point x="1233" y="1547" type="line"/>
      <point x="1233" y="1467" type="line"/>
      <point x="0" y="1467" type="line"/>
      <point x="0" y="1547" type="line"/>
    </contour>
    <contour>
      <point x="1233" y="1307" type="line"/>
      <point x="1233" y="1227" type="line"/>
      <point x="0" y="1227" type="line"/>
      <point x="0" y="1307" type="line"/>
    </contour>
  </outline>
</glyph>
<glyph name="uni0361" format="2">
  <advance width="1233" height="1233"/>
  <unicode hex="0361"/>
  <outline>
    <contour>
      <point x="617" y="1710" type="qcurve" smooth="yes"/>
      <point x="557" y="1710"/>
      <point x="276" y="1685" type="qcurve" smooth="yes"/>
      <point x="8" y="1663"/>
      <point x="-118" y="1520" type="qcurve"/>
      <point x="-236" y="1520" type="line"/>
      <point x="-236" y="1760"/>
      <point x="272" y="1820" type="qcurve" smooth="yes"/>
      <point x="500" y="1847"/>
      <point x="732" y="1847"/>
      <point x="962" y="1820" type="qcurve" smooth="yes"/>
      <point x="1470" y="1760"/>
      <point x="1470" y="1520" type="qcurve"/>
      <point x="1352" y="1520" type="line"/>
      <point x="1224" y="1662"/>
      <point x="956" y="1685" type="qcurve" smooth="yes"/>
      <point x="678" y="1710"/>
    </contour>
  </outline>
</glyph>
<glyph name="dieresistonos" format="2">
  <advance width="1233" height="1233"/>
  <unicode hex="0385"/>
  <outline>
    <contour>
      <point x="319" y="1552" type="line"/>
      <point x="522" y="1552" type="line"/>
      <point x="522" y="1350" type="line"/>
      <point x="319" y="1350" type="line"/>
    </contour>
    <contour>
      <point x="711" y="1552" type="line"/>
      <point x="913" y="1552" type="line"/>
      <point x="913" y="1350" type="line"/>
      <point x="711" y="1350" type="line"/>
    </contour>
    <contour>
      <point x="756" y="2008" type="line"/>
      <point x="954" y="2008" type="line"/>
      <point x="629" y="1632" type="line"/>
      <point x="475" y="1632" type="line"/>
    </contour>
  </outline>
</glyph>
<glyph name="quotedblright" format="2">
  <advance width="1233" height="1233"/>
  <unicode hex="201D"/>
  <outline>
    <contour>
      <point x="768" y="2726" type="line"/>
      <point x="1020" y="2726" type="line"/>
      <point x="1020" y="2520" type="line"/>
      <point x="823" y="2137" type="line"/>
      <point x="670" y="2137" type="line"/>
      <point x="768" y="2520" type="line"/>
    </contour>
    <contour>
      <point x="309" y="2726" type="line"/>
      <point x="561" y="2726" type="line"/>
      <point x="561" y="2520" type="line"/>
      <point x="365" y="2137" type="line"/>
      <point x="211" y="2137" type="line"/>
      <point x="309" y="2520" type="line"/>
    </contour>
  </outline>
</glyph>
<glyph name="poczPUA" format="2">
  <advance width="1040" height="1040"/>
  <unicode hex="E000"/>
  <outline>
    <contour>
      <point x="-601.109" y="487.149" type="line"/>
      <point x="-497.398" y="487.149" type="line"/>
      <point x="-497.398" y="22.208" type="line"/>
      <point x="-601.109" y="22.208" type="line"/>
    </contour>
    <contour>
      <point x="-601.109" y="44.9131" type="line"/>
      <point x="-499.156" y="44.9131" type="line"/>
      <point x="-499.156" y="14.4443" type="line" smooth="yes"/>
      <point x="-499.156" y="-15.585"/>
      <point x="-472.203" y="-15.585" type="qcurve" smooth="yes"/>
      <point x="-424.156" y="-15.585"/>
      <point x="-407.896" y="39.6396" type="qcurve"/>
      <point x="-325.133" y="-4.15918" type="line"/>
      <point x="-373.18" y="-116.366"/>
      <point x="-471.617" y="-116.366" type="qcurve" smooth="yes"/>
      <point x="-601.109" y="-116.952"/>
      <point x="-601.109" y="-6.64941" type="qcurve" smooth="yes"/>
    </contour>
    <contour>
      <point x="-497.984" y="388.712" type="line"/>
      <point x="-601.109" y="390.03" type="line"/>
      <point x="-599.352" y="953.409" type="line"/>
      <point x="-599.352" y="953.995" type="line"/>
      <point x="-599.938" y="1123.77"/>
      <point x="-319.713" y="1123.77"/>
      <point x="-320.299" y="950.333" type="qcurve" smooth="yes"/>
      <point x="-321.617" y="698.38"/>
      <point x="-497.984" y="404.972" type="qcurve"/>
    </contour>
    <contour>
      <point x="-497.398" y="600.528" type="qcurve"/>
      <point x="-412.73" y="809.415"/>
      <point x="-412.145" y="949.161" type="qcurve" smooth="yes"/>
      <point x="-412.145" y="1015.23"/>
      <point x="-459.605" y="1015.23" type="qcurve" smooth="yes"/>
      <point x="-497.984" y="1015.23"/>
      <point x="-497.398" y="949.161" type="qcurve" smooth="yes"/>
      <point x="-494.908" y="776.31"/>
    </contour>
    <contour>
      <point x="-110.973" y="487.149" type="qcurve"/>
      <point x="-36.5586" y="470.45" type="line"/>
      <point x="-75.5234" y="244.718"/>
      <point x="-123.57" y="171.622" type="qcurve" smooth="yes"/>
      <point x="-228.014" y="13.126"/>
      <point x="-410.387" y="-43.2705" type="qcurve"/>
      <point x="-444.518" y="22.208" type="line"/>
      <point x="-280.748" y="72.0127"/>
      <point x="-207.506" y="188.907" type="qcurve" smooth="yes"/>
      <point x="-130.748" y="310.782"/>
    </contour>
    <contour>
      <point x="519.891" y="487.149" type="line"/>
      <point x="623.602" y="487.149" type="line"/>
      <point x="623.602" y="22.208" type="line"/>
      <point x="519.891" y="22.208" type="line"/>
    </contour>
    <contour>
      <point x="519.891" y="44.9131" type="line"/>
      <point x="621.844" y="44.9131" type="line"/>
      <point x="621.844" y="14.4443" type="line" smooth="yes"/>
      <point x="621.844" y="-15.585"/>
      <point x="648.797" y="-15.585" type="qcurve" smooth="yes"/>
      <point x="696.844" y="-15.585"/>
      <point x="713.104" y="39.6396" type="qcurve"/>
      <point x="795.867" y="-4.15918" type="line"/>
      <point x="747.82" y="-116.366"/>
      <point x="649.383" y="-116.366" type="qcurve" smooth="yes"/>
      <point x="519.891" y="-116.952"/>
      <point x="519.891" y="-6.64941" type="qcurve" smooth="yes"/>
    </contour>
    <contour>
      <point x="623.016" y="388.712" type="line"/>
      <point x="519.891" y="390.03" type="line"/>
      <point x="521.648" y="953.409" type="line"/>
      <point x="521.648" y="953.995" type="line"/>
      <point x="521.062" y="1123.77"/>
      <point x="801.287" y="1123.77"/>
      <point x="800.701" y="950.333" type="qcurve" smooth="yes"/>
      <point x="799.383" y="698.38"/>
      <point x="623.016" y="404.972" type="qcurve"/>
    </contour>
    <contour>
      <point x="623.602" y="600.528" type="qcurve"/>
      <point x="708.27" y="809.415"/>
      <point x="708.855" y="949.161" type="qcurve" smooth="yes"/>
      <point x="708.855" y="1015.23"/>
      <point x="661.395" y="1015.23" type="qcurve" smooth="yes"/>
      <point x="623.016" y="1015.23"/>
      <point x="623.602" y="949.161" type="qcurve" smooth="yes"/>
      <point x="626.092" y="776.31"/>
    </contour>
    <contour>
      <point x="754.412" y="-22.1768" type="qcurve" smooth="yes"/>
      <point x="903.826" y="-22.1768"/>
      <point x="906.316" y="488.321" type="qcurve"/>
      <point x="996.258" y="488.321" type="line"/>
      <point x="989.666" y="-106.259"/>
      <point x="751.482" y="-102.597" type="qcurve" smooth="yes"/>
      <point x="636.199" y="-100.839"/>
      <point x="636.199" y="40.2256" type="qcurve"/>
      <point x="726.287" y="40.2256" type="line"/>
      <point x="726.287" y="-22.1768"/>
    </contour>
    <contour>
      <point x="1080.34" y="487.149" type="line"/>
      <point x="1145.09" y="449.796" type="line"/>
      <point x="839.52" y="-51.3271" type="line"/>
      <point x="774.627" y="-14.1201" type="line"/>
    </contour>
  </outline>
</glyph>
<glyph name="konCONS" format="2">
  <advance width="120" height="120"/>
  <unicode hex="E002"/>
  <outline>
    <contour>
      <point x="0" y="85"/>
      <point x="18" y="102" type="qcurve" smooth="yes"/>
      <point x="36" y="120"/>
      <point x="84" y="120"/>
      <point x="120" y="85"/>
      <point x="120" y="36"/>
      <point x="85" y="0"/>
      <point x="35" y="0"/>
      <point x="18" y="18" type="qcurve" smooth="yes"/>
      <point x="0" y="35"/>
    </contour>
    <contour>
      <point x="60" y="80" type="move"/>
      <point x="60" y="40" type="line"/>
      <point x="40" y="60" type="line"/>
      <point x="80" y="60" type="line"/>
    </contour>
  </outline>
</glyph>
<glyph name="prostaVOW" format="2">
  <advance width="80" height="80"/>
  <unicode hex="E004"/>
  <outline>
    <contour>
      <point x="0" y="900" type="line"/>
      <point x="80" y="900" type="line"/>
      <point x="80" y="0" type="line"/>
      <point x="0" y="0" type="line"/>
    </contour>
  </outline>
</glyph>
<glyph name="stemK" format="2">
  <advance width="120" height="120"/>
  <unicode hex="E008"/>
  <note>wys 1800</note>
  <outline>
    <contour>
      <point x="120" y="1740" type="qcurve"/>
      <point x="120" y="60" type="line"/>
      <point x="60" y="60"/>
      <point x="0" y="60" type="qcurve"/>
      <point x="0" y="1740" type="line"/>
      <point x="0" y="1740"/>
    </contour>
    <contour>
      <point x="0" y="60" type="move"/>
    </contour>
    <component base="konCONS"/>
    <component base="konCONS" yOffset="1680"/>
  </outline>
</glyph>
<glyph name="stemK.krt" format="2">
  <advance width="120" height="120"/>
  <unicode hex="E009"/>
  <note>wys 1200</note>
  <outline>
    <contour>
      <point x="120" y="1140" type="qcurve"/>
      <point x="120" y="60" type="line"/>
      <point x="60" y="60"/>
      <point x="0" y="60" type="qcurve"/>
      <point x="0" y="1140" type="line"/>
      <point x="60" y="1140"/>
    </contour>
    <contour>
      <point x="0" y="60" type="move"/>
    </contour>
    <component base="konCONS"/>
    <component base="konCONS" yOffset="1080"/>
  </outline>
</glyph>
<glyph name="stemG" format="2">
  <advance width="120" height="120"/>
  <unicode hex="E00A"/>
  <note>wys 800</note>
  <outline>
    <contour>
      <point x="120" y="740" type="qcurve"/>
      <point x="120" y="60" type="line"/>
      <point x="60" y="60"/>
      <point x="0" y="60" type="qcurve"/>
      <point x="0" y="740" type="line"/>
      <point x="60" y="740"/>
    </contour>
    <contour>
      <point x="0" y="60" type="move"/>
    </contour>
    <component base="konCONS"/>
    <component base="konCONS" yOffset="680"/>
  </outline>
</glyph>
<glyph name="stemG.krt" format="2">
  <advance width="120" height="120"/>
  <unicode hex="E00B"/>
  <note>wys 700</note>
  <outline>
    <contour>
      <point x="120" y="541" type="qcurve"/>
      <point x="120" y="60" type="line"/>
      <point x="60" y="60"/>
      <point x="0" y="60" type="qcurve"/>
      <point x="0" y="541" type="line"/>
      <point x="60" y="541"/>
    </contour>
    <contour>
      <point x="0" y="60" type="move"/>
    </contour>
    <component base="konCONS"/>
    <component base="konCONS" yOffset="481"/>
  </outline>
</glyph>
<glyph name="stemI" format="2">
  <advance width="120" height="120"/>
  <unicode hex="E00C"/>
  <note>wys 400</note>
  <outline>
    <contour>
      <point x="120" y="340" type="qcurve"/>
      <point x="120" y="60" type="line"/>
      <point x="60" y="60"/>
      <point x="0" y="60" type="qcurve"/>
      <point x="0" y="340" type="line"/>
      <point x="60" y="340"/>
    </contour>
    <contour>
      <point x="0" y="60" type="move"/>
    </contour>
    <component base="konCONS"/>
    <component base="konCONS" yOffset="280"/>
  </outline>
</glyph>
<glyph name="stemI.krt" format="2">
  <advance width="120" height="120"/>
  <unicode hex="E00D"/>
  <note>wys 300</note>
  <outline>
    <contour>
      <point x="120" y="240" type="qcurve"/>
      <point x="120" y="60" type="line"/>
      <point x="60" y="60"/>
      <point x="0" y="60" type="qcurve"/>
      <point x="0" y="240" type="line"/>
      <point x="60" y="240"/>
    </contour>
    <contour>
      <point x="0" y="60" type="move"/>
    </contour>
    <component base="konCONS"/>
    <component base="konCONS" yOffset="180"/>
  </outline>
</glyph>
<glyph name="stemKRT" format="2">
  <advance width="120" height="120"/>
  <unicode hex="E00E"/>
  <note>wys 240</note>
  <outline>
    <contour>
      <point x="120" y="180" type="qcurve"/>
      <point x="120" y="60" type="line"/>
      <point x="90" y="60"/>
      <point x="60" y="60" type="qcurve"/>
      <point x="30" y="60"/>
      <point x="0" y="60" type="qcurve"/>
      <point x="0" y="180" type="line"/>
      <point x="60" y="180"/>
    </contour>
    <contour>
      <point x="0" y="60" type="move"/>
    </contour>
    <component base="konCONS"/>
    <component base="konCONS" yOffset="120"/>
  </outline>
</glyph>
<glyph name="konCON.krzyz" format="2">
  <advance width="120" height="120"/>
  <unicode hex="E010"/>
  <outline>
    <contour>
      <point x="60" y="80" type="move"/>
      <point x="60" y="40" type="line"/>
      <point x="40" y="60" type="line"/>
      <point x="80" y="60" type="line"/>
    </contour>
  </outline>
</glyph>
<glyph name="p.brh.4" format="2">
  <advance width="480" height="480"/>
  <unicode hex="E024"/>
  <outline>
    <contour>
      <point x="118.289" y="47" type="qcurve"/>
      <point x="89.2891" y="48"/>
      <point x="60.2891" y="48" type="qcurve"/>
      <point x="30.2891" y="48"/>
      <point x="0.289062" y="48" type="qcurve"/>
      <point x="0.289062" y="454"/>
      <point x="0.289062" y="551" type="qcurve"/>
      <point x="1.28906" y="899"/>
      <point x="234.789" y="899" type="qcurve" smooth="yes"/>
      <point x="480.289" y="899"/>
      <point x="480.289" y="600" type="qcurve" smooth="yes"/>
      <point x="480.289" y="409"/>
    </contour>
    <contour>
      <point x="120.289" y="217" type="qcurve"/>
      <point x="359.289" y="457"/>
      <point x="360.289" y="600" type="qcurve" smooth="yes"/>
      <point x="361.289" y="776"/>
      <point x="234.289" y="776" type="qcurve" smooth="yes"/>
      <point x="120.289" y="776"/>
      <point x="120.289" y="544" type="qcurve" smooth="yes"/>
      <point x="120.289" y="512"/>
    </contour>
    <component base="konCONS" xOffset="0.287169" yOffset="-4.54747e-13"/>
    <component base="konCONS" xOffset="0.287169" yOffset="12"/>
  </outline>
</glyph>
<glyph name="p.brh.3" format="2">
  <advance width="482" height="482"/>
  <unicode hex="E025"/>
  <outline>
    <contour>
      <point x="120" y="53" type="qcurve"/>
      <point x="90" y="48"/>
      <point x="60" y="44" type="qcurve"/>
      <point x="30" y="44"/>
      <point x="0" y="44" type="qcurve"/>
      <point x="0" y="450"/>
      <point x="0" y="600" type="qcurve"/>
      <point x="1" y="961"/>
      <point x="234.5" y="961" type="qcurve" smooth="yes"/>
      <point x="648" y="962"/>
      <point x="370" y="480" type="qcurve" smooth="yes"/>
      <point x="370" y="480"/>
    </contour>
    <contour>
      <point x="121" y="288" type="qcurve"/>
      <point x="130.301" y="304.894"/>
      <point x="266" y="540" type="qcurve" smooth="yes"/>
      <point x="439" y="838"/>
      <point x="234" y="838" type="qcurve" smooth="yes"/>
      <point x="119" y="838"/>
      <point x="120" y="600" type="qcurve" smooth="yes"/>
      <point x="121" y="362"/>
    </contour>
    <component base="konCONS" yOffset="10"/>
    <component base="konCONS" yOffset="-4.54747e-13"/>
  </outline>
</glyph>
<glyph name="p.brh.6" format="2">
  <advance width="481" height="481"/>
  <unicode hex="E026"/>
  <outline>
    <contour>
      <point x="118" y="47" type="qcurve"/>
      <point x="89" y="48"/>
      <point x="60" y="48" type="qcurve"/>
      <point x="30" y="48"/>
      <point x="0" y="48" type="qcurve"/>
      <point x="0" y="48"/>
      <point x="0" y="536" type="qcurve" smooth="yes"/>
      <point x="0" y="900"/>
      <point x="239.5" y="900" type="qcurve" smooth="yes"/>
      <point x="481" y="900"/>
      <point x="481" y="601" type="qcurve" smooth="yes"/>
      <point x="481" y="253"/>
    </contour>
    <contour>
      <point x="120" y="186" type="qcurve"/>
      <point x="360" y="326"/>
      <point x="360" y="601" type="qcurve" smooth="yes"/>
      <point x="360" y="780"/>
      <point x="240" y="780" type="qcurve" smooth="yes"/>
      <point x="120" y="780"/>
      <point x="120" y="536" type="qcurve" smooth="yes"/>
      <point x="120" y="536"/>
    </contour>
    <component base="konCONS"/>
    <component base="konCONS" yOffset="22"/>
  </outline>
</glyph>
<glyph name="p.brh.8" format="2">
  <advance width="480" height="480"/>
  <unicode hex="E027"/>
  <outline>
    <contour>
      <point x="118.289" y="47" type="qcurve"/>
      <point x="89.2891" y="48"/>
      <point x="60.2891" y="48" type="qcurve"/>
      <point x="30.2891" y="48"/>
      <point x="0.289062" y="48" type="qcurve"/>
      <point x="0.289062" y="601"/>
      <point x="0.289062" y="601" type="qcurve"/>
      <point x="-0.710938" y="899"/>
      <point x="227.789" y="900" type="qcurve" smooth="yes"/>
      <point x="480.289" y="901"/>
      <point x="480.289" y="600" type="qcurve" smooth="yes"/>
      <point x="481.289" y="78"/>
    </contour>
    <contour>
      <point x="120.289" y="169" type="qcurve"/>
      <point x="360.289" y="189"/>
      <point x="360.289" y="600" type="qcurve" smooth="yes"/>
      <point x="360.289" y="777"/>
      <point x="227.289" y="777" type="qcurve" smooth="yes"/>
      <point x="120.289" y="777"/>
      <point x="120.289" y="601" type="qcurve" smooth="yes"/>
      <point x="120.289" y="601"/>
    </contour>
    <component base="konCONS" xOffset="0.287169"/>
    <component base="konCONS" xOffset="0.287169" yOffset="42"/>
  </outline>
</glyph>
<glyph name="b.brh.4" format="2">
  <advance width="452" height="452"/>
  <unicode hex="E02C"/>
  <outline>
    <contour>
      <point x="120" y="211" type="qcurve"/>
      <point x="205" y="294"/>
      <point x="205" y="294" type="qcurve" smooth="yes"/>
      <point x="259" y="347"/>
      <point x="301" y="397" type="qcurve" smooth="yes"/>
      <point x="327.985" y="432.443"/>
      <point x="328.288" y="485" type="qcurve" smooth="yes"/>
      <point x="328" y="527"/>
      <point x="302" y="557" type="qcurve" smooth="yes"/>
      <point x="265" y="597"/>
      <point x="226" y="596" type="qcurve" smooth="yes"/>
      <point x="187" y="595"/>
      <point x="148" y="555" type="qcurve" smooth="yes"/>
      <point x="119" y="524"/>
      <point x="120" y="433" type="qcurve" smooth="yes"/>
      <point x="122" y="289"/>
    </contour>
    <contour>
      <point x="117.991" y="41" type="qcurve"/>
      <point x="117.991" y="41"/>
      <point x="0" y="60" type="qcurve"/>
      <point x="0" y="436" type="line" smooth="yes"/>
      <point x="0" y="719"/>
      <point x="228" y="719" type="qcurve" smooth="yes"/>
      <point x="322" y="719"/>
      <point x="389" y="640" type="qcurve" smooth="yes"/>
      <point x="451" y="568"/>
      <point x="452.006" y="500" type="qcurve" smooth="yes"/>
      <point x="453" y="429"/>
      <point x="427" y="377" type="qcurve" smooth="yes"/>
      <point x="394" y="311"/>
      <point x="296" y="214" type="qcurve" smooth="yes"/>
      <point x="207" y="127"/>
    </contour>
    <component base="konCONS" yOffset="4"/>
    <component base="konCONS"/>
  </outline>
</glyph>
<glyph name="b.brh.3" format="2">
  <advance width="430" height="430"/>
  <unicode hex="E02D"/>
  <outline>
    <contour>
      <point x="120" y="288" type="qcurve"/>
      <point x="158" y="346"/>
      <point x="158" y="346" type="qcurve" smooth="yes"/>
      <point x="248" y="500"/>
      <point x="252" y="507" type="qcurve" smooth="yes"/>
      <point x="367" y="741"/>
      <point x="223" y="742" type="qcurve" smooth="yes"/>
      <point x="120" y="743"/>
      <point x="120" y="569" type="qcurve" smooth="yes"/>
      <point x="120" y="407"/>
    </contour>
    <contour>
      <point x="117.991" y="41" type="qcurve"/>
      <point x="117.991" y="41"/>
      <point x="0" y="79" type="qcurve"/>
      <point x="0" y="587" type="line" smooth="yes"/>
      <point x="0" y="865"/>
      <point x="222" y="865" type="qcurve" smooth="yes"/>
      <point x="623" y="865"/>
      <point x="252" y="263" type="qcurve" smooth="yes"/>
      <point x="191" y="164"/>
      <point x="191" y="164" type="qcurve" smooth="yes"/>
      <point x="164" y="123"/>
    </contour>
    <component base="konCONS" xOffset="2" yOffset="6"/>
    <component base="konCONS"/>
  </outline>
</glyph>
<glyph name="b.brh.6" format="2">
  <advance width="453" height="453"/>
  <unicode hex="E02E"/>
  <outline>
    <contour>
      <point x="120" y="183" type="qcurve"/>
      <point x="332" y="307"/>
      <point x="332" y="407" type="qcurve" smooth="yes"/>
      <point x="332.992" y="536"/>
      <point x="226" y="536" type="qcurve" smooth="yes"/>
      <point x="120" y="536"/>
      <point x="120" y="401" type="qcurve" smooth="yes"/>
      <point x="120" y="261"/>
    </contour>
    <contour>
      <point x="117.991" y="41" type="qcurve"/>
      <point x="117.991" y="41"/>
      <point x="0" y="60" type="qcurve"/>
      <point x="0" y="404" type="line" smooth="yes"/>
      <point x="0" y="659"/>
      <point x="228" y="659" type="qcurve" smooth="yes"/>
      <point x="455" y="659"/>
      <point x="453" y="411" type="qcurve" smooth="yes"/>
      <point x="452" y="242"/>
    </contour>
    <component base="konCONS" yOffset="17"/>
    <component base="konCONS" yOffset="4.54747e-13"/>
  </outline>
</glyph>
<glyph name="b.brh.8" format="2">
  <advance width="446" height="446"/>
  <unicode hex="E02F"/>
  <outline>
    <contour>
      <point x="120" y="166" type="qcurve"/>
      <point x="329" y="173"/>
      <point x="329" y="356" type="qcurve" smooth="yes"/>
      <point x="329" y="531"/>
      <point x="225" y="531" type="qcurve" smooth="yes"/>
      <point x="120" y="531"/>
      <point x="120" y="349" type="qcurve" smooth="yes"/>
      <point x="120" y="243"/>
    </contour>
    <contour>
      <point x="117.991" y="41" type="qcurve"/>
      <point x="117.991" y="41"/>
      <point x="0" y="60" type="qcurve"/>
      <point x="0" y="347" type="line" smooth="yes"/>
      <point x="0" y="654"/>
      <point x="227" y="654" type="qcurve" smooth="yes"/>
      <point x="447" y="654"/>
      <point x="446" y="355" type="qcurve" smooth="yes"/>
      <point x="445" y="75"/>
    </contour>
    <component base="konCONS" yOffset="38"/>
    <component base="konCONS"/>
  </outline>
</glyph>
<glyph name="sp.brh.4" format="2">
  <advance width="601" height="601"/>
  <unicode hex="E034"/>
  <outline>
    <contour>
      <point x="0" y="50" type="line"/>
      <point x="0" y="569"/>
      <point x="1" y="717" type="qcurve" smooth="yes"/>
      <point x="3" y="1082"/>
      <point x="299.5" y="1082.5" type="qcurve" smooth="yes"/>
      <point x="600" y="1083"/>
      <point x="600" y="800" type="qcurve" smooth="yes"/>
      <point x="600" y="525"/>
      <point x="276" y="200" type="qcurve" smooth="yes"/>
      <point x="276" y="200"/>
      <point x="120" y="44" type="qcurve"/>
    </contour>
    <contour>
      <point x="120" y="214" type="qcurve"/>
      <point x="162" y="258"/>
      <point x="206" y="300" type="qcurve" smooth="yes"/>
      <point x="480" y="573"/>
      <point x="480" y="800" type="qcurve" smooth="yes"/>
      <point x="480" y="965"/>
      <point x="121" y="963"/>
      <point x="120" y="695" type="qcurve" smooth="yes"/>
      <point x="119" y="387"/>
    </contour>
    <component base="konCONS" xOffset="4.54747e-13" yOffset="-1"/>
    <component base="konCONS" yOffset="10"/>
  </outline>
</glyph>
<glyph name="sp.brh.3" format="2">
  <advance width="600" height="600"/>
  <unicode hex="E035"/>
  <outline>
    <contour>
      <point x="0.824219" y="57" type="line"/>
      <point x="1.82422" y="324"/>
      <point x="0.824219" y="783" type="qcurve" smooth="yes"/>
      <point x="-0.175781" y="1199"/>
      <point x="599.824" y="1201"/>
      <point x="599.824" y="992" type="qcurve" smooth="yes"/>
      <point x="599.824" y="891"/>
      <point x="239.824" y="261" type="qcurve" smooth="yes"/>
      <point x="239.824" y="261"/>
      <point x="120.824" y="51" type="qcurve"/>
    </contour>
    <contour>
      <point x="120.824" y="294" type="qcurve"/>
      <point x="199.824" y="435"/>
      <point x="279.824" y="576" type="qcurve" smooth="yes"/>
      <point x="479.824" y="926"/>
      <point x="479.824" y="997" type="qcurve" smooth="yes"/>
      <point x="479.824" y="1081"/>
      <point x="119.824" y="1079"/>
      <point x="121.824" y="783.5" type="qcurve" smooth="yes"/>
      <point x="122.824" y="624"/>
    </contour>
    <component base="konCONS" xOffset="0.824219"/>
    <component base="konCONS" xOffset="7.82422" yOffset="20"/>
  </outline>
</glyph>
<glyph name="sp.brh.6" format="2">
  <advance width="600" height="600"/>
  <unicode hex="E036"/>
  <outline>
    <contour>
      <point x="0.624023" y="54" type="line"/>
      <point x="0.624023" y="320"/>
      <point x="0.624023" y="601" type="qcurve" smooth="yes"/>
      <point x="0.624023" y="966"/>
      <point x="600.624" y="956"/>
      <point x="600.624" y="600" type="qcurve" smooth="yes"/>
      <point x="600.624" y="328"/>
      <point x="120.624" y="48" type="qcurve"/>
    </contour>
    <contour>
      <point x="120.624" y="190" type="qcurve"/>
      <point x="480.624" y="397"/>
      <point x="480.624" y="601" type="qcurve" smooth="yes"/>
      <point x="480.624" y="843"/>
      <point x="121.624" y="842"/>
      <point x="120.624" y="601" type="qcurve" smooth="yes"/>
      <point x="119.624" y="300"/>
    </contour>
    <component base="konCONS" xOffset="0.624023" yOffset="-4.54747e-13"/>
    <component base="konCONS" xOffset="0.624023" yOffset="25"/>
  </outline>
</glyph>
<glyph name="sp.brh.9" format="2">
  <advance width="600" height="600"/>
  <unicode hex="E037"/>
  <outline>
    <contour>
      <point x="0" y="55" type="line"/>
      <point x="0" y="322"/>
      <point x="0" y="552" type="qcurve" smooth="yes"/>
      <point x="0" y="899"/>
      <point x="599" y="900"/>
      <point x="599" y="553" type="qcurve" smooth="yes"/>
      <point x="600" y="92"/>
      <point x="120" y="49" type="qcurve"/>
    </contour>
    <contour>
      <point x="120" y="172" type="qcurve"/>
      <point x="480" y="201"/>
      <point x="480" y="555" type="qcurve" smooth="yes"/>
      <point x="480" y="779"/>
      <point x="121" y="778"/>
      <point x="120" y="552" type="qcurve" smooth="yes"/>
      <point x="120" y="356"/>
    </contour>
    <component base="konCONS" xOffset="4.54747e-13" yOffset="1"/>
    <component base="konCONS" yOffset="45"/>
  </outline>
</glyph>
